<?xml version="1.0" encoding="UTF-8"?>
<svg width="16px" height="16px" viewBox="0 0 16 16" version="1.1" xmlns="http://www.w3.org/2000/svg" xmlns:xlink="http://www.w3.org/1999/xlink">
    <title>编组</title>
    <g id="页面-1" stroke="none" stroke-width="1" fill="none" fill-rule="evenodd">
        <g id="项目跟踪首页" transform="translate(-880.000000, -348.000000)" fill="#1890FF">
            <g id="编组" transform="translate(880.000000, 348.000000)">
                <path d="M8,0 C12.4183529,0 16,3.58164706 16,8 C16,12.4183529 12.4183529,16 8,16 C3.58164706,16 0,12.4183529 0,8 C0,3.58164706 3.58164706,0 8,0 Z M8,1.4117647 C4.36141178,1.4117647 1.4117647,4.36141175 1.4117647,8 C1.4117647,11.6385882 4.36141175,14.5882353 8,14.5882353 C11.6385882,14.5882353 14.5882353,11.6385882 14.5882353,8 C14.5882353,4.36141175 11.6385882,1.4117647 8,1.4117647 Z M8.70588235,3.76470589 L8.70588235,7.29411765 L12.2352941,7.29411765 L12.2352941,8.70588235 L8.70588235,8.70588235 L8.70588235,12.2352941 L7.29411765,12.2352941 L7.29411765,8.70541177 L3.76470589,8.70588235 L3.76470589,7.29411765 L7.29411765,7.29364707 L7.29411765,3.76470589 L8.70588235,3.76470589 Z" id="形状"></path>
            </g>
        </g>
    </g>
</svg>