<?xml version="1.0" encoding="UTF-8"?>
<svg width="88px" height="18px" viewBox="0 0 88 18" version="1.1" xmlns="http://www.w3.org/2000/svg" xmlns:xlink="http://www.w3.org/1999/xlink">
    <title>down</title>
    <g id="页面-1" stroke="none" stroke-width="1" fill="none" fill-rule="evenodd">
        <g id="项目跟踪首页（补充)" transform="translate(-1124.000000, -622.000000)">
            <g id="down" transform="translate(1124.000000, 622.000000)">
                <g id="arrow-up备份-6" transform="translate(36.000000, 0.000000)" fill-rule="nonzero">
                    <rect id="矩形" fill="#000000" opacity="0" x="0" y="0" width="16" height="16"></rect>
                    <path d="M7.33497453,6.34127387 L2.22184657,10.3412739 C1.71865027,10.9878214 2.12684133,12.0000647 2.89073437,12 L8.001946,9 L13.113293,11.9994731 C13.8769033,11.9994084 14.2850627,10.9877454 13.7823535,10.341141 L8.67292282,6.34166793 C8.31886843,5.88626913 7.68924086,5.88608369 7.33497453,6.34127387 Z" id="路径备份-2" fill="#999999" transform="translate(8.001946, 9.000000) scale(-1, 1) rotate(-180.000000) translate(-8.001946, -9.000000) "></path>
                    <path d="M7.46831693,3.27304479 L3.17749452,6.47335603 C2.77489832,6.99064436 3.10148294,7.80051775 3.7126568,7.800466 L8.001946,5.65112743 L12.2913435,7.8000444 C12.9022912,7.79999266 13.2288504,6.99058359 12.826644,6.47324972 L8.53877967,3.27336007 C8.2555086,2.90900559 7.75175756,2.90885723 7.46831693,3.27304479 Z" id="路径备份-3" fill="#CCCCCC" transform="translate(8.001946, 5.400233) scale(-1, 1) rotate(-180.000000) translate(-8.001946, -5.400233) "></path>
                </g>
                <rect id="矩形备份-4" fill="#666666" x="0" y="16" width="88" height="2" rx="1"></rect>
            </g>
        </g>
    </g>
</svg>