<?xml version="1.0" encoding="UTF-8"?>
<svg width="16px" height="16px" viewBox="0 0 16 16" version="1.1" xmlns="http://www.w3.org/2000/svg" xmlns:xlink="http://www.w3.org/1999/xlink">
    <title>等待</title>
    <defs>
        <linearGradient x1="0%" y1="50%" x2="100%" y2="50%" id="linearGradient-1">
            <stop stop-color="#F9455A" offset="0%"></stop>
            <stop stop-color="#FC9959" offset="100%"></stop>
        </linearGradient>
    </defs>
    <g id="页面-1" stroke="none" stroke-width="1" fill="none" fill-rule="evenodd">
        <g id="项目跟踪首页（补充)" transform="translate(-779.000000, -820.000000)" fill-rule="nonzero">
            <g id="编组-13" transform="translate(699.000000, 685.000000)">
                <g id="等待" transform="translate(80.000000, 135.000000)">
                    <rect id="矩形" fill="url(#linearGradient-1)" x="0" y="0" width="16" height="16" rx="4"></rect>
                    <path d="M8.959739,5.41010727 C10.6385615,5.41010727 12,6.76566828 12,8.43754468 C12,10.1099554 10.6385615,11.4655187 8.959739,11.4655187 L4.9069482,11.4655187 C4.77279844,11.4658001 4.64403817,11.4127447 4.54902954,11.3180367 C4.45402092,11.2233287 4.40055765,11.0947373 4.40041614,10.9605873 C4.40041614,10.6822084 4.62750066,10.4561925 4.9069482,10.4561925 L8.959739,10.4561925 C9.49620242,10.4573273 10.0111366,10.2452692 10.3912252,9.86668373 C10.7713138,9.48809827 10.9854106,8.97400838 10.9864016,8.43754468 C10.9852691,7.90117366 10.7711098,7.387221 10.3910366,7.00875105 C10.0109634,6.63028109 9.49611002,6.41829631 8.959739,6.41943119 L5.71109457,6.41943119 L6.29617115,7.00290483 C6.42819548,7.12947551 6.48117113,7.31770249 6.43454363,7.49455395 C6.38791613,7.6714054 6.24902439,7.80904587 6.07175822,7.85407104 C5.89470126,7.90027538 5.7064801,7.84760612 5.57911838,7.71621738 L4.14821874,6.28959227 C4.05333428,6.19504853 4,6.06661502 4,5.93266884 C4,5.79872265 4.05333428,5.67028914 4.14821874,5.5757454 L5.57911838,4.14805166 C5.77737785,3.95064945 6.09791169,3.95064945 6.29617115,4.14805166 C6.49386827,4.34468014 6.49386827,4.66420142 6.29617115,4.86136421 L5.74582514,5.40957296 L8.959739,5.41010727 Z" id="路径" fill="#FFFFFF"></path>
                </g>
            </g>
        </g>
    </g>
</svg>