<?xml version="1.0" encoding="UTF-8"?>
<svg width="16px" height="16px" viewBox="0 0 16 16" version="1.1" xmlns="http://www.w3.org/2000/svg" xmlns:xlink="http://www.w3.org/1999/xlink">
    <title>等待备份</title>
    <defs>
        <linearGradient x1="100%" y1="50%" x2="-1.55518067%" y2="50%" id="linearGradient-1">
            <stop stop-color="#65AFFF" offset="0%"></stop>
            <stop stop-color="#3577FE" offset="100%"></stop>
        </linearGradient>
    </defs>
    <g id="页面-1" stroke="none" stroke-width="1" fill="none" fill-rule="evenodd">
        <g id="项目跟踪首页（补充)" transform="translate(-843.000000, -794.000000)" fill-rule="nonzero">
            <g id="编组-13" transform="translate(699.000000, 685.000000)">
                <g id="等待备份" transform="translate(144.000000, 109.000000)">
                    <rect id="矩形" fill="url(#linearGradient-1)" x="0" y="0" width="16" height="16" rx="4"></rect>
                    <path d="M11.8062284,10.863266 L9.89172899,8.94787365 L9.8211854,8.89072441 C10.1444358,8.39424043 10.3337426,7.80310302 10.3337426,7.16642482 C10.3337426,5.4180154 8.91662016,4 7.16642482,4 C5.4180154,4 4,5.4180154 4,7.16642482 C4,8.9157272 5.4180154,10.3328496 7.16642482,10.3328496 C7.80310302,10.3328496 8.39424043,10.1435428 8.89072441,9.82029244 L8.94698069,9.88994307 L10.8614801,11.8044425 C10.9918518,11.9348142 11.1624065,12 11.3329613,12 C11.503516,12 11.6740708,11.9348142 11.8044425,11.8044425 C12.0660788,11.545485 12.0660788,11.1231164 11.8062284,10.863266 Z M7.16642482,9.33363099 C5.97254158,9.33363099 5.00011162,8.36120103 5.00011162,7.16642482 C5.00011162,5.97254158 5.97254158,5.00011162 7.16642482,5.00011162 C8.36120103,5.00011162 9.33363099,5.97164862 9.33363099,7.16642482 C9.33363099,8.36120103 8.36120103,9.33363099 7.16642482,9.33363099 Z" id="形状" fill="#FFFFFF"></path>
                </g>
            </g>
        </g>
    </g>
</svg>