<?xml version="1.0" encoding="UTF-8"?>
<svg width="16px" height="16px" viewBox="0 0 16 16" version="1.1" xmlns="http://www.w3.org/2000/svg" xmlns:xlink="http://www.w3.org/1999/xlink">
    <title>等待</title>
    <g id="页面-1" stroke="none" stroke-width="1" fill="none" fill-rule="evenodd">
        <g id="项目跟踪首页（补充)" transform="translate(-715.000000, -794.000000)" fill-rule="nonzero">
            <g id="编组-13" transform="translate(699.000000, 685.000000)">
                <g id="等待" transform="translate(16.000000, 109.000000)">
                    <rect id="矩形" fill="#CCCCCC" x="0" y="0" width="16" height="16" rx="4"></rect>
                    <path d="M10.7581227,4 L5.24187726,4 C4.54873646,4 4,4.59375 4,5.34375 L4,9.6875 C4,10.4375 4.54873646,11.03125 5.24187726,11.03125 L6.74368231,11.03125 C6.74368231,11.03125 7.75451264,11.53125 8.1299639,11.78125 C8.24548736,11.84375 8.53429603,11.96875 8.70758123,11.6875 C8.93862816,11.1875 8.50541516,11.03125 8.50541516,11.03125 C8.50541516,11.03125 7.66787004,10.59375 7.49458484,10.5 C7.32129964,10.40625 7.09025271,10.21875 6.74368231,10.21875 L5.24187726,10.21875 C5.24187726,10.21875 4.72202166,10.15625 4.72202166,9.6875 L4.72202166,5.34375 C4.72202166,5.34375 4.77978339,4.8125 5.24187726,4.8125 L10.7581227,4.8125 C10.7581227,4.8125 11.2490975,4.8125 11.2490975,5.34375 L11.2490975,9.6875 C11.2490975,9.6875 11.2490975,10.21875 10.7581227,10.21875 L9.51624549,10.21875 C9.25631769,10.21875 9.02527076,10.21875 9.02527076,10.625 C9.02527076,11.03125 9.28519856,11.03125 9.51624549,11.03125 L10.7581227,11.03125 C11.4512635,11.03125 12,10.4375 12,9.6875 L12,5.34375 C12,4.59375 11.4512635,4 10.7581227,4 Z M5.73285199,7.53125 C5.73285199,7.84375 5.96389892,8.0625 6.22382671,8.0625 C6.48375451,8.0625 6.71480144,7.8125 6.71480144,7.53125 C6.71480144,7.21875 6.48375451,7 6.22382671,7 C5.96389892,7 5.73285199,7.21875 5.73285199,7.53125 Z M7.49458484,7.53125 C7.49458484,7.84375 7.72563177,8.0625 7.98555957,8.0625 C8.27436823,8.0625 8.4765343,7.8125 8.4765343,7.53125 C8.4765343,7.21875 8.24548736,7 7.98555957,7 C7.72563177,6.96875 7.49458484,7.21875 7.49458484,7.53125 Z M10.2382671,7.53125 C10.2382671,7.21875 10.0072202,7 9.74729242,7 C9.45848375,7 9.25631769,7.25 9.25631769,7.53125 C9.25631769,7.84375 9.48736462,8.0625 9.74729242,8.0625 C10.0072202,8.0625 10.2382671,7.8125 10.2382671,7.53125 Z" id="形状" fill="#FFFFFF"></path>
                </g>
            </g>
        </g>
    </g>
</svg>