<?xml version="1.0" encoding="UTF-8"?>
<svg width="16px" height="16px" viewBox="0 0 16 16" version="1.1" xmlns="http://www.w3.org/2000/svg" xmlns:xlink="http://www.w3.org/1999/xlink">
    <title>等待</title>
    <defs>
        <linearGradient x1="100%" y1="50%" x2="-1.55518067%" y2="50%" id="linearGradient-1">
            <stop stop-color="#65AFFF" offset="0%"></stop>
            <stop stop-color="#3577FE" offset="100%"></stop>
        </linearGradient>
    </defs>
    <g id="页面-1" stroke="none" stroke-width="1" fill="none" fill-rule="evenodd">
        <g id="项目跟踪首页（补充)" transform="translate(-779.000000, -794.000000)" fill-rule="nonzero">
            <g id="编组-13" transform="translate(699.000000, 685.000000)">
                <g id="等待" transform="translate(80.000000, 109.000000)">
                    <rect id="矩形" fill="url(#linearGradient-1)" x="0" y="0" width="16" height="16" rx="4"></rect>
                    <path d="M10.7674219,11.2385941 L5.13390625,11.2385941 C5.06140625,11.23875 5.00210937,11.1821875 5.00070312,11.1114844 L5.00070312,10.1238281 C5.00195313,10.053125 5.0615625,9.99679688 5.13390625,9.99764655 L10.7677344,9.99764655 C10.8398437,9.99710938 10.8989844,10.0533594 10.9003125,10.1238281 L10.9003125,11.1117969 C10.8983594,11.1821875 10.8395313,11.2384375 10.7674219,11.2385941 Z M8.0625,8.43679688 L8.75960937,9.235 L7.14132813,9.235 L7.8278125,8.45109375 L8.0625,8.43679688 Z M7.950625,4.76265625 C8.67484375,4.76265625 9.26351562,5.32390626 9.26351562,6.01421876 C9.26351562,6.7 8.68117187,7.25796876 7.96265625,7.26414063 L7.93828125,7.26414063 C7.22039062,7.25765625 6.63742187,6.7003125 6.63742187,6.01421876 C6.63742187,5.32453126 7.22640625,4.76265625 7.950625,4.76265625 Z M9.74367187,9.2346875 L8.6475,7.90492188 C9.46960937,7.62914062 10.0628906,6.88960938 10.0628906,6.01320313 C10.0625781,4.90281251 9.11664062,4 7.9503125,4 C6.78398437,4 5.83703124,4.9028125 5.83703125,6.01328125 C5.83703125,6.889375 6.43140625,7.62984375 7.2528125,7.90492188 L6.15664063,9.2346875 L5.13359375,9.2346875 C4.61875,9.2346875 4.2,9.63296876 4.2,10.1238281 L4.2,11.1108594 C4.2,11.6017188 4.61875,12 5.13359375,12 L10.7664063,12 C11.28125,12 11.7,11.6017187 11.7,11.1108594 L11.7,10.1238281 C11.7,9.63328125 11.28125,9.2346875 10.7674219,9.2346875 L9.74367187,9.2346875 Z" id="形状" fill="#FFFFFF"></path>
                </g>
            </g>
        </g>
    </g>
</svg>