<?xml version="1.0" encoding="UTF-8"?>
<svg width="16px" height="16px" viewBox="0 0 16 16" version="1.1" xmlns="http://www.w3.org/2000/svg" xmlns:xlink="http://www.w3.org/1999/xlink">
    <title>问好</title>
    <g id="页面-1" stroke="none" stroke-width="1" fill="none" fill-rule="evenodd">
        <g id="项目跟踪首页" transform="translate(-799.000000, -278.000000)" fill-rule="nonzero">
            <g id="编组-6" transform="translate(526.000000, 270.000000)">
                <g id="问好" transform="translate(273.000000, 8.000000)">
                    <rect id="矩形" fill="#000000" opacity="0" x="0" y="0" width="16" height="16"></rect>
                    <path d="M7.37564684,11.3755286 L8.37552858,11.3755286 L8.37552858,10.3756468 L7.37564684,10.3756468 L7.37564684,11.3755286 Z M8.9091773,8.24247121 C8.40888163,8.57600166 8.17576513,8.97552858 8.17576512,9.40911816 L8.17576512,9.70894075 L7.37529203,9.70894075 L7.37529203,9.34241208 C7.34193899,8.74241208 7.6421164,8.20911816 8.1754103,7.80888162 C8.77505549,7.37600167 9.07523289,6.94241207 9.0085268,6.54217553 C8.9418207,5.94253034 8.60864508,5.60899989 7.97529203,5.57564685 C7.24187985,5.5422938 6.77529204,5.9758834 6.60888162,6.87570598 L5.70870421,6.64223467 C5.97552858,5.30917731 6.80864507,4.67582426 8.14205726,4.70917731 C9.30870422,4.7758834 9.90870421,5.34253035 10.0417616,6.44247121 C10.0754694,7.1091773 9.70858593,7.7091773 8.90882248,8.24247121 L8.9091773,8.24247121 Z M8.04235294,2.70905903 C5.10905903,2.70941385 2.70941385,5.10905903 2.70941385,8.04235294 C2.70941385,10.9760017 5.10905903,13.3760017 8.04235294,13.3760017 C10.9756468,13.3760017 13.375292,10.9756468 13.375292,8.04235294 C13.375292,5.10905903 10.9760017,2.70941385 8.04235294,2.70941385 L8.04235294,2.70905903 Z M8.04235294,14.0419981 C4.74253034,14.0423529 2.04235294,11.3421755 2.04235294,8.04235294 C2.04235294,4.74253034 4.74253034,2.04235294 8.04235294,2.04235294 C11.3421755,2.04235294 14.0423529,4.74253034 14.0423529,8.04235294 C14.0423529,11.3421755 11.3421755,14.0423529 8.04235294,14.0423529 L8.04235294,14.0419981 Z" id="形状" fill="#666666"></path>
                </g>
            </g>
        </g>
    </g>
</svg>