<?xml version="1.0" encoding="UTF-8"?>
<svg width="17px" height="16px" viewBox="0 0 17 16" version="1.1" xmlns="http://www.w3.org/2000/svg" xmlns:xlink="http://www.w3.org/1999/xlink">
    <title>编组 11备份</title>
    <defs>
        <linearGradient x1="0%" y1="50%" x2="100%" y2="50%" id="linearGradient-1">
            <stop stop-color="#27C0FF" offset="0%"></stop>
            <stop stop-color="#80DAFF" offset="100%"></stop>
        </linearGradient>
    </defs>
    <g id="页面-1" stroke="none" stroke-width="1" fill="none" fill-rule="evenodd">
        <g id="2.1项目进度详情" transform="translate(-621.000000, -288.000000)">
            <g id="编组-15" transform="translate(128.000000, 224.000000)">
                <g id="编组-11备份" transform="translate(281.500000, 0.000000)">
                    <g id="低备份" transform="translate(212.000000, 64.000000)">
                        <rect id="矩形" x="0" y="0" width="16" height="16" rx="2"></rect>
                        <path d="M2.99999983,1 L13.0000237,1 L13.0000236,1 C14.1045948,1 15.0000299,1.89543092 15.0000299,3 L15.0000299,13.0000237 L15.0000299,13.0000237 C15.0000299,14.1045949 14.104599,15.00003 13.0000236,15.00003 L2.99999983,15.00003 L2.99999983,15.00003 C1.89543485,15.00003 0.999999825,14.1045977 0.999999825,13.0000237 C0.999999825,13.0000237 0.999999825,13.0000237 0.999999825,13.0000237 L0.999999825,3 L0.999999825,3 C0.999999825,1.89543533 1.89543075,1 2.99999983,1 L2.99999983,1 Z M10.8010095,6.57500063 L8.79100907,6.57500063 L10.08701,3.78799934 C10.1520101,3.59299853 9.95800982,3.33299881 9.76300942,3.33299881 L7.17101031,3.33299881 C7.04101017,3.33299881 6.91101059,3.39799894 6.84700973,3.52799962 L4.90200552,8.71400761 C4.83700538,8.97400733 5.03100569,9.16700794 5.22600609,9.16700794 L7.49500678,9.16700794 L6.84700563,12.0850133 L6.84700563,12.1490133 C6.84700563,12.2790135 6.97700576,12.409013 7.10700535,12.409013 C7.17100538,12.409013 7.30100538,12.3440129 7.30100538,12.2790129 L11.0610078,7.09300492 C11.190008,6.83299881 11.0610078,6.57500432 10.8010081,6.57500432 L10.8010095,6.57500063 Z" id="形状" fill="url(#linearGradient-1)" fill-rule="nonzero"></path>
                    </g>
                </g>
            </g>
        </g>
    </g>
</svg>