<?xml version="1.0" encoding="UTF-8"?>
<svg width="32px" height="34px" viewBox="0 0 32 34" version="1.1" xmlns="http://www.w3.org/2000/svg" xmlns:xlink="http://www.w3.org/1999/xlink">
    <title>编组 11备份</title>
    <defs>
        <linearGradient x1="100%" y1="0%" x2="0%" y2="89.5286245%" id="linearGradient-1">
            <stop stop-color="#35C3FF" offset="0%"></stop>
            <stop stop-color="#1890FF" offset="100%"></stop>
        </linearGradient>
    </defs>
    <g id="0706(1440)-实施管理-实施方案管理" stroke="none" stroke-width="1" fill="none" fill-rule="evenodd">
        <g id="编组-14备份-5" transform="translate(0.000000, 0.845949)">
            <g id="编组-11备份" transform="translate(0.000000, 0.154051)">
                <rect id="矩形" fill="url(#linearGradient-1)" x="0" y="0" width="32" height="32" rx="8"></rect>
                <g id="里程碑" transform="translate(9.333333, 7.666667)" fill="#FFFFFF" fill-rule="nonzero">
                    <path d="M13.0074846,9.98850935 C13.7285311,9.98850935 14.1604261,9.31321516 13.8236935,8.72942238 L10.3008118,5.26694006 L13.7779382,1.57935764 L13.7779382,1.57935764 C13.9366011,1.32315248 13.9366011,0.999222847 13.7779382,0.743017688 L13.7779383,0.74301773 C13.6113447,0.479438256 13.3211239,0.31981498 13.0093106,0.320269737 L1.97399831,0.320269737 C1.4469378,0.322100769 1.01870379,0.72288663 1.01687176,1.21883295 L1.01687176,16.1631516 C1.01687176,16.6572689 1.4469378,17.0635458 1.97399831,17.0635458 C2.50105882,17.0635458 2.93478285,16.6591009 2.93478285,16.1631516 L2.93478285,9.98850028 L13.0074725,9.98850028 L13.0074846,9.98850935 Z" id="形状"></path>
                </g>
            </g>
        </g>
    </g>
</svg>