<?xml version="1.0" encoding="UTF-8"?>
<svg width="32px" height="32px" viewBox="0 0 32 32" version="1.1" xmlns="http://www.w3.org/2000/svg" xmlns:xlink="http://www.w3.org/1999/xlink">
    <title>编组 14备份 3</title>
    <g id="0706(1440)-实施管理-实施方案管理" stroke="none" stroke-width="1" fill="none" fill-rule="evenodd">
        <g id="编组-11">
            <rect id="矩形" fill-opacity="0.3" fill="#333333" x="0" y="0" width="32" height="32" rx="8"></rect>
            <g id="任务" transform="translate(9.000000, 7.000000)" fill="#FFFFFF" fill-rule="nonzero">
                <path d="M7.02806387,3.08878677 C6.51784944,3.08878677 6.06225428,2.60891275 6.06225428,2.06827642 C6.06225428,1.52764009 6.51778426,1.04778237 7.02806387,1.04778237 C7.59599355,1.04778237 7.99388977,1.52765638 7.99388977,2.06827642 C7.99388977,2.72739031 7.53835979,3.08878677 7.02806387,3.08878677 Z M9.6946969,1.52770527 C9.41224745,1.52770527 9.23916691,1.28776826 9.23916691,1.04783125 C9.23916691,0.567957233 8.84130329,0.148861827 8.33110514,0.148861827 L5.66145763,0.148861827 C5.1512269,0.148861827 4.75337956,0.567989822 4.75337956,1.04783125 C4.75337956,1.34846539 4.52558198,1.52770527 4.29784958,1.52770527 L3.95770119,1.52770527 C3.67525175,1.52770527 3.50217121,1.76765857 3.50217121,2.00757928 L3.50217121,3.44720133 C3.50217121,3.74783548 3.72996879,3.92707535 3.95770119,3.92707535 L9.97732558,3.92707535 C10.2597587,3.92707535 10.4328556,3.68712204 10.4328556,3.44720133 L10.4328556,2.00757928 C10.4328556,1.70694514 10.205058,1.52770527 9.97732558,1.52770527 L9.69487614,1.52770527 L9.6946969,1.52770527 Z M11.6840476,7.70828706 L6.63024913,13.9526783 C6.51789832,14.1318529 6.17471915,14.074154 6.00458792,13.8918996 L2.59696098,10.9519584 C2.53926204,10.8911798 2.48461017,10.7727674 2.59696098,10.7120051 L3.22260589,9.93144806 C3.28030484,9.87068574 3.39268824,9.87068574 3.45040348,9.93144806 L6.12003469,12.2123569 C6.2323855,12.2731355 6.34783227,12.2731355 6.46019938,12.1516109 L10.6605554,6.74853903 C10.718238,6.62704699 10.8306377,6.62704699 10.888353,6.68776042 L11.6840476,7.40758774 C11.7963984,7.46836635 11.85413,7.52907978 11.6840476,7.70823818 L11.6840476,7.70828706 Z M11.6840476,2.60891275 L11.6840476,4.71063059 C11.6840476,5.01126473 11.45625,5.1905046 11.2285176,5.1905046 L2.76701073,5.25126692 C2.48457758,5.25126692 2.31149704,5.01131362 2.31149704,4.7713929 L2.31149704,2.66967507 C2.31149704,2.36902463 2.08369946,2.18980105 1.85596706,2.18980105 L1.57351762,2.18980105 C0.835489302,2.12902244 0.495292028,2.60892905 0.495292028,3.27100854 L0.495292028,14.9761542 C0.495292028,15.5167579 1.00550647,16.2365527 1.68886662,16.2365527 L12.3067269,16.2365527 C12.8746566,16.2365527 13.5003015,15.5774551 13.5003015,14.9761705 L13.5003015,3.20721544 C13.5003015,2.6665954 13.1024542,2.12599166 12.4768093,2.12599166 L12.1943598,2.12599166 C11.9119104,2.12903874 11.6841454,2.30826231 11.6841454,2.60889646 L11.6840476,2.60891275 Z" id="形状"></path>
            </g>
        </g>
    </g>
</svg>