<?xml version="1.0" encoding="UTF-8"?>
<svg width="32px" height="32px" viewBox="0 0 32 32" version="1.1" xmlns="http://www.w3.org/2000/svg" xmlns:xlink="http://www.w3.org/1999/xlink">
    <title>矩形</title>
    <g id="0706(1440)-实施管理-实施方案管理" stroke="none" stroke-width="1" fill="none" fill-rule="evenodd">
        <g id="编组-15备份" transform="translate(-94.000000, -70.845949)">
            <g id="编组-10备份-8" transform="translate(94.000000, 70.845949)">
                <rect id="矩形" fill-opacity="0.3" fill="#333333" x="0" y="0.154050965" width="32" height="32" rx="8"></rect>
                <g id="成员" transform="translate(7.666667, 7.820718)" fill="#FFFFFF" fill-rule="nonzero">
                    <path d="M2.88906099,4.78329624 L2.88906099,4.78329576 C2.88906099,6.70687907 4.44842995,8.26624443 6.37200967,8.26624443 C8.29559298,8.26624443 9.85495835,6.70687547 9.85495835,4.78329576 C9.85495835,4.78329572 9.85495835,4.78329569 9.85495835,4.78329565 L9.85495835,4.78329565 C9.85495835,2.85971234 8.29558939,1.30034698 6.37200967,1.30034698 C4.44842636,1.30034698 2.88906099,2.85971594 2.88906099,4.78329565 L2.88906099,4.78329624 Z M12.4429078,14.1376553 C12.4429078,17.1802931 0.302908697,17.1802931 0.302908697,14.1376553 C0.302908697,11.0950175 3.02025565,9.26368378 6.37200967,9.26368378 C9.72376369,9.26368378 12.4429078,11.0950175 12.4429078,14.1376553 Z M10.7499575,0.304705884 C9.90168521,0.304705884 9.12530037,0.608430511 8.52144549,1.11164291 C9.8747274,1.76761622 10.8110619,3.15145031 10.8110619,4.75813562 C10.8110619,5.67110668 10.5055401,6.51039308 9.99693613,7.18793263 C10.2395564,7.24184824 10.4893654,7.27060324 10.7481604,7.27060324 C12.6711506,7.27060324 14.231109,5.7106448 14.231109,3.78765456 C14.231109,1.86466432 12.674745,0.304705884 10.7499575,0.304705884 Z M10.3527792,8.38665645 C9.98615301,8.38665645 8.85931667,8.49628487 8.48011018,8.67600358 C10.8488028,9.15764974 13.424172,10.9997666 13.424172,13.9435591 C13.424172,14.403639 13.2372645,14.8098033 12.9083793,15.1638492 C14.8870823,14.8403555 16.421881,14.1178862 16.421881,12.9964415 C16.4236773,9.84417522 13.7045332,8.38665645 10.3527792,8.38665645 L10.3527792,8.38665645 Z" id="形状"></path>
                </g>
            </g>
        </g>
    </g>
</svg>