<?xml version="1.0" encoding="UTF-8"?>
<svg width="32px" height="34px" viewBox="0 0 32 34" version="1.1" xmlns="http://www.w3.org/2000/svg" xmlns:xlink="http://www.w3.org/1999/xlink">
    <title>编组 11</title>
    <defs>
        <linearGradient x1="100%" y1="0%" x2="0%" y2="89.5286245%" id="linearGradient-1">
            <stop stop-color="#35C3FF" offset="0%"></stop>
            <stop stop-color="#1890FF" offset="100%"></stop>
        </linearGradient>
    </defs>
    <g id="0706(1440)-实施管理-实施方案管理" stroke="none" stroke-width="1" fill="none" fill-rule="evenodd">
        <g id="编组-14备份-6" transform="translate(0.000000, 0.845949)">
            <g id="编组-11" transform="translate(0.000000, 0.154051)">
                <rect id="矩形" fill="url(#linearGradient-1)" x="0" y="0" width="32" height="32" rx="8"></rect>
                <g id="交付" transform="translate(8.000000, 7.000000)" fill="#FFFFFF" fill-rule="nonzero">
                    <path d="M9.26813984,3.08624265 C9.26813984,4.78784151 7.88351323,6.17246812 6.19860346,6.17246812 C4.4970046,6.17246812 3.1123608,4.78784151 3.1123608,3.08624265 C3.1123608,1.3846438 4.49698741,0 6.19860346,0 C7.88351323,0.0166718944 9.26813984,1.38462661 9.26813984,3.08624265 Z M5.26437581,9.69243784 L8.80103461,8.20771111 C9.01792392,8.12430008 9.36823996,8.0909391 9.60180117,8.14098916 L9.68519501,8.15766106 C9.50170105,7.42365083 8.86775656,7.29018973 7.38302983,7.29018973 L4.07993224,7.29018973 C2.87879959,7.29018973 2.2282004,7.25682876 1.82781712,8.0742844 C1.82781712,8.09095629 1.4774839,8.99178859 1.11047879,10.1261821 C0.926967635,10.6933703 0.743456484,11.3106428 0.593306309,11.9112092 C0.443173322,12.5117583 0.326384123,13.0789637 0.309712229,13.612808 L0.309712229,13.5961361 L0.309712229,13.6628581 C0.309712229,13.9631241 0.393123263,14.2467181 0.509912462,14.4636246 C0.726784589,14.8973345 1.02708494,15.1642567 1.32735091,15.3978179 C1.86119528,15.798184 2.51179448,16.0817953 3.17908276,16.3487175 C5.21432575,17.1160887 7.68333018,17.566522 7.71669116,17.5831939 C7.78341311,17.599883 7.86682415,17.599883 7.93356329,17.599883 C8.48407955,17.599883 8.95118478,17.2161888 9.06797398,16.6656553 C9.18472881,16.0484343 8.76769082,15.447868 8.15043542,15.3143897 C8.15043542,15.3143897 8.13376352,15.3143897 8.08369627,15.2977178 C7.75005214,15.2309958 6.18189719,14.9140236 4.74722052,14.4469356 C4.02989937,14.2133572 3.36259391,13.946435 2.94553873,13.6962191 C2.81207764,13.612808 2.69528844,13.5460689 2.62856649,13.4793469 C2.66192747,13.2124247 2.72866661,12.8454024 2.82874954,12.4450364 C2.97889971,11.8277981 3.19577184,11.1270973 3.39595488,10.5265654 C3.21244373,11.6609761 2.97889971,13.1957357 2.94553873,13.3458858 C2.97888252,13.3792296 3.02894977,13.3959359 3.07899983,13.4292969 C3.46269402,13.646169 4.09662132,13.9130912 4.83063155,14.1466352 C4.84730345,14.1466352 4.86399253,14.1633071 4.89737069,14.1633071 C4.8806988,14.0966023 4.86399253,14.0465523 4.86399253,13.9798131 L4.86399253,10.2429541 C4.88068161,10.0427711 5.04750368,9.79255514 5.26437581,9.69243784 L5.26437581,9.69243784 Z M14.5731538,14.1466352 L14.5064147,14.1466352 C14.5064147,14.1466352 14.4897428,14.1466352 14.4897428,14.1633071 L10.9530668,15.648051 C10.7361947,15.7481511 10.3691896,15.764823 10.1523174,15.714773 L9.91875622,15.6647401 L9.91875622,15.681412 C10.1189565,15.7481511 10.3024504,15.8148731 10.5193225,15.8816122 C11.403483,16.1318453 12.3710716,16.2653064 13.13846,16.3487175 C13.9058484,16.4321285 14.4563646,16.4654895 14.4730709,16.4654895 L14.5230866,16.4654895 C15.1236529,16.4654895 15.640791,15.9816952 15.6741864,15.3644569 C15.7075301,14.7138234 15.2070639,14.1800134 14.5731366,14.1466352 L14.5731538,14.1466352 Z M14.2395097,9.92599905 L11.0532013,11.2605928 C10.9030511,11.3273147 10.7862791,11.5108431 10.7862791,11.677648 L10.7862791,14.9974346 C10.7862791,15.1642567 10.9030511,15.2476849 11.0532013,15.1809458 L14.2395269,13.8463349 C14.3896599,13.7796301 14.5064491,13.5961189 14.5064491,13.4292969 L14.5064491,10.109493 C14.5064491,9.94267094 14.3896599,9.8592771 14.2395269,9.92599905 L14.2395097,9.92599905 Z M9.9354453,11.3606929 L5.49797139,10.2930042 C5.33113213,10.2596604 5.21437731,10.3597433 5.21437731,10.5265826 L5.21437731,13.8630239 C5.21437731,14.0298632 5.34780403,14.1966853 5.49797139,14.2300634 L9.93546249,15.2977178 C10.1022846,15.3310788 10.2190566,15.2309958 10.2190566,15.0641566 L10.2190566,11.727698 C10.2190566,11.560876 10.0855955,11.3940539 9.93546249,11.3606929 L9.9354453,11.3606929 Z M8.26722461,12.9121416 C8.26722461,12.9455026 8.26722461,12.9788635 8.3005684,12.9788635 C8.33396375,12.9955526 8.35063565,12.9788635 8.36732473,12.9455198 L8.38399662,12.8787806 L8.33396375,12.8621087 C8.30058559,12.8621087 8.26722461,12.8787806 8.26722461,12.9121416 L8.26722461,12.9121416 Z M7.06609197,12.1947861 C7.06609197,12.2114751 7.04942007,12.2114751 7.04942007,12.2281642 C7.04942007,12.2281642 7.03274818,12.2448361 7.03274818,12.261508 L6.98268093,12.3449362 L7.06609197,12.3782972 L7.06609197,12.2448533 C7.08276386,12.2114751 7.08276386,12.2114751 7.06609197,12.1947861 C7.08276386,12.1781142 7.08276386,12.1781142 7.08276386,12.1614423 C7.08276386,12.1781142 7.08276386,12.1781142 7.06609197,12.1947861 L7.06609197,12.1947861 Z M5.59805432,11.7610762 C5.59805432,11.7777481 5.58138243,11.7777481 5.58138243,11.7944543 C5.58138243,11.8111606 5.56471053,11.8111262 5.56471053,11.8277981 L5.5146261,11.9279154 L5.59805432,11.9612592 L5.59805432,11.8278153 C5.61472621,11.7777653 5.61472621,11.7777653 5.59805432,11.7610762 C5.61472621,11.7444043 5.61472621,11.7444043 5.61472621,11.7277324 C5.61472621,11.7444043 5.59805432,11.7444043 5.59805432,11.7610762 L5.59805432,11.7610762 Z M9.63517933,13.1123418 L9.90210152,13.1957529 L9.91877341,13.1290309 L9.65185122,13.0622918 L9.63517933,13.1123418 Z M9.73526226,13.0622918 L9.81867329,13.1023082 L9.8020014,13.1622918 L9.71859036,13.1223165 L9.73526226,13.0622918 L9.73526226,13.0622918 Z M13.9058484,9.49227198 L9.51839013,8.44127232 C9.35156806,8.40792853 9.10133496,8.42460234 8.95120197,8.49133957 L5.81492645,9.80924423 C5.66477627,9.87598337 5.66477627,9.95937721 5.83159834,9.99273819 L10.2190566,11.0437379 C10.3858786,11.0770988 10.6361289,11.0604161 10.7862447,10.9936878 L13.9225374,9.67578313 C14.0726876,9.60906118 14.0726876,9.52565015 13.9058655,9.49228917 L13.9058484,9.49227198 Z M8.26720743,12.9121588 C8.26720743,12.9455198 8.26720743,12.9788807 8.30055121,12.9788807 C8.33394657,12.9955698 8.35061846,12.9788807 8.36730754,12.9455369 L8.38397944,12.8787978 L8.33394657,12.8621259 C8.3005684,12.8621259 8.26720743,12.8787978 8.26720743,12.9121588 L8.26720743,12.9121588 Z M5.59803713,11.7610762 C5.59803713,11.7777481 5.58136524,11.7777481 5.58136524,11.7944543 C5.58136524,11.8111606 5.56469334,11.8111262 5.56469334,11.8277981 L5.51460891,11.9279154 L5.59803713,11.9612592 L5.59803713,11.8278153 C5.61470903,11.7777653 5.61470903,11.7777653 5.59803713,11.7610762 C5.61470903,11.7444043 5.61470903,11.7444043 5.61470903,11.7277324 C5.61470903,11.7444043 5.59803713,11.7444043 5.59803713,11.7610762 L5.59803713,11.7610762 Z M7.06607478,12.1948033 C7.06607478,12.2114923 7.04940288,12.2114923 7.04940288,12.2281814 C7.04940288,12.2281814 7.03273099,12.2448533 7.03273099,12.2615252 L6.98266374,12.3449534 L7.06607478,12.3783144 L7.06607478,12.2448705 C7.08274667,12.2114923 7.08274667,12.2114923 7.06607478,12.1948033 C7.08274667,12.1781314 7.08274667,12.1781314 7.08274667,12.1614595 C7.08274667,12.1781314 7.08274667,12.1781314 7.06607478,12.1948033 L7.06607478,12.1948033 Z M9.63516214,13.1123418 L9.90208433,13.1957529 L9.91875622,13.1290309 L9.65183404,13.0622918 L9.63516214,13.1123418 Z M9.73524507,13.0622918 L9.81865611,13.1023082 L9.80198421,13.1622918 L9.71857318,13.1223165 L9.73524507,13.0622918 L9.73524507,13.0622918 Z" id="形状"></path>
                </g>
            </g>
        </g>
    </g>
</svg>