<?xml version="1.0" encoding="UTF-8"?>
<svg width="32px" height="34px" viewBox="0 0 32 34" version="1.1" xmlns="http://www.w3.org/2000/svg" xmlns:xlink="http://www.w3.org/1999/xlink">
    <title>矩形</title>
    <g id="0706(1440)-实施管理-实施方案管理" stroke="none" stroke-width="1" fill="none" fill-rule="evenodd">
        <g id="编组-11" transform="translate(0.000000, 1.000000)" fill="#FFFFFF">
            <rect id="矩形" fill-opacity="0.3" x="0" y="0" width="32" height="32" rx="8"></rect>
            <g id="方案" transform="translate(9.000000, 11.000000)" fill-rule="nonzero">
                <path d="M4.46548712,0.0335482269 C4.59720346,0.0297869649 4.72408126,0.083321528 4.81329102,0.180301582 L6.95442014,2.29354694 C7.04379995,2.390723 7.17098766,2.44427638 7.3029586,2.4403003 L12.9793561,2.4403003 C13.5267439,2.4403003 13.9750743,2.88276037 13.9750743,3.42354449 L13.9750743,10.7905334 C13.9750743,11.3305842 13.5274784,11.7730514 12.9793561,11.7730514 L1.0292712,11.7730514 C0.483934798,11.7750902 0.0391967644,11.3365788 0.0335530137,10.791268 L0.0335530137,1.01679848 C0.0335530137,0.47601436 0.481148858,0.0335542926 1.0292712,0.0335542926 L4.46548712,0.0335482269 Z M7.18042366,7.03005769 C7.06557518,7.03005769 6.96116118,7.06996766 6.88638192,7.14466383 L6.88638192,7.14466383 L5.70541664,8.43957055 C5.66061832,8.51425979 5.61582,8.59896808 5.61582,8.71357421 C5.61582,8.91818549 5.79526252,9.09762109 5.99994305,9.09762109 C6.1144661,9.09762109 6.22410772,9.03783923 6.29878312,8.96314306 L6.29878312,8.96314306 L6.79661911,8.42002407 L6.79661911,10.3730575 C6.79661911,10.6073243 6.95618974,10.7567859 7.18034057,10.7567859 C7.39464546,10.7567859 7.56902653,10.6072343 7.56902653,10.3730644 L7.56902653,10.3730644 L7.56902653,8.41976789 L8.06718795,8.96297688 C8.14196029,9.03766613 8.22668242,9.09746184 8.34127471,9.09746184 C8.57544457,9.09746184 8.74983671,8.91801239 8.74983671,8.71373346 C8.7503131,8.61064887 8.70896155,8.51177753 8.63523336,8.43972979 L8.63523336,8.43972979 L7.47935375,7.14466383 C7.38470952,7.06996766 7.29527214,7.03005769 7.18042366,7.03005769 Z M7.18033365,3.66666667 C5.90978558,3.66666667 4.82362377,4.46389665 4.38509189,5.57499872 C3.59297182,5.79923956 3,6.55657343 3,7.41848747 C3,8.48477738 3.88693742,9.35198829 4.9525557,9.35191212 C5.18681558,9.35191212 5.3612105,9.16767126 5.3612105,8.96339233 C5.3612105,8.72945788 5.18680865,8.57470636 4.95256955,8.57470636 C4.31984701,8.57470636 3.79667608,8.06155447 3.79667608,7.4188129 C3.79667608,7.07502218 3.92619653,6.75613019 4.18023829,6.55184433 C4.20516471,6.53157084 4.2250366,6.50656134 4.26983492,6.48668944 C4.29483058,6.46176302 4.31968776,6.44189113 4.33955965,6.41696471 L4.33955965,6.41696471 L4.36448607,6.41696471 C4.38476648,6.39194827 4.40977599,6.39194827 4.42964789,6.37207638 L4.42964789,6.37207638 L4.45448429,6.37207638 C4.47941071,6.34723997 4.49928953,6.34723997 4.52429212,6.32727806 L4.52429212,6.32727806 L4.56909043,6.32727806 C4.58936392,6.32727806 4.61437343,6.3022824 4.63424532,6.3022824 L4.63424532,6.3022824 C4.64027881,6.30725722 4.64609483,6.30639897 4.64915269,6.3022824 L4.64915269,6.3022824 C4.66193209,6.29790182 4.67076712,6.29239954 4.68401505,6.28241051 L4.68401505,6.28241051 L4.72897954,6.28241051 C4.74885144,6.28241051 4.77377786,6.28241051 4.79364975,6.25748409 L4.79364975,6.25748409 L4.99767942,6.25748409 C4.99767942,6.18279484 5.02252275,6.12798442 5.04753226,6.05320516 L5.04753226,6.05320516 L5.04753226,6.00857302 L5.11220247,5.87400497 L5.11220247,5.82415213 L5.18200337,5.68968795 L5.19202241,5.67469748 C5.19691075,5.65979009 5.20693671,5.65979009 5.20693671,5.64480655 L5.20693671,5.64480655 L5.27209161,5.51024542 C5.65572305,4.87215678 6.36314176,4.438991 7.18025749,4.438991 C7.97759133,4.438991 8.6853147,4.87215678 9.0688769,5.51024542 C9.09331864,5.55520992 9.13843546,5.60000823 9.15847353,5.64480655 L9.15847353,5.64480655 L9.15847353,5.68968795 C9.18331686,5.73456243 9.20824328,5.77936074 9.22811518,5.82415906 C9.22811518,5.84900239 9.25312468,5.84900239 9.25312468,5.87392881 C9.27307967,5.9188933 9.27307967,5.96360853 9.297923,6.00848993 C9.297923,6.02844491 9.297923,6.05328825 9.31779489,6.05328825 C9.31779489,6.12806058 9.34272131,6.18287793 9.3626763,6.2575741 L9.3626763,6.2575741 L9.54659173,6.2575741 C9.57160124,6.28250052 9.59147313,6.28250052 9.61639955,6.28250052 L9.61639955,6.28250052 L9.68155444,6.28250052 C9.68155444,6.30237242 9.70639777,6.30237242 9.72635276,6.30237242 C9.75127918,6.30237242 9.77619867,6.32736808 9.79616058,6.32736808 L9.79616058,6.32736808 L9.821087,6.32736808 C9.84136049,6.34723997 9.86628691,6.34723997 9.88624189,6.37216639 L9.88624189,6.37216639 L9.91116831,6.37216639 C9.93561005,6.39203829 9.98072687,6.39203829 10.0007649,6.41705472 C10.0405087,6.44198114 10.0704066,6.46185303 10.0903616,6.48677945 L10.0903616,6.48677945 L10.1600863,6.55193434 C10.4138926,6.75619943 10.5686511,7.07509834 10.5686511,7.41889599 C10.5686511,8.06164448 10.0452378,8.57478253 9.38760272,8.57478253 C9.18322685,8.57478253 8.99890982,8.72921554 8.99890982,8.96346849 C8.99890982,9.16767126 9.18331686,9.35198829 9.38759579,9.35198829 C10.4786459,9.35198829 11.34065,8.48477738 11.34065,7.41849439 C11.34065,6.55160892 10.7726808,5.80420407 9.95548194,5.5749918 C9.51710239,4.46391742 8.46084536,3.66666667 7.18033365,3.66666667 Z M11.9836379,0.230197552 C12.3820724,0.230197552 12.7306096,0.573599014 12.7306096,0.966896446 C12.7306096,1.36019388 12.4312338,1.65443392 12.0335339,1.70359534 L8.49825338,1.70359534 C8.09981895,1.70359534 7.75128172,1.36019388 7.75128172,0.966896446 C7.75128172,0.573599014 8.0499242,0.279358969 8.44835741,0.230197552 L11.9836379,0.230197552 Z" id="形状结合"></path>
            </g>
        </g>
    </g>
</svg>