<?xml version="1.0" encoding="UTF-8"?>
<svg width="16px" height="16px" viewBox="0 0 16 16" version="1.1" xmlns="http://www.w3.org/2000/svg" xmlns:xlink="http://www.w3.org/1999/xlink">
    <title>PDF</title>
    <g id="页面-1" stroke="none" stroke-width="1" fill="none" fill-rule="evenodd">
        <g id="项目跟踪首页（补充)" transform="translate(-828.000000, -733.000000)" fill-rule="nonzero">
            <g id="编组-13" transform="translate(699.000000, 685.000000)">
                <g id="PDF" transform="translate(129.000000, 48.000000)">
                    <rect id="矩形" fill="#000000" opacity="0" x="0" y="2.35469873e-05" width="15.9999529" height="15.9999529"></rect>
                    <path d="M0.800001871,0 C0.588217993,-0.000662727924 0.38556175,0.0861899462 0.2400038,0.240026778 C0.0933480602,0.400026229 1.61726556e-05,0.600025531 1.61726556e-05,0.800024849 L1.61726556e-05,15.1999752 C-0.000670080641,15.411759 0.0861825935,15.6144153 0.240019425,15.7599732 C0.387073354,15.911651 0.588765389,15.9980904 0.800017496,16 L15.1999483,16 C15.4117322,16.0006627 15.6143884,15.9138101 15.7599464,15.7599732 C15.9116227,15.6129183 15.9980618,15.4112269 15.9999456,15.1999752 L15.9999456,4.53335572 L11.4666331,0 L0.800001871,0 Z" id="路径" fill="#D4372C"></path>
                    <path d="M15.9999456,4.53334009 L12.2666303,4.53334009 C11.8292897,4.52269396 11.4772792,4.17068346 11.4666331,3.73334286 L11.4666331,2.76094749e-05 L15.9999456,4.53334009 Z" id="路径" fill="#F16257"></path>
                    <path d="M10.8424699,12.2789106 C10.0024728,12.2789106 9.25497534,10.8380875 8.85580485,9.90391883 C8.18913528,9.6239198 7.45580967,9.37059254 6.74914025,9.1972494 C6.12250178,9.6122636 5.06916168,10.2247615 4.25500823,10.2247615 C3.7483381,10.2247615 3.38833934,9.97143421 3.25501167,9.53143574 C3.14834016,9.17143699 3.24168359,8.91810973 3.34833948,8.78476644 C3.56167208,8.49143411 4.00167056,8.34476795 4.66833492,8.34476795 C5.20166121,8.34476795 5.88165886,8.43809576 6.64165624,8.62476699 C7.14687855,8.2711938 7.62386927,7.87890554 8.06832319,7.45144291 C7.86832388,6.518118 7.65499649,5.01145133 8.20165085,4.3181256 C8.4683218,3.98479863 8.8816485,3.87812712 9.37497493,4.0247985 C9.92164491,4.18479795 10.1216442,4.51812492 10.1874721,4.7714678 C10.4141432,5.67813655 9.37497493,6.90478857 8.66664925,7.62562982 C8.8266487,8.25229954 9.026648,8.9056254 9.27997525,9.50562333 C10.2966436,9.95809052 11.4958114,10.6247601 11.6299671,11.3580857 C11.6832951,11.6114129 11.6032954,11.8514121 11.4032961,12.0514114 C11.2299685,12.197239 11.0432973,12.2780825 10.843298,12.2780825 L10.8424699,12.2789106 Z M10.8424699,11.7580843 C10.8824697,11.7580843 10.9357977,11.7447562 11.0157974,11.6780846 C11.1091252,11.5847568 11.1091252,11.5180851 11.0957971,11.4647572 C11.0424692,11.1980862 10.6166269,10.7580878 9.60247415,10.2514332 C10.1091443,11.2789141 10.5883145,11.7580843 10.8424699,11.7580843 Z M4.66916304,8.87892237 C4.01583717,8.87892237 3.82916594,9.03892182 3.775838,9.10559346 C3.76250991,9.13226524 3.70916635,9.19892127 3.76250993,9.3855925 C3.8025098,9.54559195 3.90833755,9.70559138 4.25583635,9.70559138 C4.68250675,9.70559138 5.29583276,9.46559222 6.01583027,9.03892182 C5.49500394,8.9322503 5.04250551,8.87892237 4.66916304,8.87892237 Z M8.58914952,9.22559305 C8.4433219,8.83892251 8.32247857,8.43892389 8.21582268,8.05226897 C7.92249558,8.30559622 7.61582474,8.5589391 7.30915393,8.79893827 C7.7422566,8.92106806 8.1689218,9.06329153 8.58914952,9.22559305 Z M8.96332011,4.49143751 C8.81749249,4.49143751 8.70999285,4.54476545 8.61664942,4.65143695 C8.33665039,4.99810763 8.30997861,5.87810459 8.52332162,6.99810073 C9.33581882,6.13143184 9.77664542,5.3314346 9.6691458,4.90477983 C9.65581771,4.83810818 9.60247415,4.65145257 9.22914731,4.54478108 C9.14467958,4.51044683 9.0544947,4.49234942 8.96332011,4.49143751 Z" id="形状" fill="#FFFFFF"></path>
                </g>
            </g>
        </g>
    </g>
</svg>