<?xml version="1.0" encoding="UTF-8"?>
<svg width="16px" height="16px" viewBox="0 0 16 16" version="1.1" xmlns="http://www.w3.org/2000/svg" xmlns:xlink="http://www.w3.org/1999/xlink">
    <title>WORD</title>
    <g id="页面-1" stroke="none" stroke-width="1" fill="none" fill-rule="evenodd">
        <g id="项目跟踪首页（补充)" transform="translate(-903.000000, -733.000000)" fill-rule="nonzero">
            <g id="编组-13" transform="translate(699.000000, 685.000000)">
                <g id="WORD" transform="translate(204.000000, 48.000000)">
                    <rect id="矩形" fill="#000000" opacity="0" x="0" y="2.35469875e-05" width="15.9999529" height="15.9999529"></rect>
                    <path d="M0.800001876,0 C0.588217998,-0.000662727925 0.385561754,0.0861899464 0.240003805,0.240026779 C0.093348064,0.40002623 1.61762539e-05,0.600025532 1.61762539e-05,0.800024851 L1.61762539e-05,15.1999752 C-0.000670077044,15.4117591 0.0861825973,15.6144153 0.24001943,15.7599733 C0.387073359,15.911651 0.588765394,15.9980904 0.800017501,16 L15.1999484,16 C15.4117322,16.0006628 15.6143885,15.9138101 15.7599464,15.7599733 C15.9116227,15.6129183 15.9980619,15.4112269 15.9999456,15.1999752 L15.9999456,4.53335573 L11.4666331,0 L0.800001876,0 Z" id="路径" fill="#185ABD"></path>
                    <path d="M15.9999456,4.53334011 L12.2666304,4.53334011 C11.8292897,4.52269397 11.4772793,4.17068347 11.4666331,3.73334286 L11.4666331,2.76094753e-05 L15.9999456,4.53334011 Z" id="路径" fill="#41A5EE"></path>
                    <polygon id="路径" fill="#FFFFFF" points="3.69591252 6.04922497 5.08064211 6.04922497 6.21307572 10.2490386 7.33446247 6.04922497 8.48875537 6.04922497 9.61026712 10.2490386 10.7426538 6.04928747 12.1273834 6.04928747 10.21414 11.7330179 9.04805031 11.7330179 7.91571046 7.57790721 6.77238628 11.7330179 5.60721843 11.7330179"></polygon>
                </g>
            </g>
        </g>
    </g>
</svg>