<?xml version="1.0" encoding="UTF-8"?>
<svg width="16px" height="16px" viewBox="0 0 16 16" version="1.1" xmlns="http://www.w3.org/2000/svg" xmlns:xlink="http://www.w3.org/1999/xlink">
    <title>PPT</title>
    <g id="页面-1" stroke="none" stroke-width="1" fill="none" fill-rule="evenodd">
        <g id="项目跟踪首页（补充)" transform="translate(-715.000000, -733.000000)" fill-rule="nonzero">
            <g id="编组-13" transform="translate(699.000000, 685.000000)">
                <g id="PPT" transform="translate(16.000000, 48.000000)">
                    <rect id="矩形" fill="#000000" opacity="0" x="0" y="2.35469873e-05" width="15.9999529" height="15.9999529"></rect>
                    <path d="M0.800001871,0 C0.588217993,-0.000662727924 0.38556175,0.0861899462 0.2400038,0.240026778 C0.0933480602,0.400026229 1.61726555e-05,0.600025531 1.61726555e-05,0.800024849 L1.61726555e-05,15.1999752 C-0.000670080641,15.411759 0.0861825935,15.6144153 0.240019425,15.7599732 C0.387073354,15.911651 0.588765389,15.9980904 0.800017496,16 L15.1999483,16 C15.4117322,16.0006627 15.6143884,15.9138101 15.7599464,15.7599732 C15.9116227,15.6129183 15.9980618,15.4112269 15.9999456,15.1999752 L15.9999456,4.53335572 L11.4666331,0 L0.800001871,0 Z" id="路径" fill="#C43E1C"></path>
                    <path d="M15.9999456,4.53334009 L12.2666303,4.53334009 C11.8292897,4.52269396 11.4772792,4.17068346 11.4666331,3.73334286 L11.4666331,2.76094749e-05 L15.9999456,4.53334009 Z" id="路径" fill="#FF8F6B"></path>
                    <path d="M8.3762342,4.56407834 C10.1405562,4.56407834 11.0227094,5.31132577 11.0227094,6.81617995 C11.0227094,8.33142472 10.1301656,9.08903148 8.35553115,9.08903148 L6.43547527,9.08903148 L6.43547527,11.9742246 L5.30422918,11.9742246 L5.30422918,4.56407834 L8.3762342,4.56407834 Z M6.4354909,8.1238473 L8.28282827,8.1238473 C8.84326384,8.1238473 9.24801245,8.02006641 9.50748029,7.81248902 C9.75655756,7.60492724 9.89147897,7.27281901 9.89147897,6.81616432 C9.89147897,6.35950964 9.75655756,6.02741705 9.49710534,5.8406052 C9.2376479,5.63304341 8.83289409,5.52924689 8.2828439,5.52924689 L6.4354909,5.52924689 L6.4354909,8.1238473 Z" id="形状" fill="#FFFFFF"></path>
                </g>
            </g>
        </g>
    </g>
</svg>