<?xml version="1.0" encoding="UTF-8"?>
<svg width="16px" height="16px" viewBox="0 0 16 16" version="1.1" xmlns="http://www.w3.org/2000/svg" xmlns:xlink="http://www.w3.org/1999/xlink">
    <title>PICTURE备份 2</title>
    <g id="页面-1" stroke="none" stroke-width="1" fill="none" fill-rule="evenodd">
        <g id="项目跟踪首页（补充)" transform="translate(-790.000000, -733.000000)" fill-rule="nonzero">
            <g id="编组-13" transform="translate(699.000000, 685.000000)">
                <g id="PICTURE备份-2" transform="translate(91.000000, 48.000000)">
                    <rect id="矩形" fill="#000000" opacity="0" x="0" y="2.35469871e-05" width="15.9999529" height="15.9999529"></rect>
                    <path d="M0.800001871,0 C0.588217993,-0.000662727924 0.38556175,0.0861899462 0.2400038,0.240026778 C0.0933480602,0.400026229 1.61726555e-05,0.600025531 1.61726555e-05,0.800024849 L1.61726555e-05,15.1999752 C-0.000670080641,15.411759 0.0861825935,15.6144153 0.240019425,15.7599732 C0.387073354,15.911651 0.588765389,15.9980904 0.800017496,16 L15.1999483,16 C15.4117322,16.0006627 15.6143884,15.9138101 15.7599464,15.7599732 C15.9116227,15.6129183 15.9980618,15.4112269 15.9999456,15.1999752 L15.9999456,4.53335572 L11.4666331,0 L0.800001871,0 Z" id="路径" fill="#2DC9E9"></path>
                    <path d="M15.9999456,4.53334009 L12.2666303,4.53334009 C11.8292897,4.52269396 11.4772792,4.17068346 11.4666331,3.73334286 L11.4666331,2.7609475e-05 L15.9999456,4.53334009 Z" id="路径" fill="#66E4FF"></path>
                    <path d="M10.4759119,8.01425968 C10.4255363,7.93616942 10.3381414,7.88993533 10.2452408,7.89222886 C10.1502567,7.89222886 10.0688976,7.94654116 10.0145697,8.01425968 L9.10580721,9.42497356 L7.07126737,6.12896931 C7.02089819,6.05087206 6.9334991,6.00463574 6.84059629,6.00693848 C6.74561224,6.00693848 6.66425315,6.06125079 6.60992522,6.12896931 L3.81591922,10.645485 C3.76162544,10.7277847 3.76162544,10.834528 3.81591922,10.9168278 C3.86043713,11.0025362 3.95004913,11.0552363 4.04659031,11.0524836 L11.9407349,11.0524836 C12.0393275,11.0497295 12.1303944,10.9991089 12.184781,10.9168278 C12.2257183,10.8218437 12.2257183,10.7133754 12.1713748,10.645485 L10.4759119,8.01425968 Z M9.86550772,5.66756465 C9.86554224,6.04219007 10.169255,6.34586083 10.5438804,6.34584358 C10.9185058,6.34582633 11.2221905,6.04212759 11.2221905,5.66750218 C11.2221905,5.29287676 10.9185058,4.98917802 10.5438804,4.98916076 C10.3639555,4.98916076 10.1913968,5.06061982 10.0641737,5.18784882 C9.93695056,5.31507783 9.86548701,5.48763982 9.86550772,5.66756465 L9.86550772,5.66756465 Z" id="形状" fill="#FFFFFF"></path>
                </g>
            </g>
        </g>
    </g>
</svg>