<?xml version="1.0" encoding="UTF-8"?>
<svg width="16px" height="16px" viewBox="0 0 16 16" version="1.1" xmlns="http://www.w3.org/2000/svg" xmlns:xlink="http://www.w3.org/1999/xlink">
    <title>EXCEL</title>
    <g id="页面-1" stroke="none" stroke-width="1" fill="none" fill-rule="evenodd">
        <g id="项目跟踪首页（补充)" transform="translate(-753.000000, -733.000000)" fill-rule="nonzero">
            <g id="编组-13" transform="translate(699.000000, 685.000000)">
                <g id="EXCEL" transform="translate(54.000000, 48.000000)">
                    <rect id="矩形" fill="#000000" opacity="0" x="0" y="2.35469871e-05" width="15.9999529" height="15.9999529"></rect>
                    <path d="M0.800001871,0 C0.588217993,-0.000662727924 0.38556175,0.0861899462 0.2400038,0.240026778 C0.0933480602,0.400026229 1.61726555e-05,0.600025531 1.61726555e-05,0.800024849 L1.61726555e-05,15.1999752 C-0.000670080641,15.411759 0.0861825935,15.6144153 0.240019425,15.7599732 C0.387073354,15.911651 0.588765389,15.9980904 0.800017496,16 L15.1999483,16 C15.4117322,16.0006627 15.6143884,15.9138101 15.7599464,15.7599732 C15.9116227,15.6129183 15.9980618,15.4112269 15.9999456,15.1999752 L15.9999456,4.53335572 L11.4666331,0 L0.800001871,0 Z" id="路径" fill="#107C41"></path>
                    <path d="M15.9999456,4.53334009 L12.2666303,4.53334009 C11.8292897,4.52269396 11.4772792,4.17068346 11.4666331,3.73334286 L11.4666331,2.76094749e-05 L15.9999456,4.53334009 Z" id="路径" fill="#33C481"></path>
                    <polygon id="路径" fill="#FFFFFF" points="7.05751655 8.13811002 4.78228664 5.03317479 6.35490646 5.03317479 7.84350045 7.25571194 9.40035107 5.03317479 10.9228379 5.03317479 8.59624348 8.13811002 11.0389696 11.4415728 9.450641 11.4415728 7.80960757 9.08645855 6.17276395 11.4567624 4.61538204 11.4567624"></polygon>
                </g>
            </g>
        </g>
    </g>
</svg>