<?xml version="1.0" encoding="UTF-8"?>
<svg width="16px" height="16px" viewBox="0 0 16 16" version="1.1" xmlns="http://www.w3.org/2000/svg" xmlns:xlink="http://www.w3.org/1999/xlink">
    <title>UNKNOW</title>
    <g id="页面-1" stroke="none" stroke-width="1" fill="none" fill-rule="evenodd">
        <g id="项目跟踪首页（补充)" transform="translate(-865.000000, -733.000000)" fill-rule="nonzero">
            <g id="编组-13" transform="translate(699.000000, 685.000000)">
                <g id="UNKNOW" transform="translate(166.000000, 48.000000)">
                    <rect id="矩形" fill="#000000" opacity="0" x="0" y="2.35469871e-05" width="15.9999529" height="15.9999529"></rect>
                    <path d="M0.800001871,0 C0.588217993,-0.000662727924 0.38556175,0.0861899462 0.2400038,0.240026778 C0.0933480602,0.400026229 1.61726554e-05,0.600025531 1.61726554e-05,0.800024849 L1.61726554e-05,15.1999752 C-0.000670080641,15.411759 0.0861825935,15.6144153 0.240019425,15.7599732 C0.387073354,15.911651 0.588765389,15.9980904 0.800017496,16 L15.1999483,16 C15.4117322,16.0006627 15.6143884,15.9138101 15.7599464,15.7599732 C15.9116227,15.6129183 15.9980618,15.4112269 15.9999456,15.1999752 L15.9999456,4.53335572 L11.4666331,0 L0.800001871,0 Z" id="路径" fill="#BFC3CB"></path>
                    <path d="M15.9999456,4.53334009 L12.2666303,4.53334009 C11.8292897,4.52269396 11.4772792,4.17068346 11.4666331,3.73334286 L11.4666331,2.76094749e-05 L15.9999456,4.53334009 Z" id="路径" fill="#DBDEE5"></path>
                    <path d="M8.64439539,8.5702337 C8.26958418,8.82413907 8.13658465,9.31987174 8.13658464,9.57982396 L8.13658464,9.77327641 C8.14301406,9.98050409 8.0361303,10.1748022 7.85766082,10.2803166 C7.67919134,10.385831 7.45743498,10.385831 7.2789655,10.2803166 C7.10049603,10.1748022 6.99361227,9.98050409 7.00004169,9.77327641 L7.00004169,9.5737771 C7.00004169,8.98132602 7.33858739,8.34654696 7.76780466,8.00801688 C8.42070866,7.48206557 8.70484831,7.30070682 8.70484831,6.65383406 C8.70484831,6.00696129 8.19703757,5.4810256 7.56830536,5.4810256 C6.94562,5.4810256 6.43780926,6.00093006 6.4317624,6.65383406 L6.4317624,6.84728652 C6.43819182,7.0545142 6.33130806,7.24881229 6.15283859,7.35432672 C5.97436911,7.45984116 5.75261275,7.45984116 5.57414327,7.35432672 C5.39567379,7.24881229 5.28879003,7.0545142 5.29521945,6.84728652 L5.29521945,6.65383406 C5.29521945,5.36008852 6.31084095,4.31424838 7.5622585,4.31424838 C8.81367605,4.31424838 9.82929755,5.36010414 9.82929755,6.65383406 C9.8353444,7.4155658 9.60561081,7.92337655 8.64439539,8.5702337 M7.56832098,12.6267197 C7.15096775,12.6267197 6.8126361,12.288388 6.8126361,11.8710348 C6.8126361,11.4536816 7.15096774,11.1153499 7.56832097,11.1153499 C7.98567421,11.1153499 8.32400587,11.4536816 8.32400587,11.8710348 C8.32385927,12.2883273 7.98561349,12.6265731 7.56832098,12.6267197" id="形状" fill="#FFFFFF"></path>
                </g>
            </g>
        </g>
    </g>
</svg>