<?xml version="1.0" standalone="no"?><!DOCTYPE svg PUBLIC "-//W3C//DTD SVG 1.1//EN" "http://www.w3.org/Graphics/SVG/1.1/DTD/svg11.dtd"><svg t="1598490585685" class="icon" viewBox="0 0 1024 1024" version="1.1" xmlns="http://www.w3.org/2000/svg" p-id="1001" xmlns:xlink="http://www.w3.org/1999/xlink" width="200" height="200"><defs><style type="text/css"></style></defs><path d="M620.224 806.208a32 32 0 0 1-28.224-31.808v-80.704a32 32 0 0 1 13.248-25.92c52.8-38.272 99.136-99.712 124.672-169.152a32 32 0 0 1 19.584-19.2c9.792-3.392 21.568-24.256 32.448-70.72 5.888-25.216-1.024-40.96-16.576-50.432a32 32 0 0 1-15.296-24.512C736.512 181.312 650.176 96 514.24 96c-138.24 0-227.968 88.064-240.64 242.432a32 32 0 0 1-15.104 24.512c-16.384 10.24-22.208 23.36-16.192 44.032 11.392 38.912 23.872 60.416 36.8 68.48a32 32 0 0 1 13.12 16.384c25.088 70.528 72.192 133.568 126.72 173.568a32 32 0 0 1 13.056 25.728V774.4a32 32 0 0 1-28.224 31.808c-125.12 14.72-212.672 54.4-225.984 88.64 2.304 1.088 5.12 2.176 8.384 3.328 17.216 5.952 43.52 11.52 77.12 16.064 65.536 8.896 155.2 13.76 248.704 13.76 93.504 0 183.232-4.864 248.704-13.76 33.6-4.608 59.968-10.112 77.12-16.128 3.328-1.088 6.08-2.176 8.384-3.264-13.312-34.24-100.8-73.92-225.92-88.64z m35.776-59.776c151.36 22.656 256 79.104 256 157.312 0 67.008-156.16 88.256-400 88.256s-400-21.248-400-88.256c0-78.208 104.64-134.656 256-157.376v-39.488c-56.64-45.504-104.576-110.912-132.544-184.128-23.936-19.392-40.96-51.264-54.592-97.792-12.8-43.648 0.128-81.344 30.336-106.56C231.552 140.48 346.368 32 514.304 32c165.632 0 276.992 105.728 298.112 281.408 29.44 24.896 42.688 63.936 31.936 109.888-13.312 56.768-30.848 92.544-58.944 109.632-28.48 70.656-75.008 133.184-129.344 176.576v36.864z" p-id="1002"></path></svg>