<?xml version="1.0" encoding="UTF-8"?>
<svg width="16px" height="16px" viewBox="0 0 16 16" version="1.1" xmlns="http://www.w3.org/2000/svg" xmlns:xlink="http://www.w3.org/1999/xlink">
    <title>ashbin</title>
    <g id="页面3" stroke="none" stroke-width="1" fill="none" fill-rule="evenodd">
        <g id="新增tab-新增关联表单2" transform="translate(-1202.000000, -506.000000)" fill-rule="nonzero">
            <g id="内容1" transform="translate(352.000000, 458.000000)">
                <g id="ashbin" transform="translate(850.000000, 48.000000)">
                    <rect id="矩形" fill="#000000" opacity="0" x="0" y="0" width="16" height="16"></rect>
                    <path d="M3.57074707,4.77053718 L4.19139396,13.5688389 L10.2700124,13.5688389 L10.8901822,4.77053718 L12.3237287,4.77053718 L11.6973571,13.6694972 C11.6445198,14.4188792 11.0212548,14.9998571 10.2700124,15 L4.19139396,15 C3.4399804,14.9998394 2.81664818,14.4185905 2.76404925,13.6690201 L2.1367236,4.77053718 L3.57074707,4.77053718 Z M6.68590784,5.21372006 L6.68590784,11.8924721 L5.25474669,11.8924721 L5.25474669,5.21372006 L6.68590784,5.21372006 Z M9.30254747,5.21372006 L9.30254747,11.8924721 L7.87138632,11.8924721 L7.87138632,5.21372006 L9.30254747,5.21372006 Z M0,2.38526859 L14.3116115,2.38526859 L14.3116115,3.81642974 L0,3.81642974 L0,2.38526859 Z M10.1407309,0 L10.1407309,1.43116115 L4.41608626,1.43116115 L4.41608626,0 L10.1407309,0 Z" id="形状" fill="#666666"></path>
                </g>
            </g>
        </g>
    </g>
</svg>