<?xml version="1.0" standalone="no"?><!DOCTYPE svg PUBLIC "-//W3C//DTD SVG 1.1//EN" "http://www.w3.org/Graphics/SVG/1.1/DTD/svg11.dtd"><svg t="1598491149596" class="icon" viewBox="0 0 1024 1024" version="1.1" xmlns="http://www.w3.org/2000/svg" p-id="3626" xmlns:xlink="http://www.w3.org/1999/xlink" width="200" height="200"><defs><style type="text/css"></style></defs><path d="M160 896h-64V128a64 64 0 0 1 64-64h384a64 64 0 0 1 64 64v768h-64V128h-384v768z m704-416h64V896h-64V480zM80 960a32 32 0 1 1 0-64H928a32 32 0 1 1 0 64H80z m891.648-477.824a32 32 0 1 1-23.296 59.648L564.16 391.872a32 32 0 0 1 23.296-59.648l384.192 149.952z m-267.264 103.808a32 32 0 1 1 0 64h-128.64a32 32 0 0 1 0-64h128.64z m0 128a32 32 0 1 1 0 64h-128.64a32 32 0 1 1 0-64h128.64zM320 576a32 32 0 0 1-64 0V512a32 32 0 0 1 64 0v64z m0-224a32 32 0 0 1-64 0v-64a32 32 0 0 1 64 0v64z m128 0a32 32 0 0 1-64 0v-64a32 32 0 0 1 64 0v64zM448 576a32 32 0 0 1-64 0V512a32 32 0 0 1 64 0v64z m-128 352H256v-214.016h201.6V928h-64v-150.016H320V928z" p-id="3627"></path></svg>