<?xml version="1.0" standalone="no"?><!DOCTYPE svg PUBLIC "-//W3C//DTD SVG 1.1//EN" "http://www.w3.org/Graphics/SVG/1.1/DTD/svg11.dtd"><svg t="1598490793761" class="icon" viewBox="0 0 1024 1024" version="1.1" xmlns="http://www.w3.org/2000/svg" p-id="3097" xmlns:xlink="http://www.w3.org/1999/xlink" width="200" height="200"><defs><style type="text/css"></style></defs><path d="M336 544C256.64 544 192 608.64 192 688S256.64 832 336 832s144-64.64 144-144S415.36 544 336 544z m0 224C291.904 768 256 732.16 256 688S291.904 608 336 608s80 35.84 80 80S380.096 768 336 768z m464-512H588.608a32 32 0 0 0 0 64H800a32 32 0 1 0 0-64z m0 320H588.608a32 32 0 0 0 0 64H800a32 32 0 1 0 0-64z m0-192H588.608a32 32 0 0 0 0 64H800a32 32 0 1 0 0-64z m0 328H588.608a32 32 0 1 0 0 64H800a32 32 0 1 0 0-64z m-360-476.16l-120.96 148.544-71.04-80.32a32 32 0 0 0-48 42.368l71.04 80.384c12.16 13.824 29.632 21.696 48 21.632a63.36 63.36 0 0 0 49.536-23.616L489.6 276.224a32 32 0 0 0-49.6-40.384zM896 64H128c-35.328 0-64 28.672-64 64v768c0 35.328 28.672 64 64 64h768c35.328 0 64-28.672 64-64V128c0-35.328-28.672-64-64-64zM128 896V128h768l0.064 768H128z" p-id="3098"></path></svg>