<?xml version="1.0" standalone="no"?><!DOCTYPE svg PUBLIC "-//W3C//DTD SVG 1.1//EN" "http://www.w3.org/Graphics/SVG/1.1/DTD/svg11.dtd"><svg t="1598490781076" class="icon" viewBox="0 0 1024 1024" version="1.1" xmlns="http://www.w3.org/2000/svg" p-id="2969" xmlns:xlink="http://www.w3.org/1999/xlink" width="200" height="200"><defs><style type="text/css"></style></defs><path d="M864 280.192V192a32 32 0 0 0-32-32H160A32 32 0 0 0 128 192v88.192h736z m-736 64V864a32 32 0 0 0 32 32H832a32 32 0 0 0 32-32v-86.592a32 32 0 1 1 64 0V864A96 96 0 0 1 832 960H160A96 96 0 0 1 64 864V192a96 96 0 0 1 96-96H832A96 96 0 0 1 928 192v120.192a32 32 0 0 1-32 32H128zM595.84 437.12a32 32 0 1 1 60.16 21.824l-109.44 288a32 32 0 0 1-60.16-21.824l109.44-288z m148.352 32.32a32 32 0 0 1 47.616-42.88l126.464 140.672a32 32 0 0 1 0 42.752l-126.464 140.672a32 32 0 0 1-47.616-42.752l107.2-119.296-107.2-119.168z m-337.92 0a32 32 0 1 0-47.616-42.88L232.192 567.296a32 32 0 0 0 0 42.752l126.464 140.672a32 32 0 0 0 47.616-42.752L299.072 588.544l107.2-119.168z" p-id="2970"></path></svg>