<?xml version="1.0" encoding="UTF-8"?>
<svg width="16px" height="16px" viewBox="0 0 16 16" version="1.1" xmlns="http://www.w3.org/2000/svg" xmlns:xlink="http://www.w3.org/1999/xlink">
    <g id="页面1" stroke="none" stroke-width="1" fill="none" fill-rule="evenodd">
        <g id="2.表单" transform="translate(-281.000000, -2063.000000)">
            <g id="编组-24" transform="translate(191.000000, 2053.000000)">
                <g id="Group-6" transform="translate(78.000000, 0.000000)">
                    <g id="编组-7">
                        <g transform="translate(12.000000, 10.000000)">
                            <rect id="矩形" fill="#D8D8D8" opacity="0" x="0" y="0" width="16" height="16"></rect>
                            <path d="M13.7922018,4.159375 C13.0562643,3.4328125 12.0781393,3.0296875 11.0343893,3.028125 L11.0234518,3.028125 C10.5218893,3.028125 10.0328268,3.121875 9.56720179,3.30625 C9.08438929,3.4984375 8.65001429,3.78125 8.27813929,4.1484375 L4.63907679,7.7453125 C4.21876429,8.1609375 3.98907679,8.715625 3.99063929,9.3078125 C3.99220179,9.8984375 4.22501429,10.453125 4.64688929,10.8703125 C5.06876429,11.2875 5.62813929,11.5171875 6.22501429,11.51875 L6.22970179,11.51875 C6.82501429,11.51875 7.38282679,11.290625 7.80157679,10.878125 L10.9953268,7.721875 C11.1015768,7.6171875 11.1593893,7.478125 11.1593893,7.33125 C11.1593893,7.1828125 11.1015768,7.04375 10.9953268,6.940625 C10.8906393,6.8359375 10.7500143,6.7796875 10.6015768,6.7796875 C10.4531393,6.7796875 10.3125143,6.8375 10.2078268,6.940625 L7.01407679,10.096875 C6.80626429,10.303125 6.52657679,10.415625 6.22813929,10.415625 L6.22657679,10.415625 C5.92501429,10.4140625 5.64220179,10.2984375 5.43282679,10.090625 C5.22188929,9.88125 5.10470179,9.603125 5.10470179,9.30625 C5.10313929,9.0109375 5.21720179,8.734375 5.42657679,8.528125 L9.06563929,4.9296875 C9.58438929,4.415625 10.2812643,4.1328125 11.0250143,4.1328125 L11.0328268,4.1328125 C11.7797018,4.134375 12.4812643,4.421875 13.0078268,4.940625 C13.5328268,5.4609375 13.8234518,6.153125 13.8250143,6.890625 C13.8265768,7.628125 13.5406393,8.31875 13.0203268,8.8328125 L9.15938929,12.653125 C8.38751429,13.4125 7.35626429,13.83125 6.25626429,13.83125 L6.24532679,13.83125 C5.14063929,13.828125 4.10313929,13.403125 3.32501429,12.634375 C2.54688929,11.865625 2.11720179,10.840625 2.11563929,9.7484375 C2.11251429,8.65625 2.53751429,7.634375 3.30938929,6.871875 L8.29376429,1.94375 C8.40001429,1.8390625 8.45782679,1.7 8.45782679,1.553125 C8.45782679,1.4046875 8.40001429,1.265625 8.29376429,1.1625 C8.18751429,1.0578125 8.04688929,1 7.89845179,1 C7.75001429,1 7.60938929,1.0578125 7.50470179,1.1609375 L2.52032679,6.090625 C2.02345179,6.58125 1.63907679,7.1578125 1.37657679,7.8015625 C1.12501429,8.4234375 0.998451792,9.0796875 1,9.7515625 C1.00157679,10.425 1.13126429,11.08125 1.38751429,11.7015625 C1.65157679,12.3453125 2.03751429,12.921875 2.53751429,13.415625 C3.03438929,13.9078125 3.61876429,14.290625 4.27032679,14.553125 C4.89532679,14.8046875 5.55938929,14.9328125 6.24220179,14.9359375 L6.25626429,14.9359375 C6.93438929,14.9359375 7.59220179,14.8109375 8.21407679,14.5625 C8.86407679,14.3046875 9.44688929,13.925 9.94376429,13.4328125 L13.8047018,9.6140625 C14.1750143,9.246875 14.4625143,8.81875 14.6562643,8.3390625 C14.8437643,7.875 14.9390768,7.3875 14.9375332,6.8859375 C14.9328268,5.8546875 14.5265768,4.8859375 13.7922018,4.159375 Z" id="Shape" fill="#007AFF"></path>
                        </g>
                    </g>
                </g>
            </g>
        </g>
    </g>
</svg>