<?xml version="1.0" encoding="UTF-8"?>
<svg width="16px" height="16px" viewBox="0 0 16 16" version="1.1" xmlns="http://www.w3.org/2000/svg" xmlns:xlink="http://www.w3.org/1999/xlink">
    <title>新增</title>
    <g id="页面3" stroke="none" stroke-width="1" fill="none" fill-rule="evenodd">
        <g id="新增tab-新增关联表单2" transform="translate(-288.000000, -339.000000)" fill-rule="nonzero">
            <g id="设置tab" transform="translate(118.000000, 320.000000)">
                <g id="加号-圆" transform="translate(170.000000, 19.000000)">
                    <rect id="矩形" fill="#000000" opacity="0" x="0" y="0" width="16" height="16"></rect>
                    <path d="M8,1 C4.13894737,1 1,4.13894737 1,8 C1,11.8610526 4.13894737,15 8,15 C11.8610526,15 15,11.8610526 15,8 C15,4.13894737 11.8610526,1 8,1 Z M8,13.8947368 C4.75052632,13.8947368 2.10526316,11.2494737 2.10526316,8 C2.10526316,4.75052632 4.75052632,2.10526316 8,2.10526316 C11.2494737,2.10526316 13.8947368,4.75052632 13.8947368,8 C13.8947368,11.2494737 11.2494737,13.8947368 8,13.8947368 Z M11.0578947,7.44736842 L8.53789474,7.44736842 L8.53789474,4.92736842 C8.53789474,4.62526316 8.28736842,4.37473684 7.98526316,4.37473684 C7.68315789,4.37473684 7.43263158,4.62526316 7.43263158,4.92736842 L7.43263158,7.44736842 L4.90526316,7.44736842 C4.60315789,7.44736842 4.35263158,7.69789474 4.35263158,8 C4.35263158,8.30210526 4.60315789,8.55263158 4.90526316,8.55263158 L7.42526316,8.55263158 L7.42526316,11.0726316 C7.42526316,11.3747368 7.67578947,11.6252632 7.97789474,11.6252632 C8.28,11.6252632 8.53052632,11.3747368 8.53052632,11.0726316 L8.53052632,8.55263158 L11.0505263,8.55263158 C11.3526316,8.55263158 11.6031579,8.30210526 11.6031579,8 C11.6105263,7.69789474 11.36,7.44736842 11.0578947,7.44736842 L11.0578947,7.44736842 Z" id="形状" fill="#666666"></path>
                </g>
            </g>
        </g>
    </g>
</svg>