<?xml version="1.0" standalone="no"?><!DOCTYPE svg PUBLIC "-//W3C//DTD SVG 1.1//EN" "http://www.w3.org/Graphics/SVG/1.1/DTD/svg11.dtd"><svg t="1598490773905" class="icon" viewBox="0 0 1024 1024" version="1.1" xmlns="http://www.w3.org/2000/svg" p-id="2840" xmlns:xlink="http://www.w3.org/1999/xlink" width="200" height="200"><defs><style type="text/css"></style></defs><path d="M896 64H128c-35.328 0-64 28.672-64 64v768c0 35.328 28.672 64 64 64h592a32 32 0 1 0 0-64H128V128h768v592a32 32 0 1 0 64 0V128c0-35.328-28.672-64-64-64z" p-id="2841"></path><path d="M791.744 746.496A206.72 206.72 0 0 0 832 624 208.256 208.256 0 0 0 624 416 208.256 208.256 0 0 0 416 624 208.256 208.256 0 0 0 624 832c44.096 0 87.04-14.08 122.496-40.256l110.848 110.848a31.936 31.936 0 0 0 54.656-22.592 32 32 0 0 0-9.344-22.656l-110.912-110.848zM480 624c0-79.36 64.64-144 144-144S768 544.64 768 624 703.36 768 624 768 480 703.36 480 624z m320-360a32 32 0 0 0-32-32H256a32 32 0 0 0 0 64h512a32 32 0 0 0 32-32zM256 422.656a32 32 0 0 0 0 64h96a32 32 0 0 0 0-64H256z" p-id="2842"></path></svg>