<?xml version="1.0" standalone="no"?><!DOCTYPE svg PUBLIC "-//W3C//DTD SVG 1.1//EN" "http://www.w3.org/Graphics/SVG/1.1/DTD/svg11.dtd"><svg t="1598490770698" class="icon" viewBox="0 0 1024 1024" version="1.1" xmlns="http://www.w3.org/2000/svg" p-id="2712" xmlns:xlink="http://www.w3.org/1999/xlink" width="200" height="200"><defs><style type="text/css"></style></defs><path d="M832 405.312H608a32 32 0 0 0 0 64H832a32 32 0 1 0 0-64z m0 160H608a32 32 0 0 0 0 64H832a32 32 0 1 0 0-64zM404.352 635.456V614.4c30.848-19.968 60.544-55.04 76.8-98.048 11.456-4.992 19.712-19.072 26.368-44.224 5.12-19.456-3.072-32.384-14.272-39.488C487.744 340.8 434.176 288 352 288c-83.264 0-139.456 54.4-143.808 148.672-10.112 8.32-16.576 21.76-11.52 40.832 7.232 27.264 16.128 42.88 28.352 48.896 17.28 38.656 45.632 70.016 74.624 88.384v20.608c-80.64 8.64-139.648 36.864-139.648 70.336 0 40.384 384 40.384 384 0 0-33.472-59.072-61.696-139.648-70.4zM896 128H128A96 96 0 0 0 32 224v576A96 96 0 0 0 128 896h768a96 96 0 0 0 96-96v-576A96 96 0 0 0 896 128z m32 672a32 32 0 0 1-32 32H128a32 32 0 0 1-32-32v-576A32 32 0 0 1 128 192h768a32 32 0 0 1 32 32v576z" p-id="2713"></path></svg>