<?xml version="1.0" standalone="no"?><!DOCTYPE svg PUBLIC "-//W3C//DTD SVG 1.1//EN" "http://www.w3.org/Graphics/SVG/1.1/DTD/svg11.dtd"><svg t="1598490766638" class="icon" viewBox="0 0 1024 1024" version="1.1" xmlns="http://www.w3.org/2000/svg" p-id="2584" xmlns:xlink="http://www.w3.org/1999/xlink" width="200" height="200"><defs><style type="text/css"></style></defs><path d="M928 544H832v-64h96a32 32 0 1 0 0-64h-128a32 32 0 0 0-32 32v227.84a143.872 143.872 0 0 0 32 284.16 143.936 143.936 0 1 0 32-284.16V608h96a32 32 0 1 0 0-64z m-48 272a80 80 0 1 1-160 0 80 80 0 0 1 160 0z m-307.392 70.72l-0.832 0.32c-198.784 14.464-419.712-2.432-466.624-26.88 11.264-30.272 82.88-74.816 222.848-90.176a32 32 0 0 0 28.544-31.808v-38.08a32 32 0 0 0-14.592-26.88c-51.2-33.088-96.128-87.488-123.264-149.376a32.256 32.256 0 0 0-15.04-15.808c-8.704-4.288-21.76-19.84-34.688-69.632-4.992-19.072-1.6-32.768 10.624-43.072a32 32 0 0 0 11.328-23.04C197.76 219.328 283.2 128 419.392 128c133.504 0 215.104 86.528 223.936 237.376 0.64 10.176 6.016 19.392 14.464 24.96 12.992 8.448 16.896 20.544 12.416 38.08-12.608 48.32-25.024 58.496-29.888 60.608a32 32 0 0 0-17.088 18.176c-24.96 67.84-72.32 129.728-126.592 165.696a32 32 0 0 0-14.336 26.688v38.592a32 32 0 0 0 28.48 31.744c11.328 1.28 28.992 4.032 53.056 8.192a32 32 0 0 0 10.944-63.04c-7.36-1.28-14.72-2.56-22.08-3.712 54.08-41.984 99.136-102.848 126.464-171.008 30.08-20.992 44.032-61.504 52.992-95.808 9.856-38.08 0.192-73.408-25.984-97.472C690.56 172.032 581.76 64 419.392 64 251.392 64 140.544 175.808 127.68 356.672c-22.848 25.6-30.4 60.416-20.672 97.728 14.016 53.824 31.936 86.784 57.28 104.512 28.224 60.224 71.04 114.176 120.448 152.192-150.144 23.296-245.184 83.328-245.184 157.056 0 9.152 2.816 22.592 16.192 35.072 43.2 40.064 211.52 52.8 360.32 52.8 61.44 0 119.488-2.176 164.096-5.504a32.256 32.256 0 0 0 7.424-1.472l4.48-1.408a32 32 0 0 0-19.456-60.928z" p-id="2585"></path></svg>