<?xml version="1.0" encoding="UTF-8"?>
<svg width="17px" height="16px" viewBox="0 0 17 16" version="1.1" xmlns="http://www.w3.org/2000/svg" xmlns:xlink="http://www.w3.org/1999/xlink">
    <title>Icon/Line/AntDesign</title>
    <g id="页面3" stroke="none" stroke-width="1" fill="none" fill-rule="evenodd">
        <g id="新增tab-新增关联表单2" transform="translate(-118.000000, -281.000000)">
            <g id="DataDisplay/Tabs/Light/Icon2" transform="translate(118.000000, 266.000000)">
                <g id="导航/Tabs标签页/亮色/带图标-选中" transform="translate(0.000000, 12.000000)">
                    <g id="Icon/Line/AntDesign" transform="translate(0.891129, 3.000000)">
                        <g id="ant-design" transform="translate(2.000000, 2.000000)">
                            <rect id="矩形" fill="#000000" fill-rule="nonzero" opacity="0" x="0" y="0" width="11.9882927" height="11.9882927"></rect>
                            <path d="M8.72763763,3.34227177 C8.98185366,3.08939372 8.98185366,2.67729616 8.72763763,2.42441812 L7.79239024,1.48917073 L7.79372823,1.49050871 C7.5462021,1.24298258 7.12072475,0.817505233 6.51863415,0.216752617 C6.23498258,-0.0602090576 5.77605575,-0.0575330927 5.49508014,0.223442505 L0.22611847,5.48839024 C0.089961215,5.62362369 0.0133907269,5.80759494 0.0133907269,5.99949826 C0.0133907269,6.19140157 0.089961215,6.37537283 0.22611847,6.51060628 L5.49374216,11.774216 C5.77653032,12.0565208 6.23450801,12.0565208 6.51729616,11.774216 L8.72629966,9.56655052 C8.98051569,9.31367247 8.98051569,8.90157491 8.72629966,8.64869686 C8.47210144,8.39576504 8.06130623,8.39576504 7.80710802,8.64869686 L6.13463415,10.3238467 C6.06505924,10.3934216 5.95668293,10.3934216 5.88710802,10.3238467 L1.67916376,6.11991637 C1.60958885,6.05034146 1.60958885,5.94196516 1.67916376,5.87239024 L5.88577003,1.66845993 C5.89112195,1.66310802 5.89781184,1.65909408 5.90316376,1.65374216 C5.97273867,1.59888502 6.06907317,1.60423694 6.13329616,1.66845993 L7.808446,3.34227177 C8.06266203,3.5964878 8.47475959,3.5964878 8.72763763,3.34227177 Z M4.61067595,6.02625784 C4.61067595,6.5339086 4.88175941,7.00299725 5.32181183,7.25682264 C5.76186426,7.51064802 6.30403121,7.51064802 6.74408363,7.25682264 C7.18413606,7.00299725 7.45521951,6.5339086 7.45521951,6.02625784 C7.45521951,5.24149776 6.81844675,4.60532403 6.03294773,4.60532403 C5.24744872,4.60532403 4.61067595,5.24149776 4.61067595,6.02625784 L4.61067595,6.02625784 Z M11.7849199,5.5097979 L10.1405436,3.87344948 C9.88632753,3.62057143 9.47422997,3.62057143 9.22135192,3.87478746 C9.09928323,3.99631438 9.03066002,4.16146576 9.03066002,4.33371429 C9.03066002,4.50596282 9.09928323,4.6711142 9.22135192,4.79264112 L10.3318746,5.90182579 C10.4014495,5.9714007 10.4014495,6.07977701 10.3318746,6.14935192 L9.23740766,7.24248083 C9.11533897,7.36400775 9.04671577,7.52915913 9.04671577,7.70140766 C9.04671577,7.87365619 9.11533897,8.03880757 9.23740766,8.16033449 C9.49160588,8.41326631 9.90240108,8.41326631 10.1565993,8.16033449 L11.7862578,6.53201394 C11.9219406,6.3964443 11.9980647,6.21243242 11.9978143,6.02062814 C11.9975626,5.82882386 11.9209571,5.64501189 11.7849199,5.5097979 L11.7849199,5.5097979 Z" id="形状" fill="#595959"></path>
                        </g>
                    </g>
                </g>
            </g>
        </g>
    </g>
</svg>