<?xml version="1.0" standalone="no"?><!DOCTYPE svg PUBLIC "-//W3C//DTD SVG 1.1//EN" "http://www.w3.org/Graphics/SVG/1.1/DTD/svg11.dtd"><svg t="1598490763762" class="icon" viewBox="0 0 1024 1024" version="1.1" xmlns="http://www.w3.org/2000/svg" p-id="2456" xmlns:xlink="http://www.w3.org/1999/xlink" width="200" height="200"><defs><style type="text/css"></style></defs><path d="M856.32 428.096a32 32 0 0 0-32 32V623.36H372.48c-0.896 0-1.664 0.448-2.56 0.512V446.144H614.4a32 32 0 0 0 0-64H130.56c-0.896 0-1.664 0.448-2.56 0.512V231.68h488.128a32 32 0 0 0 0-64H96a32 32 0 0 0-32 32v701.824a32 32 0 0 0 32 32h760.32a32 32 0 0 0 32-32V460.096a32 32 0 0 0-32-32zM128 445.76c0.896 0 1.664 0.512 2.56 0.512h175.36v423.232H128V445.696z m241.92 423.744v-182.656c0.896 0.128 1.664 0.576 2.56 0.576h451.84v182.08h-454.4zM960 174.656h-61.376V113.28a32 32 0 1 0-64 0v61.312H752.64a32 32 0 1 0 0 64h81.984V320.64a32 32 0 1 0 64 0V238.72H960a32 32 0 1 0 0-64z" p-id="2457"></path></svg>