<?xml version="1.0" standalone="no"?><!DOCTYPE svg PUBLIC "-//W3C//DTD SVG 1.1//EN" "http://www.w3.org/Graphics/SVG/1.1/DTD/svg11.dtd"><svg t="1598490759989" class="icon" viewBox="0 0 1024 1024" version="1.1" xmlns="http://www.w3.org/2000/svg" p-id="2326" xmlns:xlink="http://www.w3.org/1999/xlink" width="200" height="200"><defs><style type="text/css"></style></defs><path d="M639.872 391.552H384.448c-35.328 0-64-26.56-64-59.328V187.328c0-32.704 28.672-59.328 64-59.328h255.424c35.264 0 64 26.624 64 59.328v144.896c0 32.768-28.736 59.328-64 59.328z m-255.36-59.328h255.36L640 332.16V187.456l-0.128-0.128h-255.36l-0.064 0.128 0.064 144.768c-0.064 0-0.064 0 0 0zM383.424 896H128c-35.328 0-64-26.624-64-59.328v-148.8c0-32.704 28.672-59.328 64-59.328H383.36c35.328 0 64 26.624 64 59.328v148.864c0 32.64-28.672 59.264-64 59.264z m-255.36-59.328h255.36l0.128-0.128v-148.672l-0.128-0.128h-255.36L128 687.872 128 836.672c-0.064 0 0 0 0 0z m768 59.328h-255.488c-35.328 0-64-26.624-64-59.328v-148.8c0-32.704 28.672-59.328 64-59.328H896c35.328 0 64 26.624 64 59.328v148.864c0 32.64-28.672 59.264-64 59.264z m-255.36-59.328H896V687.744h-255.36l-0.128 0.128 0.064 148.8c-0.064 0 0 0 0 0z" p-id="2327"></path><path d="M832 640h-97.792V511.36H291.648l-0.128 125.568H220.544V511.36c0-34.88 31.872-63.296 71.04-63.296h442.496c39.168 0 71.04 28.416 71.04 63.36V640H832z" p-id="2328"></path><path d="M480 340.224h64V512h-64z" p-id="2329"></path></svg>