<?xml version="1.0" encoding="UTF-8"?>
<svg width="10px" height="24px" viewBox="0 0 10 24" version="1.1" xmlns="http://www.w3.org/2000/svg" xmlns:xlink="http://www.w3.org/1999/xlink">
    <title>bgantopleft</title>
    <g id="优化" stroke="none" stroke-width="1" fill="none" fill-rule="evenodd">
        <g id="2.可研管理-新建（新增样式）" transform="translate(-562.000000, -1319.000000)" fill="#999999">
            <g id="编组-3备份" transform="translate(520.000000, 932.000000)">
                <g id="编组-15" transform="translate(30.000000, 114.000000)">
                    <g id="bgantopleft" transform="translate(17.000000, 285.000000) rotate(-360.000000) translate(-17.000000, -285.000000) translate(12.000000, 273.000000)">
                        <path d="M6,0 C8.209139,0 10,1.790861 10,4 L10,20 C10,22.209139 8.209139,24 6,24 L4,24 C1.790861,24 0,22.209139 0,20 L0,4 C0,1.790861 1.790861,0 4,0 L6,0 Z M6,1 L4,1 C2.40231912,1 1.09633912,2.24891996 1.00509269,3.82372721 L1,4 L1,20 C1,21.5976809 2.24891996,22.9036609 3.82372721,22.9949073 L4,23 L6,23 C7.59768088,23 8.90366088,21.75108 8.99490731,20.1762728 L9,20 L9,4 C9,2.40231912 7.75108004,1.09633912 6.17627279,1.00509269 L6,1 Z" id="矩形" fill-rule="nonzero"></path>
                        <circle id="椭圆形" cx="5" cy="5" r="1"></circle>
                        <circle id="椭圆形备份" cx="5" cy="12" r="1"></circle>
                        <circle id="椭圆形备份-2" cx="5" cy="19" r="1"></circle>
                    </g>
                </g>
            </g>
        </g>
    </g>
</svg>