<?xml version="1.0" encoding="UTF-8"?>
<svg width="18px" height="18px" viewBox="0 0 18 18" version="1.1" xmlns="http://www.w3.org/2000/svg" xmlns:xlink="http://www.w3.org/1999/xlink">
    <!-- Generator: Sketch 55.2 (78181) - https://sketchapp.com -->
    <title></title>
    <desc>Created with Sketch.</desc>
    <g id="页面1" stroke="none" stroke-width="1" fill="none" fill-rule="evenodd">
        <g id="7.1_项目调度管理_统筹管理_统筹管理(整体)" transform="translate(-1166.000000, -1019.000000)">
            <g id="编组-21" transform="translate(520.000000, 937.000000)">
                <g id="编组-28" transform="translate(646.000000, 80.000000)">
                    <g id="Group-21" transform="translate(0.000000, 2.000000)">
                        <circle id="Oval-2" fill="#FFB000" cx="9" cy="9" r="9"></circle>
                        <g id="consumption-fill" transform="translate(3.000000, 3.000000)" fill="#FFFFFF" fill-rule="nonzero">
                            <path d="M6,0.333333328 C9.12966667,0.333333328 11.6666667,2.87033333 11.6666667,6 C11.6666667,9.12966667 9.12966667,11.6666667 6,11.6666667 C2.87033333,11.6666667 0.333333328,9.12966667 0.333333328,6 C0.333333328,2.87033333 2.87033333,0.333333328 6,0.333333328 Z M7.31333333,2.98 L6,4.29266667 L4.68666667,2.97933333 L3.98,3.68666667 L5.293,4.99933333 L3.5,5 L3.5,6 L5.5,6 L5.5,6.83333333 L3.5,6.83333333 L3.5,7.83333333 L5.5,7.83333333 L5.5,9.16666667 L6.5,9.16666667 L6.5,7.83333333 L8.5,7.83333333 L8.5,6.83333333 L6.5,6.83333333 L6.5,6 L8.5,6 L8.5,5 L6.707,5 L8.02033333,3.68666667 L7.313,2.98 L7.31333333,2.98 Z" id="形状"></path>
                        </g>
                    </g>
                </g>
            </g>
        </g>
    </g>
</svg>