<?xml version="1.0" encoding="UTF-8"?>
<svg width="64px" height="20px" viewBox="0 0 64 20" version="1.1" xmlns="http://www.w3.org/2000/svg" xmlns:xlink="http://www.w3.org/1999/xlink">
    <!-- Generator: Sketch 61.2 (89653) - https://sketch.com -->
    <title></title>
    <desc>Created with Sketch.</desc>
    <g id="专家管理✅" stroke="none" stroke-width="1" fill="none" fill-rule="evenodd">
        <g id="专家库管理_专家列表_专家详情" transform="translate(-766.000000, -329.000000)">
            <g id="编组-16" transform="translate(520.000000, 294.000000)">
                <g id="已认证" transform="translate(246.000000, 35.000000)">
                    <rect id="bg" stroke="#4466CC" x="0.5" y="0.5" width="63" height="19" rx="2"></rect>
                    <text font-family="MicrosoftYaHei, Microsoft YaHei" font-size="12" font-weight="normal" fill="#4466CC">
                        <tspan x="22" y="14">已认证</tspan>
                    </text>
                    <g id="编组-7" transform="translate(6.000000, 4.000000)">
                        <rect id="bound" x="0" y="3.6504133e-13" width="12" height="12"></rect>
                        <path d="M10.6114202,8.88886185 C10.7498288,9.02727046 10.7498288,9.25167517 10.6114202,9.39008379 L8.10531043,11.8961935 C7.96690181,12.0346022 7.7424971,12.0346022 7.60408848,11.8961935 L6.4345706,10.7266757 C6.29616198,10.588267 6.29616198,10.3638623 6.4345706,10.2254537 C6.57297922,10.0870451 6.79738393,10.0870451 6.93579255,10.2254537 L7.85469945,11.1436923 L10.1101982,8.88886185 C10.2486068,8.75045323 10.4730115,8.75045323 10.6114202,8.88886185 Z M6.35103361,-8.8817842e-16 C8.33452565,-8.8817842e-16 9.94246365,1.607938 9.94246365,3.59143004 C9.94246365,5.55974472 8.35903888,7.15823073 6.39649919,7.1825782 L6.36475665,7.18450153 C3.95063805,7.18450153 1.99360824,9.14153133 1.99360824,11.5556499 C1.99360824,11.7513893 1.83493015,11.9100674 1.63919081,11.9100674 C1.44345146,11.9100674 1.28477337,11.7513893 1.28477337,11.5556499 C1.28477337,9.34435659 2.69765644,7.46305975 4.66992169,6.76526035 C3.53345319,6.1627237 2.75960356,4.96744801 2.75960356,3.59143004 C2.75960356,1.607938 4.36754156,-8.8817842e-16 6.35103361,-8.8817842e-16 Z M6.35103361,0.708834877 C4.75902026,0.708834877 3.46843844,1.99941669 3.46843844,3.59143004 C3.46843844,5.1834434 4.75902026,6.47402521 6.35103361,6.47402521 C7.94304696,6.47402521 9.23362877,5.1834434 9.23362877,3.59143004 C9.23362877,1.99941669 7.94304696,0.708834877 6.35103361,0.708834877 Z" id="形状" stroke="#4466CC" stroke-width="0.5" fill="#4466CC" fill-rule="nonzero"></path>
                    </g>
                </g>
            </g>
        </g>
    </g>
</svg>