<?xml version="1.0" encoding="UTF-8"?>
<svg width="22px" height="24px" viewBox="0 0 22 24" version="1.1" xmlns="http://www.w3.org/2000/svg" xmlns:xlink="http://www.w3.org/1999/xlink">
    <!-- Generator: Sketch 61.2 (89653) - https://sketch.com -->
    <title></title>
    <desc>Created with Sketch.</desc>
    <g id="专家管理" stroke="none" stroke-width="1" fill="none" fill-rule="evenodd">
        <g id="专家库管理_专家列表_评审记录" transform="translate(-940.000000, -308.000000)">
            <g id="编组-3备份" transform="translate(920.000000, 288.000000)">
                <g id="投资灵活-金融-资产-灵活备份" transform="translate(20.560000, 20.000000)">
                    <path d="M10.5600123,21.1200246 C4.72787425,21.1200246 0,16.3921503 0,10.5600123 C0,4.72787425 4.72787425,0 10.5600123,0 C16.3921503,0 21.1200246,4.72787425 21.1200246,10.5600123 C21.1200246,16.3921503 16.3921503,21.1200246 10.5600123,21.1200246 Z" id="路径" fill="#22A138" fill-rule="nonzero"></path>
                    <path d="M6.25862935,4.82488729 L6.97557826,4.82488729 L6.97557826,6.25864163 C6.97557826,6.65458857 7.2965085,6.97559055 7.69245544,6.97559055 L13.4275446,6.97559055 C13.8235058,6.97559055 14.1445078,6.65458857 14.1445078,6.25864163 L14.1445078,4.82488729 L14.861385,4.82488729 C15.6532358,4.82488729 16.295125,5.46684821 16.295125,6.25864163 L16.295125,14.8613829 C16.295125,15.6532481 15.6532358,16.2951373 14.861385,16.2951373 L6.25862935,16.2951373 C5.46683593,16.2951373 4.824875,15.6532481 4.824875,14.8613829 L4.824875,6.25864163 C4.824875,5.46684821 5.46682158,4.82488729 6.25862935,4.82488729 Z M13.44043,8.81009875 L10.0359378,12.2146196 L8.0659605,9.91623621 L7.24941501,10.615952 L9.97499752,13.7961115 L14.2003829,9.57072609 L13.44043,8.81009875 Z M13.4275302,4.82488729 L13.4275302,5.54176446 C13.4275302,5.93771139 13.1066143,6.25864163 12.710653,6.25864163 L8.40931826,6.25864163 C8.01340003,6.25864163 7.69244109,5.93771139 7.69244109,5.54176446 L7.69244109,4.82488729 L13.4275302,4.82488729 Z" id="形状" fill="#FFFFFF" fill-rule="nonzero"></path>
                    <polygon id="矩形" fill="#22A138" points="7.68 20.16 13.44 20.16 10.56 24"></polygon>
                </g>
            </g>
        </g>
    </g>
</svg>