<?xml version="1.0" encoding="UTF-8"?>
<svg width="20px" height="20px" viewBox="0 0 20 20" version="1.1" xmlns="http://www.w3.org/2000/svg" xmlns:xlink="http://www.w3.org/1999/xlink">
    <!-- Generator: Sketch 61.2 (89653) - https://sketch.com -->
    <title>icon_watch_gray</title>
    <desc>Created with Sketch.</desc>
    <g id="专家管理✅" stroke="none" stroke-width="1" fill="none" fill-rule="evenodd">
        <g id="专家库管理_专家列表_专家详情" transform="translate(-954.000000, -381.000000)">
            <g id="编组-16" transform="translate(520.000000, 294.000000)">
                <g id="分组-4-copy" transform="translate(434.000000, 87.000000)">
                    <g id="shouji-xian">
                        <circle id="椭圆形" fill="#11BB99" cx="10" cy="10" r="10"></circle>
                        <path d="M13.119422,4.45852832 C12.9569336,4.28042479 12.7307173,4.16991643 12.4811513,4.16991643 L7.55711931,4.16991643 C7.30753714,4.16991643 7.08133705,4.28042479 6.91884865,4.45852832 C6.76289229,4.62875116 6.66666667,4.86278319 6.66666667,5.11881616 L6.66666667,14.8681198 C6.66666667,15.124234 6.76289229,15.358201 6.91884865,15.5284889 C7.08133705,15.7065924 7.30753714,15.8171007 7.55711931,15.8171007 L12.4811513,15.8171007 C12.7307173,15.8171007 12.9569336,15.7065924 13.119422,15.5284889 C13.2753784,15.358201 13.371604,15.124234 13.371604,14.8681198 L13.371604,5.11881616 C13.371604,4.86278319 13.274111,4.62875116 13.119422,4.45852832 Z M12.8022609,14.8681198 C12.8022609,14.9773607 12.7632149,15.0761212 12.699552,15.1463324 C12.6423723,15.2087117 12.5643617,15.2477577 12.4811513,15.2477577 L7.55711931,15.2477577 C7.47390901,15.2477577 7.39589833,15.2087117 7.33870241,15.1463324 C7.27503946,15.0761212 7.23474234,14.9773607 7.23474234,14.8681198 L7.23474234,14.0453435 L12.8022609,14.0453435 L12.8022609,14.8681198 Z M12.8022609,13.4759355 L7.23600975,13.4759355 L7.23600975,5.91050836 L12.8035283,5.91050836 L12.8022609,13.4759355 Z M12.8022609,5.34243268 L7.23600975,5.34243268 L7.23600975,5.11881616 C7.23600975,5.00965645 7.27503946,4.91089601 7.34003482,4.84068477 C7.39723073,4.77828923 7.47390901,4.73925952 7.55838672,4.73925952 L12.4824838,4.73925952 C12.5656291,4.73925952 12.6436397,4.77828923 12.7008194,4.84068477 C12.7645474,4.91089601 12.8035283,5.00838904 12.8035283,5.11881616 L12.8035283,5.34243268 L12.8022609,5.34243268 Z" id="Fill-1" fill="#FFFFFF"></path>
                        <path d="M9.79552693,14.9526787 C9.63823816,14.9526787 9.51084726,14.8252878 9.51084726,14.6679341 C9.51084726,14.5106453 9.63823816,14.3832707 9.79552693,14.3832707 L10.2426787,14.3832707 C10.4000325,14.3832707 10.5274234,14.5106453 10.5274234,14.6679341 C10.5274234,14.8252878 10.4000325,14.9526787 10.2426787,14.9526787 L9.79552693,14.9526787 Z" id="Fill-2" fill="#FFFFFF"></path>
                    </g>
                </g>
            </g>
        </g>
    </g>
</svg>