<?xml version="1.0" encoding="UTF-8"?>
<svg width="22px" height="24px" viewBox="0 0 22 24" version="1.1" xmlns="http://www.w3.org/2000/svg" xmlns:xlink="http://www.w3.org/1999/xlink">
    <title>投资灵活 金融 资产 灵活@3x</title>
    <g id="页面-1" stroke="none" stroke-width="1" fill="none" fill-rule="evenodd">
        <g id="0329专家库管理_专家列表_评审记录" transform="translate(-1410.000000, -570.000000)">
            <g id="编组-4备份" transform="translate(1390.000000, 550.000000)">
                <g id="投资灵活-金融-资产-灵活" transform="translate(20.000000, 20.000000)">
                    <path d="M10.5600123,21.1200246 C4.72787425,21.1200246 0,16.3921503 0,10.5600123 C0,4.72787425 4.72787425,0 10.5600123,0 C16.3921503,0 21.1200246,4.72787425 21.1200246,10.5600123 C21.1200246,16.3921503 16.3921503,21.1200246 10.5600123,21.1200246 Z" id="路径" fill="#FFAF2B" fill-rule="nonzero"></path>
                    <polygon id="矩形" fill="#FFAF2B" points="7.68 20.16 13.44 20.16 10.56 24"></polygon>
                    <g id="备用1" transform="translate(4.000000, 5.000000)" fill="#FFFFFF" fill-rule="nonzero">
                        <path d="M12.2211741,0.339523001 L6.52237963,0.339523001 C6.2230994,0.351993011 5.98616922,0.588923195 5.99863923,0.888203428 L5.99863923,0.913143447 C5.99863923,1.01290352 5.99863923,1.07525357 6.04851927,1.12513361 L6.21062939,1.58652397 C6.28544945,1.77357412 6.46002959,1.89827421 6.67201975,1.89827421 L12.183764,1.89827421 C12.5079843,1.89827421 12.7573845,1.63640401 12.7573845,1.32465377 L12.7573845,0.925613457 C12.7947945,0.651273244 12.5952744,0.38940304 12.3209341,0.351993011 C12.2835241,0.339523001 12.2461141,0.327052992 12.2211741,0.339523001 L12.2211741,0.339523001 Z M9.12861166,4.52944626 C10.6499528,4.54191627 12.0341239,5.36493691 12.7947945,6.67428793 L12.7947945,3.02057509 C12.8072645,2.69635483 12.5578643,2.43448463 12.2336441,2.42201462 L6.52237963,2.42201462 C6.28544945,2.43448463 6.07345928,2.28484451 5.99863923,2.04791433 L5.8365291,1.73616409 L5.41254877,0.738563312 C5.41254877,0.738563312 5.41254877,0.688683273 5.36266873,0.688683273 C5.28784867,0.501633127 5.11326854,0.37693303 4.90127837,0.37693303 L0.811115193,0.37693303 C0.486894941,0.37693303 0.237494747,0.638803234 0.237494747,0.950553476 L0.237494747,9.74191031 C0.225024737,10.0661306 0.486894941,10.3280008 0.811115193,10.3404708 L5.25043864,10.3404708 C5.03844848,9.84167039 4.92621839,9.30545997 4.9386884,8.76924956 C4.90127837,6.44982775 6.77177983,4.55438628 9.09120163,4.52944626 L9.12861166,4.52944626 Z M6.01110924,8.80665959 L6.01110924,8.80666007 C6.01110924,10.5628427 7.43477751,11.9865125 9.19096171,11.9865125 C10.9471443,11.9865125 12.3708142,10.5628443 12.3708142,8.80666007 L12.3708142,8.80666007 C12.3708142,7.05047742 10.9471459,5.62680759 9.19096171,5.62680759 C7.43477907,5.62680759 6.01110924,7.05047587 6.01110924,8.80666007 L6.01110924,8.80665959 Z M8.6672213,10.4277608 C8.57993123,10.4277608 8.50511118,10.3903508 8.44276113,10.3404708 L7.15835013,9.04358977 C7.03365003,8.91888967 7.03365003,8.71936952 7.15835013,8.60713943 C7.28305023,8.48243933 7.48257038,8.48243933 7.59480047,8.60713943 L8.6672213,9.67956026 L10.6499528,7.69682872 C10.7746529,7.57212863 10.9741731,7.57212863 11.0864032,7.69682872 C11.1986333,7.82152882 11.2111033,8.02104897 11.0864032,8.13327906 L8.89168148,10.3280008 C8.82933143,10.3903508 8.75451137,10.4277608 8.6672213,10.4277608 L8.6672213,10.4277608 Z" id="形状"></path>
                    </g>
                </g>
            </g>
        </g>
    </g>
</svg>