<?xml version="1.0" encoding="UTF-8"?>
<svg width="22px" height="24px" viewBox="0 0 22 24" version="1.1" xmlns="http://www.w3.org/2000/svg" xmlns:xlink="http://www.w3.org/1999/xlink">
    <!-- Generator: Sketch 61.2 (89653) - https://sketch.com -->
    <title></title>
    <desc>Created with Sketch.</desc>
    <g id="专家管理" stroke="none" stroke-width="1" fill="none" fill-rule="evenodd">
        <g id="专家库管理_专家列表_评审记录" transform="translate(-1340.000000, -308.000000)">
            <g id="编组-4备份" transform="translate(1320.000000, 288.000000)">
                <g id="投资灵活-金融-资产-灵活" transform="translate(20.000000, 20.000000)">
                    <path d="M10.5600123,21.1200246 C4.72787425,21.1200246 0,16.3921503 0,10.5600123 C0,4.72787425 4.72787425,0 10.5600123,0 C16.3921503,0 21.1200246,4.72787425 21.1200246,10.5600123 C21.1200246,16.3921503 16.3921503,21.1200246 10.5600123,21.1200246 Z" id="路径" fill="#FF6600" fill-rule="nonzero"></path>
                    <polygon id="矩形" fill="#FF6600" points="7.68 20.16 13.44 20.16 10.56 24"></polygon>
                    <path d="M6.10177791,10.7986012 L6.10177791,13.3474012 L10.5600123,15.7666012 L15.0182467,13.3474012 L15.0182467,10.8014841 L10.5600123,13.2206841 L6.10177791,10.7986012 Z M10.5600123,4.30420124 L3.55584666,8.12596687 L10.5600123,11.9448356 L16.2912123,8.82580124 L16.2912123,13.2206841 L17.5641779,13.2206841 L17.5641779,8.12596687 L10.5600123,4.30420124 Z" id="形状" fill="#FFFFFF" fill-rule="nonzero"></path>
                </g>
            </g>
        </g>
    </g>
</svg>