<?xml version="1.0" encoding="UTF-8"?>
<svg width="16px" height="16px" viewBox="0 0 16 16" version="1.1" xmlns="http://www.w3.org/2000/svg" xmlns:xlink="http://www.w3.org/1999/xlink">
    <title>矩形</title>
    <g id="页面-2" stroke="none" stroke-width="1" fill="none" fill-rule="evenodd">
        <g id="专家部门意见查看样式" transform="translate(-1161.000000, -223.000000)" fill-rule="nonzero">
            <g id="编组-28" transform="translate(137.000000, 165.000000)">
                <g id="编组-13备份" transform="translate(1014.000000, 50.000000)">
                    <g id="download" transform="translate(10.000000, 8.000000)">
                        <rect id="矩形" fill="#007AFF" opacity="0" x="0" y="0" width="16" height="16"></rect>
                        <path d="M11,5.33333333 L12,5.33333333 C12.5522847,5.33333333 13,5.78104858 13,6.33333333 L13,12 C13,12.5522847 12.5522847,13 12,13 L4,13 C3.44771525,13 3,12.5522847 3,12 L3,6.33333333 C3,5.78104858 3.44771525,5.33333333 4,5.33333333 L5,5.33333333 L5,6.33333333 L4,6.33333333 L4,12 L12,12 L12,6.33333333 L11,6.33333333 L11,5.33333333 Z M8.58133333,2.01666667 L8.582,7.44566667 L9.73833333,6.289 L10.445,6.996 L8.08833333,9.353 L5.73133333,6.99633333 L6.43833333,6.289 L7.58166667,7.43233333 L7.58166667,2.01666667 L8.58166667,2.01666667 L8.58133333,2.01666667 Z" id="形状" fill="#FFFFFF"></path>
                    </g>
                </g>
            </g>
        </g>
    </g>
</svg>