<?xml version="1.0" encoding="UTF-8"?>
<svg width="140px" height="152px" viewBox="0 0 140 152" version="1.1" xmlns="http://www.w3.org/2000/svg" xmlns:xlink="http://www.w3.org/1999/xlink">
    <title>投资灵活 金融 资产 灵活@3x</title>
    <g id="页面-1" stroke="none" stroke-width="1" fill="none" fill-rule="evenodd" opacity="0.05">
        <g id="0329专家库管理_专家列表_评审记录" transform="translate(-1541.000000, -530.000000)">
            <g id="编组-4备份" transform="translate(1390.000000, 550.000000)">
                <g id="投资灵活-金融-资产-灵活">
                    <g>
                        <g transform="translate(151.000000, -20.000000)">
                            <path d="M66.8784778,133.756956 C29.9424872,133.756956 0,103.814468 0,66.8784778 C0,29.9424872 29.9424872,0 66.8784778,0 C103.814468,0 133.756956,29.9424872 133.756956,66.8784778 C133.756956,103.814468 103.814468,133.756956 66.8784778,133.756956 Z" id="路径" fill="#FFAF2B" fill-rule="nonzero"></path>
                            <polygon id="矩形" fill="#FFAF2B" points="48.6388364 127.676945 85.1179636 127.676945 66.8784 151.996364"></polygon>
                            <g id="备用1" transform="translate(25.332727, 31.665909)" fill="#FFFFFF" fill-rule="nonzero">
                                <path d="M77.3989174,2.1502609 L41.3074161,2.1502609 C39.41202,2.22923574 37.911498,3.72975767 37.9904729,5.6251538 L37.9904729,5.78310348 C37.9904729,6.41490219 37.9904729,6.80977638 38.3063722,7.12567574 L39.3330451,10.0477448 C39.8068942,11.2323673 40.9125419,12.0221157 42.2551142,12.0221157 L77.1619929,12.0221157 C79.2153387,12.0221157 80.7948355,10.3636441 80.7948355,8.38927315 L80.7948355,5.86207832 C81.03176,4.12463187 79.7681625,2.46616025 78.0307161,2.22923574 C77.7937916,2.1502609 77.5568671,2.07128606 77.3989174,2.1502609 L77.3989174,2.1502609 Z M57.8131574,28.6858067 C67.4480877,28.7647815 76.2142948,33.9771209 81.03176,42.269479 L81.03176,19.1298512 C81.1107348,17.0765054 79.531238,15.4180338 77.4778922,15.339059 L41.3074161,15.339059 C39.8068942,15.4180338 38.4643219,14.4703357 37.9904729,12.9698138 L36.9638,10.9954428 L34.2786555,4.67745574 C34.2786555,4.67745574 34.2786555,4.36155638 33.9627561,4.36155638 C33.4889071,3.1769338 32.3832593,2.38718541 31.0406871,2.38718541 L5.13693999,2.38718541 C3.08359419,2.38718541 1.50409741,4.04565703 1.50409741,6.02002799 L1.50409741,61.6972893 C1.42512257,63.7506351 3.08359419,65.4091067 5.13693999,65.4880815 L33.2519826,65.4880815 C31.9094103,62.329088 31.1986368,58.9331699 31.2776116,55.5372518 C31.0406871,40.8479319 42.8869129,28.8437564 57.5762329,28.6858067 L57.8131574,28.6858067 Z M38.0694477,55.7741764 L38.0694477,55.7741794 C38.0694477,66.8964034 47.0857977,75.9127633 58.2080316,75.9127633 C69.3302556,75.9127633 78.3466155,66.8964132 78.3466155,55.7741794 L78.3466155,55.7741794 C78.3466155,44.6519554 69.3302654,35.6355955 58.2080316,35.6355955 C47.0858076,35.6355955 38.0694477,44.6519456 38.0694477,55.7741794 L38.0694477,55.7741764 Z M54.8910884,66.0409054 C54.3382645,66.0409054 53.8644155,65.8039809 53.4695413,65.4880815 L45.3351329,57.2746983 C44.5453845,56.4849499 44.5453845,55.2213525 45.3351329,54.5105789 C46.1248813,53.7208306 47.3884787,53.7208306 48.0992522,54.5105789 L54.8910884,61.3024151 L67.4480877,48.7454157 C68.2378361,47.9556673 69.5014335,47.9556673 70.2122071,48.7454157 C70.9229806,49.5351641 71.0019555,50.7987615 70.2122071,51.5095351 L56.3126355,65.4091067 C55.9177613,65.8039809 55.4439122,66.0409054 54.8910884,66.0409054 L54.8910884,66.0409054 Z" id="形状"></path>
                            </g>
                        </g>
                    </g>
                </g>
            </g>
        </g>
    </g>
</svg>