<?xml version="1.0" encoding="UTF-8"?>
<svg width="18px" height="18px" viewBox="0 0 18 18" version="1.1" xmlns="http://www.w3.org/2000/svg" xmlns:xlink="http://www.w3.org/1999/xlink">
    <!-- Generator: Sketch 55.2 (78181) - https://sketchapp.com -->
    <title></title>
    <desc>Created with Sketch.</desc>
    <g id="页面1" stroke="none" stroke-width="1" fill="none" fill-rule="evenodd">
        <g id="项目规划_全市发展规划(建设单位)_含管理局文件样式" transform="translate(-611.000000, -670.000000)">
            <g id="编组-14" transform="translate(530.000000, 230.000000)">
                <g id="编组-12" transform="translate(81.000000, 438.000000)">
                    <g id="编组" transform="translate(0.000000, 2.000000)">
                        <rect id="矩形" fill="#D8D8D8" opacity="0" transform="translate(9.000000, 9.000000) scale(1, -1) translate(-9.000000, -9.000000) " x="0" y="-2.79776202e-14" width="18" height="18"></rect>
                        <path d="M9,2.82733814 C11.9367626,2.82733814 14.6142734,4.61930936 17.0320576,8.20325181 C17.3362,8.65416982 17.3570184,9.23892595 17.0857122,9.71033094 L17.0320576,9.79674819 L16.8972086,9.99379857 C14.515036,13.4462158 11.8821583,15.1726619 9,15.1726619 C6.0632374,15.1726619 3.38572663,13.3806906 0.967942439,9.79674819 C0.663799971,9.34583018 0.642981627,8.76107405 0.914287777,8.28966906 L0.967942439,8.20325181 L1.10279137,8.00620143 C3.48496402,4.55378418 6.11784173,2.82733814 9,2.82733814 Z M9,4.25179857 C6.64584172,4.25179857 4.41418706,5.71519424 2.27939568,8.8091223 L2.14882014,9 L2.2798705,9.19135251 C4.41656114,12.2862302 6.64774101,13.7482014 9,13.7482014 C11.3541583,13.7482014 13.5858129,12.2848058 15.7206043,9.1908777 L15.8511799,9 L15.7201295,8.80864749 C13.5834389,5.71376978 11.352259,4.25179857 9,4.25179857 Z M9,5.97634532 C10.1341615,5.96241747 11.188181,6.55950486 11.7593204,7.53946199 C12.3304599,8.51941913 12.3304599,9.73081107 11.7593204,10.7107682 C11.188181,11.6907253 10.1341615,12.2878127 9,12.2738849 C7.27606331,12.2527144 5.88966065,10.8491818 5.88966065,9.1251151 C5.88966065,7.40104843 7.27606331,5.99751578 9,5.97634532 L9,5.97634532 Z M9,7.40080575 C8.37714372,7.39046941 7.79712611,7.71684154 7.48267589,8.25459413 C7.16822567,8.79234672 7.16822567,9.45788349 7.48267589,9.99563607 C7.79712611,10.5333887 8.37714372,10.8597608 9,10.8494245 C9.94115503,10.8338059 10.6959318,10.0663997 10.6959318,9.1251151 C10.6959318,8.18383048 9.94115503,7.41642427 9,7.40080575 L9,7.40080575 Z" id="形状" fill="#999999" fill-rule="nonzero" transform="translate(9.000000, 9.000000) scale(1, -1) translate(-9.000000, -9.000000) "></path>
                    </g>
                </g>
            </g>
        </g>
    </g>
</svg>