<?xml version="1.0" encoding="UTF-8"?>
<svg width="18px" height="18px" viewBox="0 0 18 18" version="1.1" xmlns="http://www.w3.org/2000/svg" xmlns:xlink="http://www.w3.org/1999/xlink">
    <!-- Generator: Sketch 55.2 (78181) - https://sketchapp.com -->
    <title></title>
    <desc>Created with Sketch.</desc>
    <g id="页面1" stroke="none" stroke-width="1" fill="none" fill-rule="evenodd">
        <g id="项目规划_全市发展规划(建设单位)_含管理局文件样式" transform="translate(-806.000000, -670.000000)">
            <g id="编组-14" transform="translate(530.000000, 230.000000)">
                <g id="编组-12" transform="translate(81.000000, 438.000000)">
                    <g id="下载" transform="translate(195.000000, 2.000000)">
                        <rect id="矩形" x="0" y="0" width="18" height="18"></rect>
                        <path d="M15.4304561,11.6747527 L14.9063441,14.5322179 L3.12700654,14.5322179 L2.60292875,11.6747527 L1.29270002,11.6747527 L1.29270002,16.2292986 L16.753149,16.2292986 L16.753149,11.6747527 L15.4304561,11.6747527 L15.4304561,11.6747527 Z M15.1060107,6.58361342 L11.2253353,6.58361342 L11.2253353,4.93659494 L6.80801528,4.93659494 L6.80801528,6.59614608 L2.97723089,6.59614608 L9.00421113,13.0348895 L15.1060107,6.58363054 L15.1060107,6.58361342 Z M11.2253353,2.09157674 L6.80801528,2.09157674 L6.80801528,2.69052524 L11.2253353,2.69052524 L11.2253353,2.09155962 L11.2253353,2.09157674 Z M11.2253353,3.21463728 L6.80801528,3.21463728 L6.80801528,4.36257481 L11.2253353,4.36257481 L11.2253353,3.21463728 Z" id="形状" fill="#0090FF" fill-rule="nonzero"></path>
                    </g>
                </g>
            </g>
        </g>
    </g>
</svg>