<?xml version="1.0" encoding="UTF-8"?>
<svg width="20px" height="20px" viewBox="0 0 20 20" version="1.1" xmlns="http://www.w3.org/2000/svg" xmlns:xlink="http://www.w3.org/1999/xlink">
    <!-- Generator: Sketch 55.2 (78181) - https://sketchapp.com -->
    <title>icon_upload</title>
    <desc>Created with Sketch.</desc>
    <g id="页面1" stroke="none" stroke-width="1" fill="none" fill-rule="evenodd">
        <g id="项目申报_年度计划管理详情页_联合会商" transform="translate(-718.000000, -1999.000000)">
            <g id="编组-3" transform="translate(520.000000, 1703.000000)">
                <g id="编组-19">
                    <g id="编组备份-9" transform="translate(92.000000, 286.000000)">
                        <g id="上传" transform="translate(106.000000, 10.000000)">
                            <rect id="矩形" fill="#D8D8D8" opacity="0" x="0" y="0" width="20" height="20"></rect>
                            <path d="M14.7049095,7.56286911 C14.5949353,7.56286911 14.4869978,7.56694222 14.3790602,7.57508846 C14.3912795,7.4467853 14.3973892,7.31440902 14.3973892,7.1840693 C14.3973892,4.75038234 12.4239644,2.77695752 9.99027743,2.77695752 C7.55659047,2.77695752 5.58316565,4.75038234 5.58316565,7.1840693 C5.58316565,7.31440902 5.58927532,7.44474874 5.59945811,7.5730519 C5.50577644,7.56694222 5.41005821,7.56286911 5.31433998,7.56286911 C2.88065302,7.56286911 0.9072282,9.53629393 0.9072282,11.9699809 C0.9072282,14.2264873 2.60368112,16.0858649 4.79094454,16.3445077 C4.80316389,16.3750561 4.8316757,16.3974582 4.86629719,16.3974582 L9.14306925,16.3974582 L9.14306925,13.3711329 L7.52400554,13.3711329 C7.11465736,13.3711329 6.87230694,12.9129073 7.10243801,12.5748386 L9.58703892,8.92328993 C9.78865817,8.62595245 10.2265182,8.62595245 10.4281374,8.92328993 L12.9127383,12.5748386 C13.1428694,12.9129073 12.900519,13.3711329 12.4911708,13.3711329 L10.8150835,13.3711329 L10.8150835,16.3974582 L15.1549888,16.3974582 C15.1896103,16.3974582 15.2201587,16.3750561 15.2303415,16.3445077 C17.4155683,16.0838283 19.1099847,14.2244507 19.1099847,11.9699809 C19.1099847,9.53629393 17.1385964,7.56286911 14.7049095,7.56286911 Z" id="路径" fill="#007AFF" fill-rule="nonzero"></path>
                        </g>
                    </g>
                </g>
            </g>
        </g>
    </g>
</svg>