<?xml version="1.0" encoding="UTF-8"?>
<svg width="20px" height="20px" viewBox="0 0 20 20" version="1.1" xmlns="http://www.w3.org/2000/svg" xmlns:xlink="http://www.w3.org/1999/xlink">
    <!-- Generator: Sketch 61.2 (89653) - https://sketch.com -->
    <title></title>
    <desc>Created with Sketch.</desc>
    <g id="专家管理✅" stroke="none" stroke-width="1" fill="none" fill-rule="evenodd">
        <g id="专家库管理_专家列表_专家详情" transform="translate(-1124.000000, -381.000000)">
            <g id="编组-16" transform="translate(520.000000, 294.000000)">
                <g id="分组-4" transform="translate(604.000000, 87.000000)">
                    <g id="编组-3">
                        <circle id="椭圆形备份-2" fill="#555555" cx="10" cy="10" r="10"></circle>
                        <g id="youxiang-2" transform="translate(5.000000, 5.833333)" fill="#FFFFFF">
                            <path d="M1.30689189,7.95795796 C0.58512012,7.95795796 0,7.37283784 0,6.65106607 L0,1.32132132 C0,0.599309309 0.58487988,0.0144294294 1.30689189,0.0144294294 L8.68707207,0.0144294294 C9.40912913,0.0144294294 9.99402402,0.599309309 9.99402402,1.32132132 L9.99402402,6.65106607 C9.99402402,7.37283784 9.4089039,7.95795796 8.68707207,7.95795796 L1.30689189,7.95795796 Z M1.30689189,7.18918919 L8.68707207,7.18918919 C8.98430931,7.18918919 9.2251952,6.94825826 9.2251952,6.65106607 L9.2251952,1.32132132 C9.2251952,1.02412913 8.98430931,0.783183183 8.68707207,0.783183183 L1.30689189,0.783183183 C1.0096997,0.783183183 0.768753754,1.02412913 0.768753754,1.32132132 L0.768753754,6.65106607 C0.768753754,6.94872372 1.00987988,7.18918919 1.30689189,7.18918919 Z" id="Fill-1"></path>
                            <path d="M0.523348348,2.4868018 C0.399894895,2.42656156 0.317897898,2.30509009 0.308273273,2.16801802 C0.298723724,2.03100601 0.362942943,1.89921922 0.476846847,1.82238739 C0.590690691,1.74555556 0.736906907,1.73528529 0.860435435,1.79552553 L4.89612613,3.76542042 C4.95947447,3.79615616 5.03448949,3.79615616 5.09783784,3.76542042 L9.13358859,1.79552553 C9.25705706,1.73528529 9.40327327,1.74555556 9.51717718,1.82238739 C9.63108108,1.89921922 9.6953003,2.03100601 9.68567568,2.16801802 C9.67606607,2.30509009 9.59412913,2.42656156 9.4706006,2.4868018 L5.4354955,4.45605105 C5.15876877,4.59136637 4.83524024,4.59136637 4.55846847,4.45605105 L0.523348348,2.4868018 Z" id="Fill-2"></path>
                        </g>
                    </g>
                </g>
            </g>
        </g>
    </g>
</svg>