<?xml version="1.0" encoding="UTF-8"?>
<svg width="14px" height="14px" viewBox="0 0 14 14" version="1.1" xmlns="http://www.w3.org/2000/svg" xmlns:xlink="http://www.w3.org/1999/xlink">
    <title></title>
    <g id="页面1" stroke="none" stroke-width="1" fill="none" fill-rule="evenodd">
        <g id="2.表单" transform="translate(-422.000000, -1848.000000)" fill="#007AFF">
            <g id="编组备份-9" transform="translate(191.000000, 1835.000000)">
                <g id="编组-14备份-4" transform="translate(231.000000, 13.000000)">
                    <path d="M7,14 C3.13359375,14 0,10.8664062 0,7 C0,3.13359375 3.13359375,0 7,0 C10.8664062,0 14,3.13359375 14,7 C14,10.8664062 10.8664062,14 7,14 L7,14 Z M7,11.375 C7.24199219,11.375 7.4375,11.1794922 7.4375,10.9375 C7.4375,10.6955078 7.24199219,10.5 7,10.5 C6.75800781,10.5 6.5625,10.6955078 6.5625,10.9375 C6.5625,11.1794922 6.75800781,11.375 7,11.375 L7,11.375 Z M8.30566406,2.625 L7.41699219,2.625 L6.54199219,2.625 L5.69433594,2.625 C5.45234375,2.625 5.25683594,2.82050781 5.25683594,3.0625 C5.25683594,3.30449219 5.45234375,3.5 5.69433594,3.5 L6.54199219,3.5 L6.54199219,7.90917969 L5.68066406,7.90917969 C5.43867187,7.90917969 5.24316406,8.1046875 5.24316406,8.34667969 C5.24316406,8.58867188 5.43867187,8.78417969 5.68066406,8.78417969 L6.54199219,8.78417969 L6.97949219,8.78417969 C7.22148438,8.78417969 7.41699219,8.58867188 7.41699219,8.34667969 L7.41699219,3.5 L8.30566406,3.5 C8.54765625,3.5 8.75683594,3.30449219 8.75683594,3.0625 C8.75683594,2.82050781 8.54765625,2.625 8.30566406,2.625 L8.30566406,2.625 Z" id="Shape" transform="translate(7.000000, 7.000000) scale(1, -1) translate(-7.000000, -7.000000) "></path>
                </g>
            </g>
        </g>
    </g>
</svg>