<?xml version="1.0" encoding="UTF-8"?>
<svg width="24px" height="24px" viewBox="0 0 24 24" version="1.1" xmlns="http://www.w3.org/2000/svg" xmlns:xlink="http://www.w3.org/1999/xlink">
    <!-- Generator: Sketch 55.2 (78181) - https://sketchapp.com -->
    <title>Rectangle 2</title>
    <desc>Created with Sketch.</desc>
    <g id="2.0" stroke="none" stroke-width="1" fill="none" fill-rule="evenodd">
        <g id="项目调度-集群概览" transform="translate(-708.000000, -965.000000)">
            <g id="编组-14" transform="translate(520.000000, 852.000000)">
                <g id="编组-48" transform="translate(0.000000, 113.000000)">
                    <g id="logo" transform="translate(188.000000, 0.000000)">
                        <path d="M0,0 L20,0 C22.209139,-4.05812251e-16 24,1.790861 24,4 L24,24 L14,24 C6.2680135,24 9.46895252e-16,17.7319865 0,10 L0,0 Z" id="Rectangle-2" fill="#DEDEDE"></path>
                        <g id="编组-4" transform="translate(3.571429, 1.571429)" fill="#FFFFFF">
                            <path d="M9.0707658,9.61378437 L2.56009392,6.2578825 C2.43563663,6.5468012 2.3656294,6.86535259 2.3656294,7.19131216 L2.3656294,11.7028889 C2.3656294,12.5992777 2.87901572,13.4289929 3.71132383,13.8586669 L8.19956479,16.2144655 C8.4718151,16.3552208 8.77517974,16.451527 9.07854438,16.4959761 L9.07854438,9.61378437 L9.0707658,9.61378437 Z M9.42858051,9.05076331 L15.9392524,5.64300423 C15.7370093,5.39853455 15.4880947,5.19110574 15.1925087,5.03553413 L10.7042677,2.67973546 C9.92640966,2.26487784 8.97742284,2.26487784 8.19178621,2.67973546 L3.70354525,5.03553413 C3.39240203,5.19851391 3.12793029,5.4133509 2.91790862,5.66522874 L9.42858051,9.05076331 Z M16.3048457,6.23565798 L9.78639521,9.61378437 L9.78639521,16.4885679 C10.0975384,16.4441189 10.3931245,16.3552208 10.6653748,16.2070574 L15.1536158,13.8512587 C15.9781453,13.4215847 16.4993102,12.5918695 16.4993102,11.6954807 L16.4993102,7.19131216 C16.4993102,6.85794442 16.429303,6.53198486 16.3048457,6.23565798 Z" id="形状" fill-rule="nonzero" opacity="0.75"></path>
                            <path d="M9.42858051,9.05076331 L15.9392524,5.64300423 C15.7370093,5.39853455 15.4880947,5.19110574 15.1925087,5.03553413 L10.7042677,2.67973546 C9.92640966,2.26487784 8.97742284,2.26487784 8.19178621,2.67973546 L3.70354525,5.03553413 C3.39240203,5.19851391 3.12793029,5.4133509 2.91790862,5.66522874 L9.42858051,9.05076331 Z" id="路径"></path>
                        </g>
                    </g>
                </g>
            </g>
        </g>
    </g>
</svg>