<?xml version="1.0" encoding="UTF-8"?>
<svg width="122px" height="126px" viewBox="0 0 122 126" version="1.1" xmlns="http://www.w3.org/2000/svg" xmlns:xlink="http://www.w3.org/1999/xlink">
    <!-- Generator: Sketch 61.2 (89653) - https://sketch.com -->
    <title></title>
    <desc>Created with Sketch.</desc>
    <g id="专家管理" stroke="none" stroke-width="1" fill="none" fill-rule="evenodd" opacity="0.0376906622">
        <g id="专家库管理_专家列表_评审记录" transform="translate(-1139.000000, -288.000000)">
            <g id="编组-3备份" transform="translate(920.000000, 288.000000)">
                <g id="投资灵活-金融-资产-灵活备份" transform="translate(0.560000, 0.000000)">
                    <g transform="translate(218.440000, -7.000000)">
                        <path d="M66.8800778,133.760156 C29.9432036,133.760156 0,103.816952 0,66.8800778 C0,29.9432036 29.9432036,0 66.8800778,0 C103.816952,0 133.760156,29.9432036 133.760156,66.8800778 C133.760156,103.816952 103.816952,133.760156 66.8800778,133.760156 Z" id="路径" fill="#22A138" fill-rule="nonzero"></path>
                        <path d="M39.6379859,30.5576195 L44.1786623,30.5576195 L44.1786623,39.6380637 C44.1786623,42.1457276 46.2112205,44.1787402 48.7188844,44.1787402 L85.0411156,44.1787402 C87.5488703,44.1787402 89.5818829,42.1457276 89.5818829,39.6380637 L89.5818829,30.5576195 L94.122105,30.5576195 C99.1371602,30.5576195 103.202458,34.623372 103.202458,39.6380637 L103.202458,94.122092 C103.202458,99.137238 99.1371602,103.202536 94.122105,103.202536 L39.6379859,103.202536 C34.6232942,103.202536 30.5575417,99.137238 30.5575417,94.122092 L30.5575417,39.6380637 C30.5575417,34.623372 34.6232033,30.5576195 39.6379859,30.5576195 Z M85.1227232,55.7972921 L63.5609395,77.3592576 L51.0844165,62.8028293 L45.9129617,67.2343624 L63.1749843,87.3753728 L89.9357585,60.6145986 L85.1227232,55.7972921 Z M85.0410247,30.5576195 L85.0410247,35.0978416 C85.0410247,37.6055055 83.0085574,39.6380637 80.5008026,39.6380637 L53.2590156,39.6380637 C50.7515335,39.6380637 48.7187936,37.6055055 48.7187936,35.0978416 L48.7187936,30.5576195 L85.0410247,30.5576195 Z" id="形状" fill="#FFFFFF" fill-rule="nonzero"></path>
                        <polygon id="矩形" fill="#22A138" points="48.64 127.68 85.12 127.68 66.88 152"></polygon>
                    </g>
                </g>
            </g>
        </g>
    </g>
</svg>