<?xml version="1.0" encoding="UTF-8"?>
<svg width="18px" height="18px" viewBox="0 0 18 18" version="1.1" xmlns="http://www.w3.org/2000/svg" xmlns:xlink="http://www.w3.org/1999/xlink">
    <!-- Generator: Sketch 55.2 (78181) - https://sketchapp.com -->
    <title>icon_tisheng</title>
    <desc>Created with Sketch.</desc>
    <g id="页面1" stroke="none" stroke-width="1" fill="none" fill-rule="evenodd">
        <g id="项目规划_专项发展规划(建设单位)_数据局审核" transform="translate(-728.000000, -693.000000)" fill-rule="nonzero">
            <g id="编组-14" transform="translate(530.000000, 230.000000)">
                <g id="办证服务" transform="translate(198.000000, 463.000000)">
                    <rect id="矩形" fill="#000000" opacity="0" x="0" y="0" width="18" height="18"></rect>
                    <path d="M15.411875,14.913375 L15.411875,16.225875 L3.16187499,16.225875 L3.16187499,14.913375 L15.411875,14.913375 Z M9.28687501,2.007125 C10.6425038,2.007125 11.8761954,2.79003711 12.4535129,4.01659087 C13.0308303,5.24314462 12.847937,6.69277495 11.9840625,7.73750001 L11.9070625,7.8271875 L11.9079375,7.82762501 C11.6280346,8.14652667 11.4740388,8.55655987 11.4748125,8.980875 C11.4748125,9.51812499 11.71675,9.999375 12.0978125,10.3200625 L14.974375,10.319625 C15.6992487,10.319625 16.286875,10.9072513 16.286875,11.632125 L16.286875,12.944625 C16.286875,13.6694987 15.6992487,14.257125 14.974375,14.257125 L3.59937501,14.257125 C2.87450127,14.257125 2.28687501,13.6694987 2.28687501,12.944625 L2.28687501,11.632125 C2.28687501,10.9072513 2.87450127,10.319625 3.59937501,10.319625 L6.53281251,10.319625 C6.9100905,9.98782303 7.12611043,9.50955011 7.125625,9.007125 C7.125625,8.56962501 6.9650625,8.16931251 6.69950001,7.862625 C5.76742432,6.8379049 5.52739535,5.35988809 6.08729461,4.09287223 C6.64719387,2.82585636 7.90166171,2.00826353 9.28687501,2.00756249 L9.28687501,2.007125 Z M11.06225,11.1495625 L11.019375,11.1058125 C10.8500281,10.9301181 10.702139,10.7349396 10.5788125,10.524375 C10.3050076,10.0561232 10.1610798,9.52330313 10.161875,8.980875 C10.161875,8.21087499 10.44625,7.5069375 10.91525,6.9688125 C11.6975095,6.09718666 11.6544852,4.76408091 10.8176508,3.94470932 C9.98081649,3.12533773 8.64709994,3.1104319 7.79216206,3.91089598 C6.93722419,4.71136006 6.86441632,6.04317125 7.627,6.9320625 L7.6764375,6.98631251 L7.66550001,6.97450001 L7.666375,6.97450001 L7.676875,6.98675 L7.7018125,7.01475 L7.70093751,7.01518751 L7.7490625,7.07162501 C8.19568495,7.61768256 8.43919754,8.30168237 8.438125,9.007125 C8.43945903,9.77400701 8.15170976,10.5132196 7.63225,11.077375 C7.46274361,11.2621447 7.27130557,11.4255208 7.0621875,11.563875 L6.95325,11.6325625 L3.59937501,11.632125 L3.59937501,12.944625 L14.974375,12.944625 L14.974375,11.632125 L11.6909375,11.632125 C11.5291486,11.538339 11.3762635,11.4299722 11.2341875,11.308375 L11.1300625,11.2151875 L11.0994375,11.1854375 L11.0793125,11.166625 L11.0740625,11.161375 L11.0644375,11.1521875 L11.0740625,11.161375 L11.06225,11.1495625 L11.06225,11.1495625 Z" id="形状" fill="#FFFFFF"></path>
                </g>
            </g>
        </g>
    </g>
</svg>