<?xml version="1.0" encoding="UTF-8"?>
<svg width="16px" height="16px" viewBox="0 0 16 16" version="1.1" xmlns="http://www.w3.org/2000/svg" xmlns:xlink="http://www.w3.org/1999/xlink">
    <title>矩形</title>
    <g id="页面-2" stroke="none" stroke-width="1" fill="none" fill-rule="evenodd">
        <g id="项目审批-初涉概算-联合评审-整改" transform="translate(-1544.000000, -1455.000000)" fill-rule="nonzero">
            <g id="编组-28" transform="translate(520.000000, 1397.000000)">
                <g id="编组-13备份" transform="translate(1014.000000, 50.000000)">
                    <g id="云端上传" transform="translate(10.000000, 8.000000)">
                        <rect id="矩形" fill="#000000" opacity="0" x="0" y="0" width="16" height="16"></rect>
                        <path d="M12.628,4.103 C11.8574433,2.22591099 10.0293436,1.00022003 8.00025,1.00022003 C5.97115643,1.00022003 4.14305666,2.22591099 3.3725,4.103 C1.68255149,4.50141925 0.49139471,6.01374259 0.499953677,7.75 C0.499953677,9.818 2.182,11.5 4.25,11.5 L5.6795,11.5 C5.95564237,11.5 6.1795,11.2761424 6.1795,11 C6.1795,10.7238576 5.95564237,10.5 5.6795,10.5 L4.25,10.5 C2.73190233,10.4983466 1.5016534,9.26809767 1.5,7.75 C1.49322847,6.3945695 2.48024479,5.23865427 3.82,5.033 L4.1175,4.9865 L4.215,4.7015 C4.7695,3.0855 6.2905,2 8,2 C9.70909447,1.99951772 11.2296853,3.08496521 11.7845,4.7015 L11.8825,4.9865 L12.18,5.033 C13.5197552,5.23865427 14.5067715,6.3945695 14.5,7.75 C14.5,9.266 13.266,10.5 11.75,10.5 L10.23,10.5 C9.95385763,10.5 9.73,10.7238576 9.73,11 C9.73,11.2761424 9.95385763,11.5 10.23,11.5 L11.75,11.5 C13.818,11.5 15.5000469,9.818 15.5000469,7.75 C15.5086594,6.01389071 14.3177497,4.5016179 12.628,4.103 Z M10.153,8.907 C10.2912618,9.02016388 10.4793932,9.05096984 10.6465268,8.98781356 C10.8136605,8.92465728 10.9344049,8.77713371 10.9632768,8.60081355 C10.9921487,8.42449339 10.9247618,8.24616387 10.7865,8.133 L8.317,6.111 C8.13267924,5.9598887 7.86732076,5.9598887 7.683,6.111 L5.198,8.146 C5.03503978,8.28007264 4.9736794,8.50195265 5.04459798,8.70070391 C5.11551655,8.89945516 5.30347604,9.03237267 5.5145,9.033 C5.62999687,9.03317018 5.74193238,8.99302901 5.831,8.9195 L7.5,7.554 L7.5,14.25 C7.5,14.5261424 7.72385763,14.75 8,14.75 C8.27614237,14.75 8.5,14.5261424 8.5,14.25 L8.5,7.554 L10.153,8.907 Z" id="形状" fill="#FFFFFF"></path>
                    </g>
                </g>
            </g>
        </g>
    </g>
</svg>