<?xml version="1.0" encoding="UTF-8"?>
<svg width="22px" height="24px" viewBox="0 0 22 24" version="1.1" xmlns="http://www.w3.org/2000/svg" xmlns:xlink="http://www.w3.org/1999/xlink">
    <!-- Generator: Sketch 61.2 (89653) - https://sketch.com -->
    <title></title>
    <desc>Created with Sketch.</desc>
    <g id="专家管理" stroke="none" stroke-width="1" fill="none" fill-rule="evenodd">
        <g id="专家库管理_专家列表_评审记录" transform="translate(-540.000000, -308.000000)">
            <g id="编组-3备份-2" transform="translate(520.000000, 288.000000)">
                <g id="投资灵活-金融-资产-灵活备份" transform="translate(20.560000, 20.000000)">
                    <path d="M10.5600123,21.1200246 C4.72787425,21.1200246 0,16.3921503 0,10.5600123 C0,4.72787425 4.72787425,0 10.5600123,0 C16.3921503,0 21.1200246,4.72787425 21.1200246,10.5600123 C21.1200246,16.3921503 16.3921503,21.1200246 10.5600123,21.1200246 Z" id="路径" fill="#0090FF" fill-rule="nonzero"></path>
                    <polygon id="矩形" fill="#0090FF" points="7.68 20.16 13.44 20.16 10.56 24"></polygon>
                    <g id="编组" transform="translate(4.320000, 4.320000)" fill="#FFFFFF" fill-rule="nonzero">
                        <path d="M12.0442002,11.5975564 C12.2908695,11.5975564 12.4905845,11.7965715 12.4905845,12.0434954 C12.4905845,12.2623046 12.332785,12.4444162 12.1244747,12.4821841 L12.0442002,12.4893707 L4.90771305,12.4893707 C4.66161631,12.4893707 4.46183768,12.2896557 4.46183768,12.0434954 C4.46183768,11.8240075 4.61968747,11.6423734 4.8276068,11.60472 L4.90771305,11.5975564 L12.0442002,11.5975564 Z M6.03385373,0.879432905 L9.38345422,3.34676259 L3.99121268,10.6623506 L0.641739436,8.19432107 L6.03385373,0.879432905 Z M11.9883385,8.98083808 C12.234817,8.98083808 12.4349774,9.18061673 12.4349774,9.42601359 C12.4349774,9.64493591 12.2768259,9.82706012 12.0685715,9.86482942 L11.9883385,9.8720162 L8.41770905,9.8720162 C8.17116695,9.8720162 7.97100658,9.6723012 7.97100658,9.42601359 C7.97100658,9.20788303 8.12915798,9.02579652 8.33745713,8.98802582 L8.41770905,8.98083808 L11.9883385,8.98083808 Z M7.81061107,3.41375843 C7.65890815,3.30442099 7.45469375,3.32110134 7.32200067,3.44338312 L7.26987267,3.50219547 L3.64020035,8.53496273 C3.51486153,8.70884648 3.55405378,8.95112578 3.72749216,9.07621011 C3.87925076,9.18554755 4.08347211,9.16886719 4.21616607,9.04662804 L4.26829419,8.9878367 L7.89783925,3.9549422 C8.02330532,3.78112206 7.98398584,3.5387155 7.81061107,3.41375843 Z M0.357786562,9.01901235 L3.2755089,11.1684141 C2.4020182,11.5495841 0.525880546,12.3688673 0.326165543,12.4557774 C0.158516916,12.5281812 -0.0156849555,12.3971163 0.00302042645,12.2172519 C0.0189900011,12.0587651 0.248417304,9.98851132 0.357786562,9.01901235 L0.357786562,9.01901235 Z M7.29597813,0.0707505756 L7.38458631,0.12555488 L9.70360902,1.83372579 C9.95951017,2.02234481 10.0344195,2.36598187 9.89396821,2.64005665 L9.83912764,2.72853046 L9.6492107,2.98607946 L6.29967383,0.518876999 L6.48939991,0.26126437 C6.67801893,0.00536321497 7.02155291,-0.0695976667 7.29597813,0.0707505756 Z" id="形状"></path>
                    </g>
                </g>
            </g>
        </g>
    </g>
</svg>