<?xml version="1.0" encoding="UTF-8"?>
<svg width="18px" height="18px" viewBox="0 0 18 18" version="1.1" xmlns="http://www.w3.org/2000/svg" xmlns:xlink="http://www.w3.org/1999/xlink">
    <title></title>
    <g id="页面1" stroke="none" stroke-width="1" fill="none" fill-rule="evenodd">
        <g id="2.表单" transform="translate(-679.000000, -2108.000000)">
            <rect fill="#FFFFFF" x="0" y="0" width="1920" height="2629"></rect>
            <g id="编组-24" transform="translate(191.000000, 2053.000000)">
                <g id="Group-6备份-3" transform="translate(78.000000, 46.000000)">
                    <g id="Group-6">
                        <rect id="Rectangle-193" stroke="#ECECEC" fill="#FCFCFC" x="0.5" y="0.5" width="439" height="35" rx="2"></rect>
                        <g id="download" transform="translate(410.000000, 9.000000)">
                            <rect id="矩形" fill="#000000" fill-rule="nonzero" opacity="0" x="0" y="0" width="18" height="18"></rect>
                            <path d="M12.975,5.66333333 L14.3,5.66333333 C15.0317773,5.66333333 15.625,6.25655603 15.625,6.98833333 L15.625,14.4966667 C15.625,15.228444 15.0317773,15.8216667 14.3,15.8216667 L3.7,15.8216667 C2.96822271,15.8216667 2.375,15.228444 2.375,14.4966667 L2.375,6.98833333 C2.375,6.25655603 2.96822271,5.66333333 3.7,5.66333333 L5.025,5.66333333 L5.025,6.98833333 L3.7,6.98833333 L3.7,14.4966667 L14.3,14.4966667 L14.3,6.98833333 L12.975,6.98833333 L12.975,5.66333333 Z M9.77026666,1.26875001 L9.77115,8.46217501 L11.3032917,6.92959167 L12.239625,7.86636667 L9.11704166,10.9893917 L5.99401666,7.86680833 L6.93079166,6.92959167 L8.44570834,8.44450833 L8.44570834,1.26875001 L9.77070834,1.26875001 L9.77026666,1.26875001 Z" id="形状" fill="#007AFF"></path>
                        </g>
                    </g>
                </g>
            </g>
        </g>
    </g>
</svg>