<?xml version="1.0" encoding="UTF-8"?>
<svg width="20px" height="21px" viewBox="0 0 20 21" version="1.1" xmlns="http://www.w3.org/2000/svg" xmlns:xlink="http://www.w3.org/1999/xlink">
    <!-- Generator: Sketch 61.2 (89653) - https://sketch.com -->
    <title></title>
    <desc>Created with Sketch.</desc>
    <g id="专家管理✅" stroke="none" stroke-width="1" fill="none" fill-rule="evenodd">
        <g id="专家库管理_专家列表_专家详情" transform="translate(-954.000000, -334.000000)">
            <g id="编组-16" transform="translate(520.000000, 294.000000)">
                <g id="分组-4-copy-2" transform="translate(434.000000, 40.500000)">
                    <g id="编组-2">
                        <circle id="椭圆形备份" fill="#0088EE" cx="10" cy="10" r="10"></circle>
                        <path d="M9.86521785,15.7136859 L9.7133317,15.5488421 C9.53983096,15.3613699 5.47374885,10.9225018 5.47374885,8.55814807 C5.47374885,6.13670205 7.44377859,4.16666103 9.86522461,4.16666103 C12.2867157,4.16666103 14.2566891,6.13670205 14.2566891,8.55814807 C14.2566891,10.9225018 10.1906047,15.3613722 10.0171739,15.5488421 L9.86523025,15.7136859 L9.86521785,15.7136859 Z M9.86521785,4.58038599 C7.67163376,4.58038599 5.88747269,6.36511088 5.88747269,8.55814243 C5.88747269,10.5173807 9.11917215,14.2613325 9.86521785,15.0995514 C10.6113244,14.2613291 13.8429517,10.5173807 13.8429517,8.55814243 C13.8429517,6.36509961 12.0587907,4.58038599 9.86521785,4.58038599 Z M9.86521785,10.5130731 C8.78781104,10.5130731 7.91136972,9.63661373 7.91136972,8.55976623 C7.91136972,7.4823707 8.7878054,6.60536556 9.86521785,6.60536556 C10.9426134,6.60536556 11.819066,7.48236619 11.819066,8.55976623 C11.819066,9.63661937 10.9426066,10.5130731 9.86521785,10.5130731 Z M9.86521785,7.01908489 C9.0162289,7.01908489 8.32510032,7.71023939 8.32510032,8.55975496 C8.32510032,9.40874391 9.01623228,10.0993538 9.86521785,10.0993538 C10.7141955,10.0993538 11.4053354,9.40874053 11.4053354,8.55975496 C11.4053354,7.71023601 10.7141921,7.01908489 9.86521785,7.01908489 L9.86521785,7.01908489 Z" id="形状" fill="#FFFFFF" fill-rule="nonzero"></path>
                    </g>
                </g>
            </g>
        </g>
    </g>
</svg>