<?xml version="1.0" encoding="UTF-8"?>
<svg width="122px" height="126px" viewBox="0 0 122 126" version="1.1" xmlns="http://www.w3.org/2000/svg" xmlns:xlink="http://www.w3.org/1999/xlink">
    <!-- Generator: Sketch 61.2 (89653) - https://sketch.com -->
    <title></title>
    <desc>Created with Sketch.</desc>
    <g id="专家管理" stroke="none" stroke-width="1" fill="none" fill-rule="evenodd" opacity="0.0397600446">
        <g id="专家库管理_专家列表_评审记录" transform="translate(-739.000000, -288.000000)">
            <g id="编组-3备份-2" transform="translate(520.000000, 288.000000)">
                <g id="投资灵活-金融-资产-灵活备份" transform="translate(0.560000, 0.000000)">
                    <g transform="translate(218.440000, -7.500000)">
                        <path d="M66.8800778,133.760156 C29.9432036,133.760156 0,103.816952 0,66.8800778 C0,29.9432036 29.9432036,0 66.8800778,0 C103.816952,0 133.760156,29.9432036 133.760156,66.8800778 C133.760156,103.816952 103.816952,133.760156 66.8800778,133.760156 Z" id="路径" fill="#0090FF" fill-rule="nonzero"></path>
                        <polygon id="矩形" fill="#0090FF" points="48.64 127.68 85.12 127.68 66.88 152"></polygon>
                        <g id="编组" transform="translate(27.360000, 27.360000)" fill="#FFFFFF" fill-rule="nonzero">
                            <path d="M76.2799344,73.4511905 C77.8421736,73.4511905 79.1070353,74.7116197 79.1070353,76.2754707 C79.1070353,77.6612624 78.1076384,78.8146362 76.7883397,79.0538329 L76.2799344,79.0993481 L31.0821826,79.0993481 C29.5235699,79.0993481 28.2583053,77.8344863 28.2583053,76.2754707 C28.2583053,74.885381 29.2580206,73.7350318 30.574843,73.4965603 L31.0821826,73.4511905 L76.2799344,73.4511905 Z M38.214407,5.56974173 L59.4285434,21.1961631 L25.2776803,67.5282207 L4.06434976,51.8973668 L38.214407,5.56974173 Z M75.9261439,56.8786412 C77.4871742,56.8786412 78.7548566,58.1439059 78.7548566,59.6980861 C78.7548566,61.0845941 77.753231,62.2380474 76.434286,62.477253 L75.9261439,62.5227693 L53.3121573,62.5227693 C51.750724,62.5227693 50.4830417,61.2579076 50.4830417,59.6980861 C50.4830417,58.3165925 51.4846672,57.163378 52.8038952,56.9241635 L53.3121573,56.8786412 L75.9261439,56.8786412 Z M49.4672034,21.62047 C48.5064183,20.9279996 47.2130604,21.0336419 46.3726709,21.8080931 L46.0425269,22.1805713 L23.0546022,54.0547639 C22.2607897,55.1560277 22.5090073,56.6904633 23.6074504,57.482664 C24.5685881,58.1751345 25.8619901,58.0694922 26.7023851,57.2953109 L27.0325299,56.9229658 L50.0196486,25.0479673 C50.814267,23.9471064 50.5652437,22.4118649 49.4672034,21.62047 Z M2.26598156,57.1204115 L20.7448897,70.7332892 C15.212782,73.1473658 3.33057679,78.3361598 2.06571511,78.8865902 C1.00394047,79.3451479 -0.0993380515,78.5150698 0.0191293675,77.3759287 C0.120270007,76.3721789 1.57330959,63.2605717 2.26598156,57.1204115 L2.26598156,57.1204115 Z M46.2078615,0.448086979 L46.7690467,0.795180908 L61.4561904,11.6135967 C63.0768978,12.8081838 63.5513237,14.9845519 62.6617987,16.7203588 L62.3144751,17.2806929 L61.1116678,18.9118366 L39.8979343,3.28622099 L41.0995328,1.65467435 C42.2941199,0.0339670281 44.4698351,-0.440785222 46.2078615,0.448086979 Z" id="形状"></path>
                        </g>
                    </g>
                </g>
            </g>
        </g>
    </g>
</svg>