<?xml version="1.0" encoding="UTF-8"?>
<svg width="131px" height="126px" viewBox="0 0 131 126" version="1.1" xmlns="http://www.w3.org/2000/svg" xmlns:xlink="http://www.w3.org/1999/xlink">
    <!-- Generator: Sketch 61.2 (89653) - https://sketch.com -->
    <title></title>
    <desc>Created with Sketch.</desc>
    <g id="专家管理" stroke="none" stroke-width="1" fill="none" fill-rule="evenodd" opacity="0.03">
        <g id="专家库管理_专家列表_评审记录" transform="translate(-1529.000000, -288.000000)">
            <g id="编组-4备份" transform="translate(1320.000000, 288.000000)">
                <g id="投资灵活-金融-资产-灵活">
                    <g>
                        <g transform="translate(209.000000, -13.000000)">
                            <path d="M66.8800778,133.760156 C29.9432036,133.760156 0,103.816952 0,66.8800778 C0,29.9432036 29.9432036,0 66.8800778,0 C103.816952,0 133.760156,29.9432036 133.760156,66.8800778 C133.760156,103.816952 103.816952,133.760156 66.8800778,133.760156 Z" id="路径" fill="#FF6600" fill-rule="nonzero"></path>
                            <polygon id="矩形" fill="#FF6600" points="48.64 127.68 85.12 127.68 66.88 152"></polygon>
                            <path d="M38.6445934,68.3911412 L38.6445934,84.5335412 L66.8800778,99.8551412 L95.1155622,84.5335412 L95.1155622,68.409399 L66.8800778,83.730999 L38.6445934,68.3911412 Z M66.8800778,27.2599412 L22.5203622,51.4644568 L66.8800778,75.6506256 L103.177678,55.8967412 L103.177678,83.730999 L111.239793,83.730999 L111.239793,51.4644568 L66.8800778,27.2599412 Z" id="形状" fill="#FFFFFF" fill-rule="nonzero"></path>
                        </g>
                    </g>
                </g>
            </g>
        </g>
    </g>
</svg>