<?xml version="1.0" encoding="UTF-8"?>
<svg width="12px" height="12px" viewBox="0 0 12 12" version="1.1" xmlns="http://www.w3.org/2000/svg" xmlns:xlink="http://www.w3.org/1999/xlink">
    <!-- Generator: Sketch 55.2 (78181) - https://sketchapp.com -->
    <title>路径</title>
    <desc>Created with Sketch.</desc>
    <g id="2.0" stroke="none" stroke-width="1" fill="none" fill-rule="evenodd">
        <g id="项目调度-集群概览" transform="translate(-677.000000, -1488.000000)" fill-rule="nonzero">
            <g id="编组-46" transform="translate(520.000000, 1276.000000)">
                <g id="编组-51" transform="translate(20.000000, 80.000000)">
                    <g id="编组-24">
                        <g id="逾期" transform="translate(137.000000, 132.000000)">
                            <path d="M5.99999974,0 L5.99999974,0 C9.31372151,0 12.0000137,2.68629219 12.0000137,6 C12.0000137,9.31372178 9.31372151,12.000014 5.99999974,12.000014 C2.68629193,12.000014 -2.62268274e-07,9.31372178 -2.62268274e-07,6 L-2.62268274e-07,6 C-2.62268274e-07,2.68629283 2.68629193,0 5.99999974,0 C5.99999974,0 5.99999974,0 5.99999974,0" id="路径" fill="#FF2323"></path>
                            <path d="M7.59501274,8.70501404 L7.59501278,8.705014 C7.46033723,8.83555048 7.28239953,8.91206346 7.09501181,8.92002283 L7.09501185,8.92002283 C6.89839795,8.92093916 6.70949968,8.84358076 6.57001124,8.705014 L4.95000936,7.1500161 L4.95000929,7.15001603 C4.75432586,6.92601655 4.66019489,6.63095214 4.6900086,6.33501469 L4.6900086,2.83500671 L4.69000857,2.8350063 C4.65644298,2.42769606 4.95942294,2.07029487 5.36673318,2.03672998 C5.77404342,2.0031644 6.13144462,2.30614436 6.1650095,2.7134546 C6.16834281,2.75390344 6.1683428,2.79455794 6.16500948,2.8350063 L6.16500948,6.29001423 C6.3650101,6.49501408 6.89001071,6.95501539 7.60000724,7.66001973 L7.60000726,7.66001974 C7.88384392,7.95441501 7.88384392,8.4206261 7.60000723,8.71502136" id="路径" fill="#FFFFFF"></path>
                        </g>
                    </g>
                </g>
            </g>
        </g>
    </g>
</svg>