<?xml version="1.0" encoding="UTF-8"?>
<svg width="28px" height="28px" viewBox="0 0 28 28" version="1.1" xmlns="http://www.w3.org/2000/svg" xmlns:xlink="http://www.w3.org/1999/xlink">
    <title>logo</title>
    <g id="页面1" stroke="none" stroke-width="1" fill="none" fill-rule="evenodd">
        <g id="6.组件-信息展示一" transform="translate(-220.000000, -3065.000000)">
            <g id="编组-27备份-2" transform="translate(186.000000, 3048.000000)">
                <g id="logo" transform="translate(34.000000, 17.000000)">
                    <rect id="Rectangle-2" fill="#007AFF" x="0" y="0" width="28" height="28" rx="4"></rect>
                    <g id="编组-4" transform="translate(2.000000, 2.000000)" fill="#FFFFFF">
                        <path d="M11.544611,12.2357256 L3.25830135,7.96457772 C3.09990116,8.33229244 3.01080106,8.73772148 3.01080106,9.15257911 L3.01080106,14.8945858 C3.01080106,16.0354443 3.66420182,17.0914455 4.72350306,17.6383033 L10.4358097,20.6365925 C10.7823101,20.8157356 11.1684106,20.9383072 11.554511,20.9948786 L11.554511,12.2357256 L11.544611,12.2357256 Z M12.0000116,11.5191533 L20.2863212,7.18200538 C20.0289209,6.87086216 19.7121206,6.60686185 19.3359201,6.40886162 L13.6236134,3.41057241 C12.6336123,2.88257179 11.4258109,2.88257179 10.4259097,3.41057241 L4.71360305,6.40886162 C4.31760259,6.61629043 3.98100219,6.88971933 3.71370188,7.21029113 L12.0000116,11.5191533 Z M20.7516218,7.93629198 L12.4554121,12.2357256 L12.4554121,20.9854501 C12.8514125,20.9288786 13.227613,20.8157356 13.5741134,20.6271639 L19.2864201,17.6288747 C20.3358213,17.0820169 20.9991221,16.0260157 20.9991221,14.8851572 L20.9991221,9.15257911 C20.9991221,8.7282929 20.910022,8.31343527 20.7516218,7.93629198 Z" id="形状" fill-rule="nonzero" opacity="0.75"></path>
                        <path d="M12.0000116,11.5191533 L20.2863212,7.18200538 C20.0289209,6.87086216 19.7121206,6.60686185 19.3359201,6.40886162 L13.6236134,3.41057241 C12.6336123,2.88257179 11.4258109,2.88257179 10.4259097,3.41057241 L4.71360305,6.40886162 C4.31760259,6.61629043 3.98100219,6.88971933 3.71370188,7.21029113 L12.0000116,11.5191533 Z" id="路径"></path>
                    </g>
                </g>
            </g>
        </g>
    </g>
</svg>