<?xml version="1.0" encoding="UTF-8"?>
<svg width="18px" height="18px" viewBox="0 0 18 18" version="1.1" xmlns="http://www.w3.org/2000/svg" xmlns:xlink="http://www.w3.org/1999/xlink">
    <title>Oval 2</title>
    <g id="统筹管理-20200927迭代" stroke="none" stroke-width="1" fill="none" fill-rule="evenodd">
        <g id="8.8.1项目调度_统筹管理_统筹管理(整体)备份" transform="translate(-1297.000000, -1120.000000)">
            <g id="编组-21" transform="translate(520.000000, 886.000000)">
                <g id="编组-25备份-5" transform="translate(757.000000, 208.000000)">
                    <g id="编组-18" transform="translate(20.000000, 24.000000)">
                        <g id="编组-19">
                            <g id="Group-21" transform="translate(0.000000, 2.000000)">
                                <circle id="Oval-2" fill="#18E9E1" cx="9" cy="9" r="9"></circle>
                                <g id="编组" transform="translate(3.000000, 3.000000)" fill="#FFFFFF" fill-rule="nonzero">
                                    <path d="M5.47780107,6.50962271 L5.47780107,1.41911204 C5.47780107,1.2533346 5.33917683,1.11328125 5.17339939,1.12185595 C1.07755335,1.31192835 -1.82498095,6.02372332 1.38052591,10.3996761 L1.56345274,10.5826029 C5.90653582,13.7881098 10.632622,10.8970084 10.8412729,6.81545351 C10.8498476,6.64967607 10.7112233,6.51105183 10.5454459,6.51105183 C9.40929878,6.50962271 5.47780107,6.50962271 5.47780107,6.50962271 Z" id="路径"></path>
                                    <path d="M6.5982279,0.594512195 L6.5982279,4.76610137 C6.5982279,5.09051067 6.86118521,5.35346799 7.18559451,5.35346799 L11.3371761,5.35346799 C11.6901677,5.35346799 11.9688453,5.04192073 11.9245427,4.69178735 C11.6158537,2.25800305 9.69226372,0.32726753 7.26133765,0.00857469512 C6.90977515,-0.038586128 6.5982279,0.240091463 6.5982279,0.594512195 Z" id="路径"></path>
                                </g>
                            </g>
                        </g>
                    </g>
                </g>
            </g>
        </g>
    </g>
</svg>