<?xml version="1.0" encoding="UTF-8"?>
<svg width="18px" height="18px" viewBox="0 0 18 18" version="1.1" xmlns="http://www.w3.org/2000/svg" xmlns:xlink="http://www.w3.org/1999/xlink">
    <title>删除</title>
    <g id="新增公司人员弹窗-10月迭代" stroke="none" stroke-width="1" fill="none" fill-rule="evenodd">
        <g id="1.设计公司-新增/编辑弹窗" transform="translate(-1272.000000, -581.000000)" fill-rule="nonzero">
            <g id="编组-4备份-4" transform="translate(666.000000, 428.000000)">
                <g id="编组-5" transform="translate(40.000000, 88.000000)">
                    <g id="编组备份" transform="translate(0.000000, 54.000000)">
                        <g id="编组-4" transform="translate(566.000000, 11.000000)">
                            <g id="删除">
                                <rect id="矩形" fill="#000000" opacity="0" x="0" y="0" width="18" height="18"></rect>
                                <path d="M4.992,6.33333335 L5.68586667,16.1696 L12.4816,16.1696 L13.1749333,6.33333335 L14.7776,6.33333335 L14.0773333,16.2821334 C14.0182626,17.1199224 13.3214689,17.7694403 12.4816,17.7696 L5.68586667,17.7696 C4.84580636,17.7694205 4.14893755,17.1195997 4.09013335,16.2816 L3.3888,6.33333335 L4.992,6.33333335 Z M8.47466667,6.8288 L8.47466667,14.2954667 L6.87466667,14.2954667 L6.87466667,6.8288 L8.47466667,6.8288 Z M11.4,6.8288 L11.4,14.2954667 L9.8,14.2954667 L9.8,6.8288 L11.4,6.8288 Z M1,3.66666668 L17,3.66666668 L17,5.26666668 L1,5.26666668 L1,3.66666668 Z M12.3370667,1 L12.3370667,2.6 L5.93706668,2.6 L5.93706668,1 L12.3370667,1 Z" id="形状" fill="#007AFF"></path>
                            </g>
                        </g>
                    </g>
                </g>
            </g>
        </g>
    </g>
</svg>