<?xml version="1.0" encoding="UTF-8"?>
<svg width="18px" height="18px" viewBox="0 0 18 18" version="1.1" xmlns="http://www.w3.org/2000/svg" xmlns:xlink="http://www.w3.org/1999/xlink">
    <title>添加</title>
    <g id="新增公司人员弹窗-10月迭代" stroke="none" stroke-width="1" fill="none" fill-rule="evenodd">
        <g id="1.设计公司-新增/编辑弹窗" transform="translate(-1310.000000, -581.000000)" fill-rule="nonzero">
            <g id="编组-4备份-4" transform="translate(666.000000, 428.000000)">
                <g id="编组-5" transform="translate(40.000000, 88.000000)">
                    <g id="编组备份" transform="translate(0.000000, 54.000000)">
                        <g id="编组-4" transform="translate(566.000000, 11.000000)">
                            <g id="添加" transform="translate(38.000000, 0.000000)">
                                <rect id="矩形" fill="#000000" opacity="0" x="0" y="0" width="18" height="18"></rect>
                                <path d="M9.5,2 C13.6422059,2 17,5.35779411 17,9.5 C17,13.6422059 13.6422059,17 9.5,17 C5.35779411,17 2,13.6422059 2,9.5 C2,5.35779411 5.35779411,2 9.5,2 Z M9.5,3.32352941 C6.08882354,3.32352941 3.32352941,6.08882352 3.32352941,9.5 C3.32352941,12.9111765 6.08882352,15.6764706 9.5,15.6764706 C12.9111765,15.6764706 15.6764706,12.9111765 15.6764706,9.5 C15.6764706,6.08882352 12.9111765,3.32352941 9.5,3.32352941 Z M10.1617647,5.52941177 L10.1617647,8.83823529 L13.4705882,8.83823529 L13.4705882,10.1617647 L10.1617647,10.1617647 L10.1617647,13.4705882 L8.83823529,13.4705882 L8.83823529,10.1613235 L5.52941177,10.1617647 L5.52941177,8.83823529 L8.83823529,8.83779413 L8.83823529,5.52941177 L10.1617647,5.52941177 Z" id="形状" fill="#007AFF"></path>
                            </g>
                        </g>
                    </g>
                </g>
            </g>
        </g>
    </g>
</svg>