<?xml version="1.0" encoding="UTF-8"?>
<svg width="18px" height="18px" viewBox="0 0 18 18" version="1.1" xmlns="http://www.w3.org/2000/svg" xmlns:xlink="http://www.w3.org/1999/xlink">
    <title>查看</title>
    <g id="页面1" stroke="none" stroke-width="1" fill="none" fill-rule="evenodd">
        <g id="2.表单" transform="translate(-615.000000, -2363.000000)">
            <g id="Group-6备份-2" transform="translate(238.500000, 2353.500000)">
                <g id="browse" transform="translate(376.500000, 9.500000)">
                    <rect id="矩形" fill="#000000" fill-rule="nonzero" opacity="0" x="0" y="0" width="18" height="18"></rect>
                    <path d="M9,3.04166667 C11.8347917,3.04166667 14.4193333,4.77141667 16.7531667,8.23091667 C17.0467486,8.66617781 17.0668441,9.23062991 16.8049583,9.68566667 L16.7531667,9.76908333 L16.623,9.95929167 C14.3235417,13.2918333 11.7820833,14.9583333 9,14.9583333 C6.16520833,14.9583333 3.58066667,13.2285833 1.24683333,9.76908333 C0.95325136,9.33382219 0.933155876,8.76937009 1.19504167,8.31433333 L1.24683333,8.23091667 L1.377,8.04070833 C3.67645833,4.70816667 6.21791667,3.04166667 9,3.04166667 Z M9,4.41666667 C6.72758333,4.41666667 4.57341667,5.82925 2.51275,8.81575 L2.38670833,9 L2.51320833,9.18470833 C4.57570833,12.172125 6.72941667,13.5833333 9,13.5833333 C11.2724167,13.5833333 13.4265833,12.17075 15.48725,9.18425 L15.6132917,9 L15.4867917,8.81529167 C13.4242917,5.827875 11.2705833,4.41666667 9,4.41666667 Z M9,6.08133333 C10.0947809,6.06788909 11.1122025,6.64424427 11.6635107,7.59017512 C12.2148189,8.53610596 12.2148189,9.70543569 11.6635107,10.6513665 C11.1122025,11.5972974 10.0947809,12.1736526 9,12.1602083 C7.33592223,12.1397729 5.99765854,10.7849741 5.99765854,9.12077083 C5.99765854,7.45656758 7.33592223,6.10176871 9,6.08133333 L9,6.08133333 Z M9,7.45633333 C8.39877067,7.44635589 7.83889256,7.76139565 7.53536075,8.28047628 C7.23182894,8.7995569 7.23182894,9.44198475 7.53536075,9.96106538 C7.83889256,10.480146 8.39877067,10.7951858 9,10.7852083 C9.90847604,10.7701321 10.6370452,10.029372 10.6370452,9.12077083 C10.6370452,8.2121697 9.90847604,7.47140954 9,7.45633333 L9,7.45633333 Z" id="形状" fill="#007AFF"></path>
                </g>
            </g>
        </g>
    </g>
</svg>