<?xml version="1.0" encoding="UTF-8"?>
<svg width="16px" height="18px" viewBox="0 0 16 18" version="1.1" xmlns="http://www.w3.org/2000/svg" xmlns:xlink="http://www.w3.org/1999/xlink">
    <!-- Generator: Sketch 55.2 (78181) - https://sketchapp.com -->
    <title>形状</title>
    <desc>Created with Sketch.</desc>
    <g id="2.0" stroke="none" stroke-width="1" fill="none" fill-rule="evenodd">
        <g id="项目调度-集群概览" transform="translate(-540.000000, -566.000000)" fill="#F7A900" fill-rule="nonzero">
            <g id="编组-17" transform="translate(520.000000, 496.000000)">
                <g id="编组-23" transform="translate(0.000000, 48.000000)">
                    <g id="计划" transform="translate(20.000000, 22.000000)">
                        <path d="M14.2970904,0.0087914 L1.68574764,0.0087914 C0.98965308,0.0087914 0.42461336,0.56308892 0.42461336,1.24629284 L0.42461336,16.7150608 C0.42461336,17.765648 1.63418508,18.356469 2.46348292,17.7076401 L7.20938688,14.2422064 C7.66485616,13.8855654 8.30509128,13.8855654 8.762709,14.2422064 L13.5215036,17.711937 C14.3508014,18.3586174 15.5582247,17.7677964 15.5582247,16.7172093 L15.5582247,1.24629284 C15.5582247,0.56308892 14.993185,0.0087914 14.2970904,0.0087914 L14.2970904,0.0087914 Z M11.3730636,6.46700204 L10.2172029,7.62286276 C10.1011871,7.73887852 10.0496246,7.90215996 10.0775543,8.06329296 L10.3504062,9.69610736 C10.4191562,10.1021625 10.0023589,10.4136863 9.64571784,10.2203267 L8.21700524,9.4511852 C8.0752082,9.3759898 7.90548144,9.3759898 7.76583284,9.4511852 L6.33712024,10.2224752 C5.9804792,10.4136863 5.56368184,10.104311 5.63243192,9.6982558 L5.9052838,8.0654414 C5.93321352,7.9043084 5.87950252,7.74102696 5.7656352,7.6250112 L4.60977448,6.46915048 C4.32188352,6.18125952 4.48086808,5.67852456 4.87832948,5.61836824 L6.4746204,5.3798914 C6.63360496,5.35625856 6.77110512,5.25313344 6.8398552,5.10703952 L7.55313728,3.62246748 C7.63262956,3.45274072 7.80235632,3.34531872 7.9892706,3.34531872 C8.17618488,3.34531872 8.34591164,3.45274072 8.42540392,3.62246748 L9.138686,5.10703952 C9.20958452,5.25313344 9.34708468,5.35625856 9.5039208,5.3798914 L11.1002117,5.61836824 C11.50197,5.67637612 11.6609546,6.17911108 11.3730636,6.46700204 L11.3730636,6.46700204 Z" id="形状"></path>
                    </g>
                </g>
            </g>
        </g>
    </g>
</svg>