<?xml version="1.0" encoding="UTF-8"?>
<svg width="18px" height="18px" viewBox="0 0 18 18" version="1.1" xmlns="http://www.w3.org/2000/svg" xmlns:xlink="http://www.w3.org/1999/xlink">
    <!-- Generator: Sketch 55.2 (78181) - https://sketchapp.com -->
    <title>Oval 2</title>
    <desc>Created with Sketch.</desc>
    <g id="页面1" stroke="none" stroke-width="1" fill="none" fill-rule="evenodd">
        <g id="7.1_项目调度管理_统筹管理_统筹管理(整体)" transform="translate(-620.000000, -1019.000000)">
            <g id="编组-21" transform="translate(520.000000, 937.000000)">
                <g id="编组-19" transform="translate(100.000000, 80.000000)">
                    <g id="Group-21" transform="translate(0.000000, 2.000000)">
                        <circle id="Oval-2" fill="#FF9438" cx="9" cy="9" r="9"></circle>
                        <path d="M13.3312073,10.2402369 L13.4869506,11.8594963 C13.5687354,12.7059099 13.2654659,13.20601 12.5947532,13.4149721 C12.1122622,13.5652369 11.6720332,13.5707154 10.2903012,13.5049745 C9.70685105,13.4775825 9.37618955,13.4662343 9.00013678,13.4662343 C8.62447471,13.4662343 8.29342251,13.4775825 7.70997236,13.5053657 C6.32824031,13.5707154 5.88801133,13.5652369 5.40513516,13.4149721 C4.73481315,13.20601 4.4315449,12.7059099 4.51293774,11.8594963 L4.66907229,10.2402369 C4.86785952,8.17018846 6.80643905,6.50084014 9.00013678,6.50084014 C11.1938589,6.50084014 13.1324256,8.17018846 13.3312073,10.2402369 Z M10.0300836,8.26605382 L9.89155824,8.12752844 L9.01618674,9.00329063 L8.14081525,8.12752844 L8.00228986,8.26605382 L9.01618674,9.27955817 L10.0300836,8.26605382 Z M7.43487872,9.36017015 L7.43487872,9.55582809 L8.90230867,9.55582809 L8.90230867,10.5341141 L7.43487872,10.5341141 L7.43487872,10.7297721 L8.90230867,10.7297721 L8.90230867,12.099374 L9.09796661,12.099374 L9.09796661,10.7297721 L10.5654021,10.7297721 L10.5654021,10.5341141 L9.09796661,10.5341141 L9.09796661,9.55582809 L10.5654021,9.55582809 L10.5654021,9.36017015 L7.43487872,9.36017015 Z M9.00014364,6.30517707 C8.47466623,6.30596287 7.9544458,6.40979456 7.46893009,6.61079321 L7.3100564,6.67653425 L6.53838451,5.32649851 L6.03437185,4.44408335 C5.86297603,4.14394439 6.19246303,3.67632399 6.79900007,3.67632399 C7.05257197,3.67632399 7.19657637,3.74949977 7.37971163,3.91776575 L7.40045137,3.93654885 C7.56441227,4.08759637 7.65558791,4.10598803 8.02420632,3.96941928 C8.43000023,3.81915445 8.72505087,3.87589502 9.15158323,4.08994426 C9.37541582,4.20225162 9.40319794,4.21516501 9.4795043,4.23512205 C9.60746419,4.26916643 9.70490154,4.24373097 9.83834045,4.11655371 C10.5924032,3.39653536 11.8023487,3.40123113 11.9878319,4.30790658 L12.0027018,4.38029985 L10.6902325,6.67653425 L10.5313588,6.61079339 C10.0458416,6.40979382 9.5256193,6.30596215 9.00014364,6.30517707 Z" id="形状" fill="#FFFFFF" fill-rule="nonzero" transform="translate(9.000000, 8.572564) scale(-1, 1) translate(-9.000000, -8.572564) "></path>
                    </g>
                </g>
            </g>
        </g>
    </g>
</svg>