<?xml version="1.0" encoding="UTF-8"?>
<svg width="18px" height="18px" viewBox="0 0 18 18" version="1.1" xmlns="http://www.w3.org/2000/svg" xmlns:xlink="http://www.w3.org/1999/xlink">
    <!-- Generator: Sketch 55.2 (78181) - https://sketchapp.com -->
    <title>Oval 2</title>
    <desc>Created with Sketch.</desc>
    <g id="页面1" stroke="none" stroke-width="1" fill="none" fill-rule="evenodd">
        <g id="7.1_项目调度管理_统筹管理_统筹管理(整体)" transform="translate(-897.000000, -1019.000000)">
            <g id="编组-21" transform="translate(520.000000, 937.000000)">
                <g id="编组-18" transform="translate(377.000000, 80.000000)">
                    <g id="Group-21" transform="translate(0.000000, 2.000000)">
                        <circle id="Oval-2" fill="#0090FF" cx="9" cy="9" r="9"></circle>
                        <g id="中标" transform="translate(4.500000, 4.500000)" fill="#FFFFFF" fill-rule="nonzero">
                            <path d="M4.90700962,3.79300344 C4.78600957,3.72400333 4.65000922,3.68600351 4.51100916,3.68300292 C4.04900891,3.68300292 3.67500838,4.05700345 3.67500838,4.5190037 C3.67500838,4.98100394 4.04900891,5.35500447 4.51100916,5.35500447 C4.9730094,5.35500447 5.34700993,4.98100394 5.34700993,4.5190037 C5.34700993,4.37900344 5.30900985,4.24200376 5.23700941,4.12300324 L8.53601423,0.82399842 C8.57801431,0.783998383 8.60201428,0.727998015 8.60201428,0.669998045 C8.60201428,0.611997988 8.57801422,0.55599762 8.53601423,0.515997671 C8.49601419,0.473997593 8.44001383,0.449997623 8.38201386,0.449997623 C8.3240138,0.449997623 8.26801343,0.47399768 8.22801348,0.515997671 L4.90700962,3.79300344 Z" id="路径"></path>
                            <path d="M8.91001037,4.67200739 C8.93101036,3.81400668 8.73401007,3.0220084 8.3380096,2.34100468 C8.25000989,2.1870043 8.03000886,2.16500437 7.89800929,2.29700465 L6.62201171,3.57300222 C6.55601166,3.63900227 6.55601166,3.7270026 6.57801168,3.79300238 C6.66601139,4.0570024 6.71001212,4.34300322 6.71001212,4.65100309 C6.64401208,5.77300732 5.69801192,6.69600937 4.55501059,6.74000747 C3.9560098,6.75300748 3.37801313,6.52000731 2.95501264,6.09700682 C2.53201215,5.67400633 2.29901207,5.09600175 2.31201199,4.49700887 C2.33301198,3.37500463 3.25701309,2.40800448 4.40101637,2.34200733 C4.70901712,2.32000732 4.99501706,2.36400735 5.25901708,2.47400778 C5.34701679,2.49500778 5.41301745,2.49500778 5.47901723,2.43000775 L6.73301576,1.13100917 C6.86501621,0.999008721 6.84301628,0.779008563 6.66701572,0.691008851 C5.98501531,0.29500839 5.19301791,0.0970081598 4.35801205,0.119008088 C1.96001024,0.207007799 0.112011019,2.12100944 0.112011019,4.5180093 C0.112011019,6.93700821 2.09101137,8.91701051 4.51101223,8.91701051 C6.90801209,8.91701051 8.82201725,7.06901129 8.91001344,4.67200264 L8.91001037,4.67200739 Z" id="路径"></path>
                        </g>
                    </g>
                </g>
            </g>
        </g>
    </g>
</svg>