<?xml version="1.0" encoding="UTF-8"?>
<svg width="16px" height="16px" viewBox="0 0 16 16" version="1.1" xmlns="http://www.w3.org/2000/svg" xmlns:xlink="http://www.w3.org/1999/xlink">
    <!-- Generator: Sketch 55.2 (78181) - https://sketchapp.com -->
    <title>Shape-success备份</title>
    <desc>Created with Sketch.</desc>
    <g id="2.0" stroke="none" stroke-width="1" fill="none" fill-rule="evenodd">
        <g id="项目调度-集群概览" transform="translate(-832.000000, -651.000000)">
            <g id="编组-17" transform="translate(520.000000, 496.000000)">
                <g id="编组-24" transform="translate(292.000000, 48.000000)">
                    <g id="编组-4" transform="translate(20.000000, 107.000000)">
                        <path d="M8,16 C3.58162268,16 0,12.4183773 0,8 C0,3.58162268 3.58162268,0 8,0 C12.4183773,0 16,3.58162268 16,8 C16,12.4183773 12.4183773,16 8,16 L8,16 Z" id="Shape备份-2" fill="#F7A900" transform="translate(8.000000, 8.000000) scale(1, -1) translate(-8.000000, -8.000000) "></path>
                        <path d="M7.99611386,7 C8.6864698,7 9.24611386,7.55964406 9.24611386,8.25 L9.24611386,11.75 C9.24611386,12.4403559 8.6864698,13 7.99611386,13 C7.30575792,13 6.74611386,12.4403559 6.74611386,11.75 L6.74611386,8.25 C6.74611386,7.55964406 7.30575792,7 7.99611386,7 Z" id="矩形" fill="#FFFFFF"></path>
                        <path d="M8,6 C8.82842712,6 9.5,5.32842712 9.5,4.5 C9.5,3.67157288 8.82842712,3 8,3 C7.17157288,3 6.5,3.67157288 6.5,4.5 C6.5,5.32842712 7.17157288,6 8,6 Z" id="椭圆形" fill="#FFFFFF"></path>
                    </g>
                </g>
            </g>
        </g>
    </g>
</svg>