<?xml version="1.0" encoding="UTF-8"?>
<svg width="16px" height="16px" viewBox="0 0 16 16" version="1.1" xmlns="http://www.w3.org/2000/svg" xmlns:xlink="http://www.w3.org/1999/xlink">
    <!-- Generator: Sketch 55.2 (78181) - https://sketchapp.com -->
    <title>Shape-success备份</title>
    <desc>Created with Sketch.</desc>
    <g id="2.0" stroke="none" stroke-width="1" fill="none" fill-rule="evenodd">
        <g id="项目调度-集群概览" transform="translate(-832.000000, -693.000000)">
            <g id="编组-17" transform="translate(520.000000, 496.000000)">
                <g id="编组-24" transform="translate(292.000000, 48.000000)">
                    <g id="编组-4" transform="translate(20.000000, 149.000000)">
                        <path d="M8,16 C3.58162268,16 0,12.4183773 0,8 C0,3.58162268 3.58162268,0 8,0 C12.4183773,0 16,3.58162268 16,8 C16,12.4183773 12.4183773,16 8,16 L8,16 Z" id="Shape备份-2" fill="#FF6600" transform="translate(8.000000, 8.000000) scale(1, -1) translate(-8.000000, -8.000000) "></path>
                        <path d="M4.21663064,9.15285849 L7.48652765,9.15285849 L6.51751257,12.8152833 C6.44688047,13.0822397 6.60603275,13.3559092 6.87298914,13.4265413 C7.05719897,13.4752801 7.25309734,13.4150798 7.37814688,13.2713045 L11.9046393,8.06698406 C12.0858608,7.85862525 12.0638616,7.54280805 11.8555028,7.36158658 C11.7645067,7.28244215 11.6479713,7.23885358 11.5273723,7.23885358 L8.2579116,7.23885358 L9.22507243,3.5747072 C9.29554723,3.30770924 9.13623372,3.03413351 8.86923576,2.96365871 C8.68504765,2.91504179 8.48923661,2.97531054 8.36426441,3.11908402 L3.83926521,8.32484122 C3.65810627,8.53325439 3.6802002,8.84906498 3.88861337,9.03022392 C3.97959421,9.10930717 4.09608326,9.15285849 4.21663064,9.15285849 Z" id="路径" fill="#FFFFFF" fill-rule="nonzero"></path>
                    </g>
                </g>
            </g>
        </g>
    </g>
</svg>