<?xml version="1.0" encoding="UTF-8"?>
<svg width="24px" height="24px" viewBox="0 0 24 24" version="1.1" xmlns="http://www.w3.org/2000/svg" xmlns:xlink="http://www.w3.org/1999/xlink">
    <!-- Generator: Sketch 55.2 (78181) - https://sketchapp.com -->
    <title>Path备份 4</title>
    <desc>Created with Sketch.</desc>
    <g id="页面1" stroke="none" stroke-width="1" fill="none" fill-rule="evenodd">
        <g id="3-2-2-1中长期项目库-第三方服务弹窗" transform="translate(-660.000000, -690.000000)" fill="#F7A900">
            <g id="编组-4备份" transform="translate(610.000000, 250.000000)">
                <g id="全局提示-Alert-大尺寸型警告提示-大（警告）" transform="translate(30.000000, 424.000000)">
                    <g id="编组-11" transform="translate(20.000000, 16.000000)">
                        <path d="M12,24 C5.371875,24 0,18.628125 0,12 C0,5.371875 5.371875,0 12,0 C18.628125,0 24,5.371875 24,12 C24,18.628125 18.628125,24 12,24 L12,24 Z M12,19.5 C12.4148437,19.5 12.75,19.1648438 12.75,18.75 C12.75,18.3351562 12.4148437,18 12,18 C11.5851562,18 11.25,18.3351562 11.25,18.75 C11.25,19.1648438 11.5851563,19.5 12,19.5 L12,19.5 Z M14.2382812,4.5 L12.7148438,4.5 L11.2148438,4.5 L9.76171875,4.5 C9.346875,4.5 9.01171875,4.83515625 9.01171875,5.25 C9.01171875,5.66484375 9.346875,6 9.76171875,6 L11.2148438,6 L11.2148438,13.5585938 L9.73828125,13.5585938 C9.3234375,13.5585938 8.98828125,13.89375 8.98828125,14.3085938 C8.98828125,14.7234375 9.3234375,15.0585938 9.73828125,15.0585938 L11.2148438,15.0585938 L11.9648438,15.0585938 C12.3796875,15.0585938 12.7148438,14.7234375 12.7148438,14.3085938 L12.7148438,6 L14.2382812,6 C14.653125,6 15.0117188,5.66484375 15.0117188,5.25 C15.0117188,4.83515625 14.653125,4.5 14.2382812,4.5 L14.2382812,4.5 Z" id="Shape" transform="translate(12.000000, 12.000000) scale(1, -1) translate(-12.000000, -12.000000) "></path>
                    </g>
                </g>
            </g>
        </g>
    </g>
</svg>