<?xml version="1.0" encoding="UTF-8"?>
<svg width="40px" height="40px" viewBox="0 0 40 40" version="1.1" xmlns="http://www.w3.org/2000/svg" xmlns:xlink="http://www.w3.org/1999/xlink">
    <title>矩形</title>
    <defs>
        <rect id="path-1" x="0" y="0" width="40" height="40" rx="8"></rect>
    </defs>
    <g id="页面1" stroke="none" stroke-width="1" fill="none" fill-rule="evenodd">
        <g id="3.列表icon汇总一" transform="translate(-786.000000, -2416.000000)">
            <g id="编组-14" transform="translate(786.000000, 2416.000000)">
                <g id="编组-13">
                    <mask id="mask-2" fill="white">
                        <use xlink:href="#path-1"></use>
                    </mask>
                    <use id="矩形" fill="#0072EF" xlink:href="#path-1"></use>
                    <circle id="椭圆形" fill="#338EF2" mask="url(#mask-2)" cx="6" cy="36" r="19"></circle>
                    <circle id="椭圆形" fill="#338EF2" mask="url(#mask-2)" cx="43" cy="7" r="19"></circle>
                    <circle id="椭圆形" fill="#53A0F4" mask="url(#mask-2)" cx="44" cy="-2" r="19"></circle>
                    <path d="M32.7428982,16.8020295 L32.7428982,21.5152308 L33.7890496,22.5626089 L31.6967468,24.657365 L29.6044441,22.5626089 L30.9993126,21.1661048 L30.9993126,17.5002815 C25.0711214,19.9441637 23.1531772,20.8169787 21.7583086,21.3406678 C20.5377987,22.0389198 19.6660059,22.0389198 18.2711373,21.5152308 C17.0506274,20.9915418 10.773719,18.7222226 7.63526487,17.1511555 C5.54296209,16.1037774 5.36860352,15.4055253 7.63526487,14.7072733 C10.5993605,13.4853322 15.3070417,11.7397021 17.9224202,10.692324 C19.4916473,9.99407195 20.3634401,9.64494592 21.7583086,10.517761 C24.1993285,11.5651391 29.9531612,13.8344582 32.7428982,14.8818363 C35.1839181,15.9292144 33.4403325,16.2783404 32.7428982,16.8020295 L32.7428982,16.8020295 Z M22.1070258,23.2608609 C23.5018943,22.7371719 25.4198385,21.6897938 27.6864998,20.6424157 L27.6864998,28.1486253 C27.6864998,28.1486253 24.8967628,31.1161965 20.1890816,31.1161965 C14.9583246,31.1161965 12.1685876,28.1486253 12.1685876,28.1486253 L12.1685876,21.1661048 C13.7378146,21.8643568 15.6557589,22.3880459 17.9224202,23.2608609 C19.1429302,23.78455 20.8865158,23.959113 22.1070258,23.2608609 Z" id="形状" fill="#F4F9FF" fill-rule="nonzero" mask="url(#mask-2)"></path>
                </g>
            </g>
        </g>
    </g>
</svg>