<?xml version="1.0" encoding="UTF-8"?>
<svg width="16px" height="16px" viewBox="0 0 16 16" version="1.1" xmlns="http://www.w3.org/2000/svg" xmlns:xlink="http://www.w3.org/1999/xlink">
    <title>箭头</title>
    <g id="页面-1" stroke="none" stroke-width="1" fill="none" fill-rule="evenodd">
        <g id="选中样式补充" transform="translate(-338.000000, -211.000000)" fill-rule="nonzero">
            <g id="编组-22" transform="translate(24.000000, 161.000000)">
                <g id="箭头" transform="translate(322.000000, 58.000000) rotate(-90.000000) translate(-322.000000, -58.000000) translate(314.000000, 50.000000)">
                    <rect id="矩形" fill="#000000" opacity="0" x="0" y="0" width="16" height="16"></rect>
                    <path d="M14.0043556,4 C14.5156231,4 14.9291053,4.41028498 14.9291053,4.92157878 C14.9291053,5.15925276 14.8378724,5.37424351 14.6914182,5.53710493 L9.19919932,11.6332506 C8.89305459,12.0369832 8.31663202,12.1217559 7.90961006,11.8156112 C7.83798156,11.7635081 7.77608949,11.701524 7.72724948,11.6331585 L2.18271706,5.47204195 C1.87995377,5.06821721 1.961345,4.48868951 2.36834065,4.18574201 C2.53449141,4.05869484 2.72661472,4.00009211 2.91871171,4.00009211 L14.0043556,4 Z" id="路径" fill="#14AA50"></path>
                </g>
            </g>
        </g>
    </g>
</svg>