<?xml version="1.0" encoding="UTF-8"?>
<svg width="16px" height="16px" viewBox="0 0 16 16" version="1.1" xmlns="http://www.w3.org/2000/svg" xmlns:xlink="http://www.w3.org/1999/xlink">
    <title>编组 11备份</title>
    <defs>
        <linearGradient x1="0%" y1="94.4058677%" x2="100%" y2="0.477955122%" id="linearGradient-1">
            <stop stop-color="#3577FE" offset="0%"></stop>
            <stop stop-color="#65AFFF" stop-opacity="0.9" offset="100%"></stop>
        </linearGradient>
    </defs>
    <g id="页面-1" stroke="none" stroke-width="1" fill="none" fill-rule="evenodd">
        <g id="项目跟踪-为空" transform="translate(-144.000000, -176.000000)">
            <g id="编组-14备份-3" transform="translate(128.000000, 152.000000)">
                <g id="编组-24" transform="translate(16.000000, 19.000000)">
                    <g id="编组-11备份" transform="translate(0.000000, 5.000000)">
                        <rect id="矩形" fill="url(#linearGradient-1)" x="0" y="0" width="16" height="15.9233435" rx="4"></rect>
                        <path d="M11.7264249,9.94984456 C11.7173057,9.93740933 11.7073575,9.92580311 11.6957513,9.91502591 L9.50632124,7.72559585 C9.60082902,7.44373057 9.65222798,7.1411399 9.65222798,6.82694301 C9.65222798,6.81036269 9.65222798,6.79378238 9.65139896,6.77720207 C9.65139896,6.77056995 9.65222798,6.76393782 9.65222798,6.7573057 C9.65222798,6.75150259 9.65222798,6.74487047 9.65139896,6.73906736 L9.65222798,6.73906736 C9.60580311,5.21865285 8.35896373,4 6.82694301,4 L6.82611399,4 L6.82528497,4 C6.38341969,4 5.96559585,4.10196891 5.59253886,4.2826943 L5.59253886,4.28352332 C5.59170984,4.28352332 5.59088083,4.28435233 5.59005181,4.28435233 L5.59170984,4.28683938 C5.55937824,4.30259067 5.52870466,4.32414508 5.50134715,4.35150259 C5.36870466,4.48414508 5.36870466,4.6988601 5.50134715,4.83150259 L6.79709845,6.12725389 L6.18694301,6.73740933 L4.87295337,5.42093264 C4.74031088,5.28829016 4.52559585,5.28829016 4.39295337,5.42093264 C4.3680829,5.44580311 4.34735751,5.47398964 4.33160622,5.50466321 L4.32911917,5.50300518 C4.11937824,5.89761658 4,6.34860104 4,6.82694301 C4,8.38797927 5.26590674,9.65388601 6.82694301,9.65388601 C7.24725389,9.65388601 7.64601036,9.56186528 8.00497409,9.39772021 L10.0526425,11.4453886 L10.0518135,11.4462176 C10.078342,11.4752332 10.1065285,11.5025907 10.1363731,11.5282902 L10.1711917,11.5631088 C10.2043523,11.5962694 10.2433161,11.6219689 10.2847668,11.6385492 C10.4563731,11.7454922 10.6594819,11.8068394 10.8766839,11.8068394 C11.4967876,11.8068394 12,11.3036269 12,10.6835233 C12,10.4033161 11.8972021,10.1471503 11.7264249,9.94984456 Z" id="路径" fill="#FFFFFF" fill-rule="nonzero"></path>
                    </g>
                </g>
            </g>
        </g>
    </g>
</svg>