<?xml version="1.0" encoding="UTF-8"?>
<svg width="40px" height="40px" viewBox="0 0 40 40" version="1.1" xmlns="http://www.w3.org/2000/svg" xmlns:xlink="http://www.w3.org/1999/xlink">
    <title>项目备份 8</title>
    <defs>
        <linearGradient x1="100%" y1="100%" x2="6.57848011%" y2="100%" id="linearGradient-1">
            <stop stop-color="#41C169" offset="0%"></stop>
            <stop stop-color="#18974B" offset="100%"></stop>
        </linearGradient>
        <path d="M10.8140532,0 C11.2237691,0 11.6167475,0.162543314 11.9065052,0.45221135 C12.1962629,0.741879386 12.3590546,1.13480739 12.3590546,1.54452327 L12.3590546,3.01253756 C12.3590546,3.05557381 12.3934836,3.09000281 12.4365198,3.09000281 L18.5385819,3.09000281 C18.9482977,3.08987597 19.3412761,3.25254605 19.6310338,3.54221409 C19.9207916,3.83188212 20.0835833,4.22481013 20.0835833,4.63452601 L20.0835833,15.4490574 C20.0835833,16.302074 19.3920767,16.9935806 18.5390601,16.9935806 L1.5445232,16.9935806 C0.691506589,16.9935806 0,16.302074 0,15.4490574 L0,1.54452327 C0,0.691506663 0.691506589,0 1.5445232,0 L10.8140532,0 Z M15.7099525,10.8140533 L4.01078744,10.8140533 C3.92876039,10.8140533 3.86226432,10.856871 3.86226432,10.9096894 L3.86226432,12.2634186 C3.86226432,12.3160184 3.92909972,12.3590547 4.01078744,12.3590547 L15.7092099,12.3590547 C15.7912369,12.3590547 15.857733,12.3162369 15.857733,12.2634186 L15.857733,10.9101676 C15.857733,10.8573492 15.7912369,10.8145315 15.7092099,10.8145315 L15.7099525,10.8140533 Z M10.9111709,7.72452875 L4.01078744,7.72452875 C3.9287604,7.72452875 3.86226432,7.76734648 3.86226432,7.82016484 L3.86226432,9.17341582 C3.86226432,9.22649386 3.92909972,9.26905192 4.01078744,9.26905192 L10.9111709,9.26905192 C10.993198,9.26905192 11.059694,9.22623418 11.059694,9.17341582 L11.059694,7.82016484 C11.059694,7.76734648 10.993198,7.72452875 10.9111709,7.72452875 L10.9111709,7.72452875 Z" id="path-2"></path>
        <filter x="-69.7%" y="-58.8%" width="239.4%" height="264.8%" filterUnits="objectBoundingBox" id="filter-3">
            <feOffset dx="0" dy="4" in="SourceAlpha" result="shadowOffsetOuter1"></feOffset>
            <feGaussianBlur stdDeviation="4" in="shadowOffsetOuter1" result="shadowBlurOuter1"></feGaussianBlur>
            <feColorMatrix values="0 0 0 0 0.125490196   0 0 0 0 0.611764706   0 0 0 0 0.31372549  0 0 0 1 0" type="matrix" in="shadowBlurOuter1"></feColorMatrix>
        </filter>
    </defs>
    <g id="页面-1" stroke="none" stroke-width="1" fill="none" fill-rule="evenodd">
        <g id="选中样式补充" transform="translate(-40.000000, -179.000000)">
            <g id="编组-22" transform="translate(24.000000, 161.000000)">
                <g id="项目备份-8" transform="translate(16.000000, 18.000000)">
                    <rect id="矩形" fill="url(#linearGradient-1)" x="0" y="0" width="39.9848955" height="39.9848955" rx="8"></rect>
                    <path d="M39.9875027,27.9894269 C39.9875027,28.9607168 39.9848955,30.3375367 39.9848955,32.2801165 C39.9848955,36.6967261 36.4135743,40 31.9969647,40 L8.0060274,40 C3.5894178,40 0,36.6967261 0,32.2801165 C0,30.1618171 0,29.5727149 0,28.5135652 L39.9875027,27.9894269 Z" id="路径" fill="#FFFFFF" opacity="0.20499442"></path>
                    <text id="完-成" font-family="PingFangSC-Medium, PingFang SC" font-size="8" font-weight="400" line-spacing="8" fill="#FFFFFF">
                        <tspan x="10.9958463" y="37.9871612">完 成</tspan>
                    </text>
                    <g id="项目" transform="translate(9.996224, 7.996979)" fill-rule="nonzero">
                        <g id="形状">
                            <use fill="black" fill-opacity="1" filter="url(#filter-3)" xlink:href="#path-2"></use>
                            <use fill="#FFFFFF" xlink:href="#path-2"></use>
                        </g>
                    </g>
                </g>
            </g>
        </g>
    </g>
</svg>