<?xml version="1.0" encoding="UTF-8"?>
<svg width="16px" height="16px" viewBox="0 0 16 16" version="1.1" xmlns="http://www.w3.org/2000/svg" xmlns:xlink="http://www.w3.org/1999/xlink">
    <title>等待备份 7</title>
    <defs>
        <linearGradient x1="0%" y1="94.8344448%" x2="100%" y2="0%" id="linearGradient-1">
            <stop stop-color="#3577FE" offset="0%"></stop>
            <stop stop-color="#65AFFF" stop-opacity="0.9" offset="100%"></stop>
        </linearGradient>
    </defs>
    <g id="页面-1" stroke="none" stroke-width="1" fill="none" fill-rule="evenodd">
        <g id="项目跟踪首页" transform="translate(-350.000000, -176.000000)" fill-rule="nonzero">
            <g id="编组-14备份-2" transform="translate(334.000000, 152.000000)">
                <g id="编组-9" transform="translate(16.000000, 19.000000)">
                    <g id="等待备份-7" transform="translate(0.000000, 5.000000)">
                        <rect id="矩形" fill="url(#linearGradient-1)" x="0" y="0" width="16" height="16" rx="4"></rect>
                        <g id="等待" transform="translate(4.000000, 5.000000)" fill="#FFFFFF">
                            <path d="M7.83313988,0.973690924 L2.99191294,5.81491786 C2.76927241,6.0375584 2.40784296,6.0375584 2.18520242,5.81491786 L1.78136526,5.41108069 L7.02546555,0.166980403 C7.24810608,-0.0556601345 7.60953553,-0.0556601345 7.83217607,0.166980403 C8.05578042,0.389620941 8.05578042,0.751050386 7.83313988,0.973690924 Z M2.18423861,5.81491786 L0.166980403,3.79765965 C-0.0556601345,3.57501911 -0.0556601345,3.21358967 0.166980403,2.99094913 C0.389620941,2.76830859 0.751050386,2.76830859 0.973690924,2.99094913 L3.3947863,5.4120445 L2.99191294,5.81491786 C2.76830859,6.0375584 2.40784296,6.0375584 2.18423861,5.81491786 L2.18423861,5.81491786 Z" id="形状"></path>
                        </g>
                    </g>
                </g>
            </g>
        </g>
    </g>
</svg>