<?xml version="1.0" encoding="UTF-8"?>
<svg width="48px" height="48px" viewBox="0 0 48 48" version="1.1" xmlns="http://www.w3.org/2000/svg" xmlns:xlink="http://www.w3.org/1999/xlink">
    <title>矩形</title>
    <defs>
        <linearGradient x1="0%" y1="100%" x2="100%" y2="0%" id="linearGradient-1">
            <stop stop-color="#F9455A" offset="0%"></stop>
            <stop stop-color="#FC9959" offset="100%"></stop>
        </linearGradient>
    </defs>
    <g id="页面-1" stroke="none" stroke-width="1" fill="none" fill-rule="evenodd">
        <g id="集约化比对列表2" transform="translate(-128.000000, -527.000000)">
            <g id="编组-13" transform="translate(128.000000, 521.000000)">
                <g id="编组-11" transform="translate(0.000000, 6.000000)">
                    <path d="M8,0 L36,0 L36,0 L48,12 L48,40 C48,44.418278 44.418278,48 40,48 L8,48 C3.581722,48 -3.01163068e-15,44.418278 0,40 L0,8 C-5.41083001e-16,3.581722 3.581722,-9.64732338e-16 8,0 Z" id="矩形" fill="url(#linearGradient-1)"></path>
                    <path d="M36,0 L48,12 L44,12 C39.581722,12 36,8.418278 36,4 L36,0 L36,0 Z" id="矩形" fill="#FFFFFF" opacity="0.5"></path>
                    <path d="M31.128257,29.6784794 C29.5493443,29.5615229 28.0289098,28.9767404 26.8008666,27.9241319 C24.4032584,28.4504362 22.1226067,29.2106534 19.8419551,30.1463054 C18.0291294,33.362609 16.3332602,35 14.8713039,35 C14.5789127,35 14.2280432,34.9415218 13.9941302,34.766087 C13.3508695,34.4736958 13,33.830435 13,33.1871743 C13,32.6608701 13.1169565,31.1989139 18.6723901,28.8013057 C19.9589116,26.4621757 20.9530418,24.0645676 21.7717373,21.5500029 C21.0699983,20.1465249 19.5495638,16.6963083 20.6021723,14.9419608 C20.9530418,14.2987001 21.6547808,13.9478306 22.414998,14.0063088 C22.9997805,14.0063088 23.584563,14.2987001 23.9354324,14.766526 C24.6956497,15.8191345 24.6371714,18.041308 23.6430412,21.3160899 C24.5786932,23.0704373 25.8067364,24.64935 27.2686926,25.9943498 C28.4967358,25.7604368 29.724779,25.585002 30.9528223,25.585002 C33.7012999,25.6434802 34.1106477,26.9300017 34.0521694,27.6902189 C34.0521694,29.6784794 32.1223872,29.6784794 31.128257,29.6784794 L31.128257,29.6784794 Z M14.7543474,33.3041308 L14.9297822,33.2456526 C15.7484777,32.9532613 16.3917384,32.3684788 16.8595644,31.6082616 C15.9823907,31.9591311 15.2806517,32.5439136 14.7543474,33.3041308 Z M22.5319545,15.7606563 L22.3565197,15.7606563 C22.2980415,15.7606563 22.181085,15.7606563 22.1226067,15.8191345 C21.8886937,16.8132648 22.0641285,17.8658732 22.4734762,18.8015252 C22.8243457,17.807395 22.8243457,16.7547865 22.5319545,15.7606563 L22.5319545,15.7606563 Z M22.9413022,24.2400023 L22.882824,24.3569588 L22.8243457,24.2984805 C22.2980415,25.6434803 21.713259,26.98848 21.0699983,28.2750014 L21.1869548,28.2165232 L21.1869548,28.3334797 C22.4734762,27.8656537 23.8769542,27.4563059 25.1634757,27.1639147 L25.1049974,27.1054365 L25.2804322,27.1054365 C24.4032584,26.2282627 23.584563,25.2341325 22.9413022,24.2400023 L22.9413022,24.2400023 Z M30.894344,27.3393495 C30.3680398,27.3393495 29.9002138,27.3393495 29.3739095,27.456306 C29.958692,27.7486972 30.5434745,27.8656537 31.128257,27.9241319 C31.5376047,27.9826102 31.9469525,27.9241319 32.297822,27.8071754 C32.297822,27.6317407 32.063909,27.3393495 30.894344,27.3393495 Z" id="形状" fill="#FFFFFF" fill-rule="nonzero"></path>
                </g>
            </g>
        </g>
    </g>
</svg>