<?xml version="1.0" encoding="UTF-8"?>
<svg width="48px" height="48px" viewBox="0 0 48 48" version="1.1" xmlns="http://www.w3.org/2000/svg" xmlns:xlink="http://www.w3.org/1999/xlink">
    <title>矩形</title>
    <defs>
        <linearGradient x1="0%" y1="94.8344448%" x2="100%" y2="0%" id="linearGradient-1">
            <stop stop-color="#3577FE" offset="0%"></stop>
            <stop stop-color="#65AFFF" stop-opacity="0.9" offset="100%"></stop>
        </linearGradient>
    </defs>
    <g id="页面-1" stroke="none" stroke-width="1" fill="none" fill-rule="evenodd">
        <g id="集约化比对列表2" transform="translate(-128.000000, -156.000000)">
            <g id="编组" transform="translate(128.000000, 151.000000)">
                <g id="编组-11" transform="translate(0.000000, 5.000000)">
                    <path d="M8,0 L36,0 L36,0 L48,12 L48,40 C48,44.418278 44.418278,48 40,48 L8,48 C3.581722,48 -3.01163068e-15,44.418278 0,40 L0,8 C-5.41083001e-16,3.581722 3.581722,-9.64732338e-16 8,0 Z" id="矩形" fill="url(#linearGradient-1)"></path>
                    <path d="M36,0 L48,12 L44,12 C39.581722,12 36,8.418278 36,4 L36,0 L36,0 Z" id="矩形" fill="#FFFFFF" opacity="0.5"></path>
                    <path d="M33.5382896,16 C34.371623,16 34.7882896,16.4166667 34.7882896,17.25 L34.7897244,32.3733706 C34.9149976,32.6681311 34.8928242,32.9628917 34.7232041,33.2576522 C34.6178659,33.6080087 34.3902463,33.8337702 34.0392939,33.936199 C33.7124814,34.1188328 33.3865418,34.1209667 33.0606022,33.942811 C32.7342307,33.8535702 32.5119746,33.6619667 32.3924864,33.3675953 L23.998,24.971 L15.6040929,33.3675953 C15.4838651,33.6637886 15.2595934,33.855938 14.9312778,33.9440435 C14.6119587,34.1156065 14.2933245,34.1144665 13.9746903,33.9410281 C13.6088781,33.8393364 13.3746849,33.607768 13.2706521,33.2460392 C13.1075227,32.9553951 13.086345,32.6664589 13.2068445,32.3775228 L13.2082896,17.25 C13.2082896,16.46875 13.5745006,16.0537109 14.3069224,16.0048828 L14.4582896,16 C15.291623,16 15.7082896,16.4166667 15.7082896,17.25 L15.708,29.725 L23.098,22.335 L23.1138998,22.319196 C23.235099,22.1979968 23.3562982,22.1017261 23.4774974,22.0303839 C23.9100093,21.7732883 24.3425765,21.8342409 24.7751437,22.2127372 L24.8856292,22.3163173 C24.923453,22.3541412 24.958849,22.391965 24.991817,22.4297889 L32.288,29.726 L32.2882896,17.25 C32.2882896,16.46875 32.6545006,16.0537109 33.3869224,16.0048828 L33.5382896,16 Z" id="形状结合" fill="#FFFFFF" fill-rule="nonzero"></path>
                </g>
            </g>
        </g>
    </g>
</svg>